<mxfile host="app.diagrams.net" modified="2023-09-14T19:32:50.854Z" agent="Mozilla/5.0 (Windows NT 10.0; Win64; x64) AppleWebKit/537.36 (KHTML, like Gecko) Chrome/116.0.0.0 Safari/537.36" etag="6076DSupOOZqxKkgz0Cn" version="21.6.6" type="github">
  <diagram name="Page-1" id="mMjcrVmF057s-cYZKARp">
    <mxGraphModel dx="5297" dy="2966" grid="0" gridSize="10" guides="1" tooltips="1" connect="1" arrows="1" fold="1" page="0" pageScale="1" pageWidth="850" pageHeight="1100" math="0" shadow="0">
      <root>
        <mxCell id="0" />
        <mxCell id="1" parent="0" />
        <mxCell id="1uWH6UvffxMvrlQ3iq2U-70" value="" style="ellipse;whiteSpace=wrap;html=1;aspect=fixed;" parent="1" vertex="1">
          <mxGeometry x="406.5" y="376.5" width="147" height="147" as="geometry" />
        </mxCell>
        <mxCell id="ZOLhoiJWXAgXSTqIeIC7-2" value="" style="shape=image;verticalLabelPosition=bottom;labelBackgroundColor=default;verticalAlign=top;aspect=fixed;imageAspect=0;image=data:image/png,iVBORw0KGgoAAAANSUhEUgAAAfQAAAH0CAYAAADL1t+KAAAACXBIWXMAAA7EAAAOxAGVKw4bAAA7NElEQVR4Xu3dB5hcVf0w4LsJJfTQeygSeu+9iiAIhCKolL8iRQE7CggoXUFBBVFRFBFUUClKB2lKLxGkQ+i9EyQhfb/fWXbmm2y2zO6eu5nsvvM882TZufecc9877O+eXhReBAgQIECAAAECBAgQIECAAAECBAgQIECAAAECBAgQIECAAAECBAgQIECAAAECBAgQIECAAAECBAgQIECAAAECBAgQIECAAAECBAgQIECAAAECBAgQIECAAAECBAgQIECAAAECBAgQIECAAAECBAgQIECAAAECBAgQIECAAAECBAgQIECAAAECBAgQIECAAAECBAgQIECAAAECBAgQIECAAAECBAgQIECAAAECBAgQIECAAAECBAgQIECAAAECBAgQIECAAAECBAgQIECAAAECBAgQIECAAAECBAgQIECAAAECBAgQIECAAAECBAgQIECAAAECBAgQIECAAAECBAgQIECAAAECBAgQIECAAAECBAgQIECAAAECBAgQIECAAAECBAgQIECAAAECBAgQIECAAAECBAgQIECAAAECBAgQIECAAAECBAgQIECAAAECBAgQIECAAAECBAgQIECAAAECBAgQIECAAAECBAgQIECAAAECBAgQIECAAAECBAgQIECAAAECBAgQIECAAAECBAgQIECAAAECBAgQIECAAAECBAgQIECAAAECBAgQIECAAAECBAgQIECAAAECBAgQIECAAAECBAgQIECAAAECBAgQIECAAAECBAgQIECAAAECBAgQIECAAAECBAgQIECAAAECBAgQIECAAAECBAgQIECAAAECBAgQIECAAAECBAgQIECAAAECBAgQIECAAAECBAgQIECAAAECBAgQIECAAAECBAgQIECAAAECBAgQIECAAAECBAgQIECAAAECBAgQIECAAAECBAgQIECAAAECBAgQIECAAAECBAgQIECAAAECBAgQIECAAAECBAgQIECAAAECBAgQIECAAAECBAgQIECAAAECBAgQIECAAAECBAgQIECAAAECBAgQIECAAAECBAgQIECAAAECBAgQIECAAAECBAgQIECAAAECBAgQIECAAAECBAgQIECAAAECBAgQIECAAAECBAgQIECAAAECBAgQIECAAAECBAgQIECAAAECBAgQIECAAAECBAgQIECAAAECBAgQIECAAAECBAgQIECAAAECBAgQIECAAAECBAgQIECAAAECBAgQIECAAAECBAgQIECAAAECBAgQIECAAAECBAgQIECAAAECBAgQIECAAAECBAgQIECAAAECBAgQIECAAAECBAgQIECAAAECBAgQIECAAAECBAgQIECAAAECBAgQIECAAAECBAgQIECAAAECBAgQIECAAAECBAgQIECAAAECBAgQIECAAAECBAgQIECAAAECBAgQIECAAAECBAgQIECAAAECBAgQIECAAAECBAgQIECAAAECBAgQIECAAAECBAgQIECAAAECBAgQIECAAAECBAgQIECAAAECBAgQIECAAAECBAgQIECAAAECBAgQIECAAAECBAgQIECAAAECBAgQIECAAAECBAgQIECAAAECBAgQIECAAAECBAgQIECAAAECBAgQIECAAAECBAgQIECAAAECBAgQIECAAAECBAgQIECAAAECBAgQIECAAAECBAgQIECAAAECBAgQIECAAAECBAgQIECAAAECBAgQIECAAAECBAgQIECAAAECBAgQIECAAAECBAgQIECAAAECBAgQIECAAAECBAgQIECAAAECBAgQIECAAAECBAgQIECAAAECBAgQIECAAAECBAgQIECAAAECBAgQIECAAAECBAgQIECAAAECBAgQIECAAAECBAgQIECAAAECBAgQIECAAAECBAgQIECAAAECBAgQIECAAAECBAgQIECAAAECBAgQIECAAAECBAgQIECAAAECBAgQIECAAAECBAgQIECAAAECBAgQIECAAAECBAgQIECAAAECBAgQIECAAAECBAgQIECAAAECBAgQIECAAAECBAgQIECAAAECBAgQIECAAAECBAgQIECAAAECBAgQIECAAAECBAgQIECAAAECBAgQIECAAAECBAgQIECAAAECBAgQIECAAAECBAgQIECAAAECBAgQIECAAAECBAgQIECAAAECBAgQIECAAAECBAgQIECAAAECBAgQIECAAAECBAgQIECAAAECBAgQyCbQlC0lCc3QAq8/07zmm88Xq73/RjEsLqT2ezFl7oWKF+ZZsHh2yVWbbp+hL1LhCRAg0I8FBPR+fHM7u7RxHzQPHXVvseuou4u9XnykWHv8mGKOOH5wvAe1ntfcGtjTv1Pinf5tXm794l9Lrlpcs8qWxXlD5mz63wDlc9kECBBoOAEBveFuSbkFikA+351/KU54+OZiRATxeSO32VoD96TWwJ0KkL4XE+M9S2sgT79LAX3mms/GrrJVcdnGexYnzbNw09PlllrqBAgQINCVgIDelVA/+vyOi5uPv//K4uAI5Au1Bu9xrQG6acGli/sXWrp4IJrXn0+fRS38zhcfLjaOnwdHM/xSo98shr30SLFN+u9Wkpni31Sbn7TOp4qzNtqzOC5q7O/3Iy6XQoAAgRlKQECfoW5Xzwob/eNrX3d2cfYbzxZrRApDWoP5h0usUty46lbFBdGMfmUE4/FdpR61+9lG3VPsHLX7/SO4bxLHzxrvFNgnzDpH8couRxT7D1u16eau0vE5AQIECOQXENDzmzZUig/f1PzFa39e/DgKNXtrwcZGIL91472KH0bwvaunhR39evNiN59XnBIBfo/Wh4TUJD820j1j472aju9pus4jQIAAgZ4JCOg9c2v4s5qbm5tuOa/4eTSxf641mA+adfbihe2/Unxp+AZNN+S6gBcebt7k2rOK37z/ZrF8pJma4FPf+l8/+ZWmL+TKQzoECBAg0LWAgN610Qx5xDVnNV/8yM3FtlH4NJCtOWrlN4w4otgnmtY/zH1B0RQ/z82/K0575JZin0g79bFPSgPmIqjvmzsv6REgQIBA+wICej/8Ztx+UfNJMZL94Li0NEp9ckwx+90nv9p0eNmXGvl+N/I9MvJJI+fHR1C/OIL6F8vOV/oECBAg8P/nHLPoJwJP3d28UwTV1Nydmr8npPnifRHME98mn2k6ZfvDikPjx7Gpph4tBLved0XzV/oJrcsgQIBAQwtUFhFp6EIqXH0CMVBt6RgAd3ocnZrZB0cwPz+C+bfqOzvPUatu3XRBTGE7NVJLi9HMGf34x0c/+2Z5UpcKAQIECHQkIKD3o+9GBPPfxhzzoXFJQ2Je+cit9i+Omx6Xl2rqMRXu0sg7LVYzW5Tr7OlRDnkSIEBgIAkI6P3kbsf0tP1iCdfV43Jmj9Hs78UAuH1jANwH0+vyoun9sCjHa5H/TLEwzbLRv37M9CqLfAkQIDAQBAT0fnCXY5T5XHf8pTgiLiUt9DJ5o72Kk2M51pfbu7Q0na0373q54mFidEyR+1ocPyHes4y8qvhydAksXu/5vT0uXWNv03A+AQIEZiQBf/RKuFsfvNs8/5VnFJdH0i0bmsQ7OddjXTmm9tj0c0ojvSr/Vn+edbbifwstW9wbA+G+ngLn3AsWT6+/a/Gzx29vmUKWVnFL56cHt/RuW4badLsqX23eKf+211TZwCU1s0+O96QlVipufemxYuNYVW6LVPbo07908MzFxHdeKVauKVM6L73bvtpe8zTXXnNCZQOZ2nIN3uaA4oAFl2p6pJ20/YoAAQL9TiD9wffKLJD6sSOIbRDJpsFpuV+V4JcC56BYR/13Mf/78/FzyxKsm+5d/ODGXxenjh9bLNYadHPnX296k8Ngnb1OLHa8+NhinThpnijn3pvvV5z83xtaylv2a8rY0cWCZWcifQIECDSKgCb3Eu7EpAktTd/t1Tpz5Fapbae0Bs0xX/FG9FEvEj8Pjtr5a2+/WKwQwXzu6RzMU9nSAjPND15X7BMD5K6Pn1OtfXw87Mw685BiTA6ILtKYMml8y3x4LwIECAwIAQG9hNs8cXzLuuldNWH3Juf0sDBT7Ih2zyuPt7QEtDRzxzrqP3jgmuKg+HnO3iSe8dzZH7+t2DcWmLmwtYzNj/272GXFTYpLMubRUVKD4sFKQO8DaFkQINAYAgJ6CfchAkna0azMV9qrvGn4BsVlsTlKWt411YbTvZzSILXzyrWnleoGvfdasVy0HqRBelOiNWHxRYYX95WJU0lbQO8LZXkQINAoAgJ6CXeiNZCUXUNvamoqUmBP255Oimbty5+8s9glfk5BtJFeszx6S7FflO/qFNBTgI9ugRVnma30ZvfmPniwaiRnZSFAYIALCOglfAGi77ayVWkJqX+U5AJLFU+8NqpYN35seXCIgHnVM/cX28WPqbbeSK/Bbz5frLnYisXtUaiW0ehvPFesvvhKxb9b/7u0skbXxxylJS5hAgQINJiAgF7CDemDGvqgmBJ254uPFlunGm/rOzXzN+r9nDjhw2K+KF8aLDhTjH5fLwJ6CvCp77+sV1PcBwG9LF3pEiDQcAKNGgAaDqo7BeqDvtuZ5luseC76oxeKcg2OFdlmevulYuP4uVEHgQ158eFih9jC9fkoY5rKN2XQoJZg3nZue3eYuzo2DYoT0LtS8jkBAv1GQEAv4Va2jnIvIeWWJFsC4ZTmj/Y5j3fTgssUz0S/dGp+b9RX01vPF2sttHTxWCpvvCfPOkfxTvq3zALHfWiU0f5lXqa0CRAg0CIgoJfwRYiaYZnT1loGwcWAuBQY0yCzyREo746AvkAJl5IryQnRj754BPEnIsFxqfwfvFPMX/bAuMkTG7bFIperdAgQIFAVENBL+DLEoLjU1FvG4LRxcwwtXt/ntGKrcR9UB96Ni0D59Fo7FKdEntNtM5YuGCeusV1x5kLLFP+K49KiMml0/qT9zijWiq6DkSXcgpYkJ45TQy/LVroECDSegIBewj1praHnTrllytenjy92XGS5prvi58qyven3Y9fduennK2zSsmVpqsE30mvCkqsUN217cNO34sHjlVTWeE9+87lizaELN70U17PDTDO3NL9nf+lDz04qQQIEGlhAQC/h5pQ0XWr8sNWKfy6wZNPjrUVOfelpJ7NBESjfTr9bfdvivPinzJHjPdGauMb2xW9bT0wPHy2r2o37aN/2Yq75m15fboPi2vS7niTe2TmTJpa+wE/uIkuPAAECPRYQ0HtM1/GJJdUMm+ecr3izkus8C7U0VadpYDMP/2it9GLexVr6qFNgLHP0eHfFpsQqcc+mk6Kv/+kYkZ+6IuaIWvvNNdfyQvycfe37aHJv1FH/3TV0PAECBLoUsNtal0TdP6Ck0dUzxTS1YZXSrLp10wWvP9P8wJA5itGVvc8/eLtYOj6vd6vW7l9Yz86YEuVaNk79b+yR/r/YE32z0W8WSwxbtemOSnKj3yiWip+zjzmIQXFl7HbXMwVnESBAoGQBNfQSgEsaXT1L7C2+2mujmqvT0xZetumhCOapdls0Nzc3PfTP4sD4sdEe0oY8dGOxX7U2HuWdKpi/3rxMbOCSVrjL/l2MlpJGWwa3hG+bJAkQIPCRQPY/omBjdPX4lu1Ly3jNc8XpxS/Hjm6eap/vFMzv+3vxnQicu0emjdbMPOuzI4ttbj2/+QdtQcaPbZ778h8WF5VV5rgPqUvCiwABAgNCoMwNRAYEYHsX+ccjm0e++mSxVkkA42YfWjy7yWeK0+ddtHg65nevPuruYsSLsZxqa2DM3nSd6TrGLrJc8d/hGxaXxb/3xzz0xW6/qDgyuhGWKSugR9/9Ewed07RipvJLhgABAg0t0GjNsw2NVW/hYh56mTXDIWPfKz52w6+Kn7aWJ7WypPuY+osb+QFt9thMZsN4pwedyoj2VObS+rmjhq7Jvd4vreMIEJjhBQT0Em5h9N2WFqRai5sCVXq3LP1awiWUmWSZDztTlTvug+93mXdS2gQINJSAPvQSbkcfBPRKqWe0YF6CdsdJxrS1Pnt46NMLkxkBAgTaERDQS/haRFNv2TX0EkrdL5NspPn4/RLYRREg0DgCAnoJ96IPa+gllL5fJTl43JhmtfR+dUtdDAECHQkI6CV8N8x/LgG1Z0k2xb0Y0rNTnUWAAIEZS0BAz3y/Jo5vqRHq287s2sPkBkdAb7R5+T28FKcRIECgcwEBPfM3pLVG2KhzwTNfbcMnNyimEM7Z8KVUQAIECGQQENAzINYm0boxixp6ZtceJjeopK1se1gcpxEgQKA8AQE9s22McJ9dk3tm1J4nN2jihJb74UWAAIF+LyCgZ77FrX22auiZXXuYXFM0uQ+YgL7kkku+Fu934/3ON7/5zbPamsXv32j9/O34/Mwemvbr084444zDw+itVqfXXnzxxUX69QW7uH4lYCWtzLdTQM8M2rvkBtQo9wg+C1e43n///Xna0sXn1U192vu8d9T94+wxY8bMGU7zV65m8uTJ1pToH7d2QFyFGnrm2xw1wjSqWg09s2tPkxvAo9yndGHW1ec9JZ/Rz+Myo9/BAVx+AT3zzVdDzwzau+QGtY5p6F0qzh5IAm0fxj2cD6S7P4Nfq4Ce+QYK6JlBe5dcanI3D713hs4mQGAGERDQM9+oqBHOEUlyzezaw+QG8sIy1rHv4ZemzWkc8zhKpQ8EBJ7MyK01Qq6ZXXuYXFpYZsCMcu+mkUDVTTCHE2h0AaPcM9+h1hq6frfMrj1NrlEWlnnrrbfmjdHTw1599dXF03vSpEkzLbbYYi8tuuiiLy+++OIvx7+v9/Qanff/BT788MMh99xzz3phvdR7770374ILLvjGsGHDnhs+fPioBRZY4O06rDzo1IHkkMYUENAz3xd9tplBe5nc9LwfDz/88EpXXHHFblddddUuCy200HpTpnQ8gHrNNdd8fKeddrrsU5/61GUbbLDBvb287AF3egTxtWMO+RERwEd88MEHs7QFmGmmmYoddtjhxs985jN/2HPPPS8eMmTI+AGH5IL7vYCm4cy3uFFqhJkva4ZNbnrcjwceeGD1CMzXrrrqqo8eddRRJ912222dBvOEG+eseOKJJx4VwfyejTba6N4bb7xxq16iD4ia5rhx42b9xje+ccb6669//0UXXbRne8E8OUaLSHH11Vdvs99++52/3nrrPfivf/1rk176Op1AwwkI6JlvSfTZpkFxXg0iEF0gfbY5SzSrz/+FL3zhD+uuu+4DV1555XY9JbjzzjvX3WabbW7aeeedr3766aeX7Wk63T1v9OjRc/3whz/87te+9rWzb7jhhm26e35fHz9x4sSZPv3pT1/6k5/85Bvdyfuhhx5aYcstt/z3D37wg6O6c55jCTS6gCb3zHdoetQIM19Cv0qur5rco3l9lU022eTyJ554Yrm2gIMGDSriszs33njj26LfPPWXvzJ48ODJ0Ze+2Guvvbbovffeu9HNN9+8+YQJE6bape8f//jHJ+++++57b7rppt223nrrW8u8MREcB2266aa3RH5rp3x+9rOfHXLJJZfsuvvuu19eZr69SfuII444Nbo0dqhNY955530vmtUvWn755Z9ceumln/3f//431wsvvLBUdHvsFA9K61eOje6Ppmg9OSWC+qD49+TelMO5BBpFQEDPfCcE9MygvUyuL+5HBIsdNttss4vffffdqVoDllpqqRe//e1vnxpB8ZII4q/9+9//7vBq4tx5ola/02mnnXZk1CBXqRz4+uuvz7f99tvfdM455xwcr3N7ydHh6f/5z3/WqgTzykEXXHDBAfFzQwb0eIBaYa211vp67QVF0/tPjznmmBPnn3/+d9q50JNSQP/Sl7706wcffHCN9HkMkhu99tprG69Q1pdKun0uoMk9M3lfNvFmLnq/TK7sleLuuOOOjaLZ95LaYD777LN/eMoppxz96KOPrnjYYYednYJ5V7hRsxy97777Xjhy5Mg1f/Ob3xy48MILv1U5J2rugyKY/+biiy/eo6t0evp55D9NEEy13Z6mV/Z555577iGpVaGSz/777//71PTeQTBvOSzGJtwTQX3DaG6/ZcUVV3wy+tE32m677a4vu6zSJ9BXAgJ6ZumoEfZZn23movfL5MqsoUdT7pIxYvqysWPHDqngxS5dL8SAti2/+93vnjLHHHOM7S7qzDPPPOnAAw88NwbSbRQj3x+sPf+AAw644P7771+ru2nWc3xM63o2arfVpudll132xbiG79Vz7vQ4JrVmVPKdbbbZxv785z8/pJ5yxMPWuEsvvXTn8F1/5ZVXfqyecxxDYEYR0OSe+U6VGUAyF3VAJFdWH3rswpX6nC956aWXqjucrbTSSo/GYLJPLLHEEi/3FjfNm45BapuNGDHiiuhf3yKlF/3BQ6I14B/x+5XnmWee//U2j7bnn3TSScc8+eST58c1DYtR43fNOeecY3LnkSO99AAVgXmZSlppEGJqFak37fnmmy+7Xb15O45AmQJq6Jl1W3dby5yq5HoqEPdj1p6e29l5559//hei+Xa9yjHRPP3u3/72tz1yBPNKmilop6lYH/vYx56t/O6ZZ55ZIuZbf7uMa0ppxmCyp2IA3o2NGsxTGWNcwQI1198czec5a9oDYrpfWd8f6U5fAQE9s3/UCKdZ1CJzFpLrhkDcj+z7WUcNcbaozR5XW4zf/e53+6+yyio5A0tL8tGX/sZf/vKXXaMpvhpooq/48BghX20Z6AZHvzg0NZvXXEhTBPhF+sWFuQgCvRQQ0HsJ2Pb0iSUEkMxFHFDJRUDP3q3061//+kupplyBjFHo1++6666XlwW7zjrrPBj95+dU0n///fdni9HwA3YOdawG93b0m0+oeNxyyy1bvP322/OV5S9dAjOKQPY/djPKhZdVzmjizV4jLKusAyHdcR/kX+gn5mfvVbGLOebNUVs/6tprry2VMwasnXDhhRfuG/3oLQsXRfP+XjGX+hsp/1wZP/LIIyuPGjVq+db0mmME+FWxROqketJ/55135rnmmmt2jDn1G8bc+sVikZ0Fo6/67UUWWeSVWJntrk9+8pPX1LmWepfZpWuORXduiHn6O6aD4wFnziOPPPLU+PHALk/u/gEt+zKkhXbi2tZ//PHHV01r8UfLyWuxEuCDUY7LYnDd491P9qMzxo8fP0uMkdgyHkq2efnll5dM6xJEd8cHMTPipRiT8UisOHjFMsss83w96UfZhsc6CCvFsanMzdtuu+110ZpRXeI2VtGbI65j25g+uWXks/gbb7yx8NChQ99Nea2xxhojd9xxx6vqmZFRT1kcM30EBPTM7mU08WYu4kBLLlvAS3CvvPLKItFPXl2gJBaMuSMGZY0sGzU2cHl1n332+UcE9c+mvGLzkUVi/fJ148ds86j/9Kc/7XfyyScfUbmW+KO/UPz8ZmfXloLI8ccff2IE7r1iel1Hhx4aXQZFmt533HHHHZujayKm+J1XCegp05jqd0DMQ/8gWi6+nWYK5LofKQDGPT4wguMG7aS5VzxInBIzHf4WK+x9J2YGVMc6dJV/PAANjbJ+J9wOjSmPc3d0/Fe+8pWzYvDl3eF21Mc//vGbO0v3r3/9617HHnvsiZVjnnvuuSXj55fiAWSRuK9HR14HdbQ0bjonLYAUD17Xx/08KgZFlv6d7srI590X0OTefbNOzyijiTdzEQdack0TxjVnazWJ6VK7pFXGKoipVtNXoJHX32vzirKMyJx324efDncNjFH+TRE8Tlh99dWf+POf/9xZMG8pYswZLyLg7B41wUfSCm2xtvpUq+J19zrSw0EE2X/WnhdjC74ea+HfHy6f7G56HR2fphDefvvt7QXz6ikxxmGPmON+X1rtr558w2G3GMj3RDwEHNVZMK+kFVPsNohgflMsUHRZ7CA3Tz15xDHpXk6OB50vRl5PxbS+wzoL5inNtHlQtLJ8Iq2LH9f9m7RzXZ15OaxBBAT0zDdiwofFbJmTlFzvBAblHKgYq7hNNQ88ajRX9q549Z8dffXXpFpU5dW2LPWn1HJke8G64+3gahIfM2bMbBFQL4vNZI6NWvk06UT/9uQVVljh2fh3mppyBPKmtIZ6NFVflZqAu1nmqQ7/4x//+Llo9n6o9pexME/aGOfqGKl/SwpOtQ9fvcmrcm40YU+KmvhLbdNKK/rttttuV8YKdit3lk90z3x3r732uiSau1Prx1SvmNXwQTSzPxUtQK/G7nDTtCxFV8+IWJHwzugW6Wh9/6nO+c53vvOT9EAS0xynWRsjFuB5P7oKRsVSxG/WfqcqBUotHvHAdGNrK00OOmn0gYCAnh85axNv/uINuBSbck4ljObL6mC4JLnccss93VeiMTXu/ei7re7pHWVZNHPeHdbIa/P54he/eH4szrJL7e9iQZ1XzjzzzK9GH+7y0c8/a/y7bJo3H/8OT79Pn9ceHzufbff5z3/+wjSfv6fXEFvSvnnrrbduGV0Rf2qbRqx/v0U8bF0XzftPpJp7N2u20xQpNstJ69yvF+nMHgMil4wm83n/8Ic/7Bt9zm9UDo7a9lyxOU+H13TWWWcdmhbvqd1GN67hrQjyx6bxC2lznMcee2z5WAdgsVRzjwC+W4xjuLG2MPEQt1LatCfl34VbU7QcVMd6pGNjbfsXw+KbUf5lYxDhPLGS4fDoQlooxjsMja6cvWOvgXtq04yWgY3Tg5uaek+/oX1/Xo//Z+r7ojZ+juPGNKfaea+aEhv/Kme4EqYaeq9qgrVXXBtEo5bzbk9Wg+uNYNSoqsvIxiCqxXqTVk/Ojdr1kTE3/tO1537ve987IW1K89WvfvWsqJk/FbXLyenz9G/896j0+9TXntZZrz0vBvaNSM3OPSlH5Zy01GsKRlGmvdob0BUBcnj0rf8k5vK/kPKPmvQ0NeOu8v/617/+0+hL3zqa8++bZZZZJqbjY8Dfe7EV64WxLvwqaZvcShoxcG6taFKfyid9Fg8em37zm988qzavz372sxeHy/JRrpPajiuYa665PkhN7Nddd93H4+FpRO2SthGIV4i8p3mI6ew6Yge9M9N5yaJtX39cy+j0UBQBfMPf/va3+0crRHUwRAyg2zjOnarcXXn5fPoJCOgZ7SNwpD4nAT2jaYaksgb0qNlUa0a5Rm135xpr/7C312zbjbS63ZIUDxCLxhr136/N4/TTT//WCSec8P2uVmpLDz5RE/1eBPDqoLuUzqmnnnpMDPCbqtWjG9dQPTR2WPvLU089tVzsEvfVCN7PtE0j7tvcaSW8aFF5Lsp7TL19+NHn/3DqIuhoNkGqYUfz9OdjIF61uyIeVD5Tm39q9o9Nen4a4wiqLSDpISe6DD4bwfTdrq43mvL/HqPgN43vW3V9/xgnsP3f//736vK3naURxkeEy9e6ukfpGqP15bzoqtimdnR8rJt/QDyorNNVOX0+/QUE9Iz3oHXZV6YZTTMkNTg2aMlWQ68NqBEkalcsy1DUrpOIptbqfOsIJq93fUa+IyKwHZOa0SspRs31Z9/61rfO6E4OMSr8tNjxrHZO/ZAIOL2qpVfyT6vbpdpk1MpXTLX2GJ1+V9uyRflnixaFE6MJ/eZoel6qq7JHgDsnxgLULmQzzSkxIO7ezTff/F+VD9I0tNqD0mDAmJFQDYhptHqs9tetKYerrbbaY9HEv3dtut///vdP6ar8UfP+c2wze1pXx9V+vsUWW9wWDwCHVn6Xuggirx90Jw3HTh8BwSeje/TVpsDBNKNpjqRyruceU3+qQTT1PaZV43KUsd40apvZo/n91XrP6+1xqXZZ2yebdmI7+uijT+pJunHe8bW1xTSnPtLPNoU2NYunJuQYnb5RLM+7wec+97mL2g78iibwzWJ+/H9SE3ln1xBbtN5fzzXWHhcPekMr6wWkc2OXvGogjnJM/tGPfvT1SrdEPWlXjtlhhx2uj9r65ZX/fuCBB1aNbW9X7yiNaLYfEy0ih3cnj8qxMZjut9HFUO1Tv/7667eO7ooFe5KWc/pOINv/RH1X5MbNqTVwCOiNdYuaWrtCspQq+mmn2njl6aefTpuEVPtQs2TSQSIxIGvuaKKtNvlHWToL6HUNcKu3vLHV6ObRxD9/5fjYCe6Byy67bESsmlfJp7YJv7PfpalRzTHd7eG77rqrZS38GEk9f/TVbho/3lJveeo9Lm2ZGsd+Nga0nR67x50WO+FtVTk3dZ+kkelxXWumAXbtpVnv2vxpl73a82OAW5peFhMCxswWAxk/XvksWgZujeD/33rL3/a4Qw899GepT73y+zSNMn5uN73og78kyj/VYMTu5BstKb8It5Y1F1IXReT1qfjxvO6k4di+FRDQM3rHsq+zR3JZ/5BmLN6ATSpaTtJ9yfKKAVAP1CYUwSn1Y/ZJQI8BUtvXjpCOgVQPxeIqWa6rq0RidPUatcekZuW2TctdpdHZ59FMnqZ73dKbNDo7Nw1oi8+3Pueccw6IxVrOjul2LXsuRP/9YtGnflz8WG1irk2nqamprql8cVy7c/jTKP+YnledNhZTD6+OAXY9vszUtJ/2ro9R8C1dL51MXWyOvK76/e9/3+O8okVgqjUWYkpeh60BPc7EiVkF1CYzcuYMHBmLNdCTylpDjznOl0WzafWP/FVXXbVzXwFHXiNq89ppp50u7au803KuZeYVe8tXt0MtM5+DDz743GhVOKA2j9hY56BoIp9mrnYvy9ES4NNSrrXpxIC9p3qTbhp8F6PUq0vBpmVoa9Kb6qGit3lFy8Jb8fAwupJ+m7x6cxnOLUlADT0jbGuTuxp6RtMcSeXsQ0+LfsRgq3srq4dFU/EGqR+zN82o9Vxj2l0tVvyqzv1OTalR68y27GtrGToc+R7rpU+1QlksgPJ0a620ve97Sqe9tCrHpn9rf26ONeM7HXhWj1G9x8T89wui9rl3mgufzolxEDOlJV7jx8s6KHe9SU9zXGvTe/X30a/9fo8Taz0xFqCpptHZ/Pq555671/u+p4AerQEt9z7ysgFOb29eyecL6BmBBfSMmPmSaopR7tma3FOxom/yb5WAHk3gg2MJ1DSKePt8RZ42pZgu9r0IDtXriDJcOnjw4M6ag7s9La2z8scOZ9UFVFLQSw8yOaftxfrhZfJNk3ZaC74S0NOHMeWtuilNDwvSrnf0zde6FW+++Wa358G3LU8MTqtunRu16Nej2b3dIrdOaxzVw+tpOa123YXIq88GYfamzAP5XE3uGe9+a+BgmtE0Q1JpHnrWgB7Ntr+IVbeqg6BisNB28d4hQ1nbTSIWL1kt+n4PqnyYRi/HvOYflpVfe+nGiPra5U6bIois0pf5585r+eWXn2rv+rTzWO48Unpt3Iq4l52Oqu+qDGk1unj4+FjluLRTWkfn9Dav6DNfIVaJq+6D0HZAaFdl9XnfCwg+Gc1zB46MRRvISQ3OfV/SIiltVz2LJT8viFW/VsgNHTW6BWL5zb/HIK5qa1rMtf5ZvaOvc5Un1hC/pTatyy+/fJrV0LqTVyx1ukqMct+w8o5tRLvVWpimucWCJ19M2492J9/Ksallpfa8uKdjepJOV+fEg8MzMQK+GnRjEONuvVlfPs4fEd+FapBte19qytMUC8/s3lX5Ovu8zfnNkdetvUnPueULCOgZjXMHjoxFG9BJlXFfoh/2vNiVqtqHHYF3vj322OPSWBs72/rqaaBWLA96yZNPPlkdMBYtA88ffvjh3VoopIOb360m+djI46kYVV/d9/u88847IJYSTXtvd/uVHnxiy9kHNtxwwzvT+//+7/9+H4O9WpaLrecVU8+2TDuCHXDAAef+4he/+HI957Q9pu2o/bJqn6lbJO1pXsk/HmSWj/n8PXoYioeYwT/+8Y+ri/CkOe2d7fYX4wK2iq6RTXrik9aVjx3avlI5N/rtR8eGN51u39qTfJyTV0BAz+gZo9xzj5TNWLqBm1R0hWS/L2lhkPSHuXZxl7TTVlqd7L777lu7t9rPPvvs0ltuueVt//znP6tbcsZKaGNjkZI9hg4dWh153Nt8unP+QQcdNNUKbxGI/zRu3LhZu5NGqp1GC8Mvoym3WiOP1dh+19HSqm3Tjg1Ldk2rvFUWVInV646OEfJp3++6X6l2HyPbD649IR4s7mj97+yDWuPB45zahW1itbzT0zK6dRe49cC0xG7anKVyXoyjuHzxxRfvdJ55TNH7VQxonKu7ecW68z9N+6hXzosWqPO7WjGvu3k4Pr+AgJ7RtIyaYMbiDdikyrovqbacNiqJP3TjK7gRiIdttdVWd0RN6vCe7FKVdh87//zz/y92vrrv/vvvn2ru969+9asDW+dTT5d7GQuN/Dw1IVcyj1XW1jzssMN+UW9QT83jsanIRTGfvrq4y/Dhw5+KNM6s94Jiqt4Vsb76g5Xjo+97wRTga/uVu0orWjh+nDYiqRwXI/afzDBLocMHgXXWWefBvffe+8JKfs8999wSaUGbNHOhq7JWPo/a8iFpu9rKf0eLxoQI8Ed3dX5aTS62a/1bvUE9PXClfe7TJi2VtNO897SHfVd5+Xz6CwjoGe9BWYEjYxEHZFI5p621BYyFPm7/85//vGc0SVanCKXtQyNo/CgWoXki5jwfGM3x1RXWOroB6Q9u2jEsliMdmZqg44999ZzUHB1/0A9tb5vQXtzQ9gJQp7XTWWeddVI0cR9Y2zwe/dj7R5n/m3YT66ws0WqxTkwVuzHWWN+zclws/zouHlK+lP6t9zpiWddJsR3rVIvApGAerRl3/PKXvzw4HqI6bDGIQDosljT9ddqopDa/WEFuql3g6i1Ld45Lm9KkB8DKObEC29pp+uMVV1zR6WDKtB95tGCcGw89Z9fmF2urnxAPIk+0KUO79y/tCx/f09titb+NOytzPIwuteeee/6t9sEhjm+Oh9Nvxwj3qUbrd+faHdt3At0aiNJ3xZoxc4qm3W43bc2YVzpjlbrsBX9GjBjxj6gJbZr60EeNGlUdgRzLwg6LZupfx3Kdv4gNOW6PWvdt0Vf7SqwH/2r0rU5Oi46kdwS79eN328R86GkGeMV0sbQ96F6xL/Y/G0E9ruOms88++6txTdUAE83Ay0erxL/TrmDRp3tFzJd/LPW5xr7eS6bpYDE9bJfoM9+6tvwx73xCdFnsHrXrm7p7XbF5yO0nn3xyLAl/9MmVc6MJe6Evf/nLv4rff++QQw65PO24FguwPBOtB0NiE5aPpZXoIgDuHgF/KuN4yLguprBVa8+RXtugmKUJPjWNxwYtu0U/9O2xclzLBjdpX/Vocbgqlqe9O75Dl4bRPSlwxnKxs0dwXTbWT98+tp/dI/Vn1xqltenjIeSUGJjZlq7Dssb3c/X08Jk2htlll10uic1e/hvfrbfSPPn4zg6/9tprd4xxErvVjmpPicfmOz9JXSLdvUeOnz4CAnpG96gJZu+rzVi8AZtUX7ScxNrm/435wRtH3+OZUWP/dDRdVlu/Up9t9IVvkd7duQkRxG9ItdG0x3h3ziv72PSAEluGToj+2V9GwGz5G5KWpI01xndJ767yjxr+pAsuuOBzMVjs6q6O7ejzCOanxO5jz6eV32q7NuIhYrFoRTiknnRTrTWNSYhpgLWHZwng7eUfA/lG3nHHHVtELfiyVM7KMWkDmfSup8zpoSVtEVvHmIPmaP34cjSfnxgtRNVNVeI7uFV615NXtAIcn96xRW49hzumAQQ0uWe8CRE41NAzeuZKqi8Ceiprql3FHtefialYG2y77bbdrnlWrjdqaiOjxrRd9DV/ohfBfKppWe1Ytvd5278HHQa3aLo+N0ZRb5lGq3fnPkX/9yOxt/dmMRXvku6c196x0R//x3DaNpr869oRrZJGCoZR8zw9fLeNYP5Bm7TbGtT7N7Kumn200tyTgncMaEur0tX9SjX81K8d3QpfTrvJ1XNiWjc+FkDaOD0Y1nN85ZgYJ/FUTEvcORb7Oa6OB4fuJO3YkgXq/bKWXIz+kXzOfbf7h0hjXEXuleK6uqqoid0XwW6bGIm9Rtr4I02x6uqcaO58Ivat/lHadSz6V9eLP8bXd3VOF593NS2tvc/b/m5SZ3nEvOTbo6zrRG1730984hM3R6Bpd+W6mBFQRG34znjY2SdtV9rePuU9vda0d3ekuW7aRW3XXXf9R2fbksaqbW9Hc/wvo4tg5ah1Ht7BqO2211BX8Izy122X5qXHaP3d0pSy1HwesxY6XA42BtQ9ECP5v5um+kXTd1c7ndU+VKSfp0RwHpUeDKP5/uNpVHxalKg96zQKf9NNN70rxmocFj6rRhdAdapdT++N8/peoLTmpb6/lOmf40XHNt/z0iNFy5aQXo0jMN/ixaP7n9U0XVc2i77yhZ9//vlhqc88BrwtFttRzpz609P851gk5qVhw4Z1uOJX40h2XpK0HenIkSPXibn4i7/zzjvzx1ri76eV0mJk/t2x7eu7fXEd0Sc8dxqAF9ZLx89D0xrxkfc70X/+cAxSfLQRa5xplkA8lKwT4wCWjG6bRdIiN+m7EQ95jyyzzDLVgXRd+aXBbGmEeuW4NAgwBuK9WHte2s41+vLXS/coLUPbeo9eju1sH6qdgtlVXj5vTAF96BnvSwy+qq7glDFZSfVSIJrcp/v3PAa9vR6Xkd799jX//POnoD1dB++1blwyQy2AEg8dadpjZR58qd+PeFj4MDL4V6mZSHy6CWhyz0gfgaNHy1BmLIKk2hGIJnf3xTeDAIF+LyCgZ7zFEdDV0DN65kqqEWroua5FOgS6IaBLtRtY/eFQAT3jXVQTzIiZMamJ44qWeb9eBAgQ6M8CAnrGu6smmBEzb1JdjfjOm5vUCBAgMB0EBPSM6OPH5N13O2PRBnpSTRMnNOsOGejfAtdPoJ8LCOh5b7CaYF7PXKk1TZlUdLXQSq68pEOAAIHpIiCgZ2KfPKk5TY3imckzdzJTJgvouU2lR4BAYwkIQJnuh4CRCbKcZJomTzIDoRxaqTaQgFHtDXQzpkdRBPRM6q0BnWcmz8zJDIom9w631cycl+QINIqALsBGuRN9VA4BKBN0BPQ06MoTcibPzMk0xf2xuExmVMkRINBYAgJ6pvvRPKWlj1ZAz+SZOZmmyR89cHkR6M8CPd0prj+bDKhrm+5rXPcX7eijTYuXeEBqzBuaRrmroTfmvVGqTAKx8cyU2PGuNrVOd8vLlK1kGkhAAMp0M6ZMadkARA09k2fmZFKTu4fXzKiSayyBo48++oQJEyY0Vd6x09rLjVVCpSlbQEDPJNz80bQoAT2TZ+Zk0ih3NfTMqJIjQKCxBAT0TPfDoLhMkOUkk5rc9aGXYytVAgQaREBAz3QjosndSmSZLMtIRpN7GarSJECgkQQE9Ex3Qw0wE2Q5yRjlXo6rVAkQaCABAT3TzVBDzwRZTjKpyd2guHJspUqAQIMICOiZbsRMsxRjI6kpmZKTTF6Bprg/H+ZNUmoECBBoLAEBPdP9mH2e4g0BPRNm/mSmzL1g8Vz+ZKVIgACBxhEQ0DPdi9nnbnp3gaWKxzMlJ5mMAnMvULw076JN5uRmNJUUAQKNJyCgZ7wnm+9THB3JadrNaJohqcmb7dtyX7wIECDQrwUE9Iy3d9l1mq7bfL/iqEhyTMZkJdVzgUkb7VmcuNJmTX/teRLOJECAwIwhYGWzEu7Tcw80b33NWcV5Y94tlozkGZdg3EWSzXMMLV7Y7tDiS/GQdW3fZy9HAgQI9L2AYFOi+evPNK/25nPFGqPfKD7WGtgr3vX+W2/pOruPHX3W9vdd/XfbvZUr/93R71PZ692Pud7vYUd5Vpwmx+C3UQstU/xn4WWbHqoXz3EECBAgQIAAAQIECBAgQIAAAQIECBAgQIAAAQIECBAgQIAAAQIECBAgQIAAAQIECBAgQIAAAQIECBAgQIAAAQIECBAgQIAAAQIECBAgQIAAAQIECBAgQIAAAQIECBAgQIAAAQIECBAgQIAAAQIECBAgQIAAAQIECBAgQIAAAQIECBAgQIAAAQIECBAgQIAAAQIECBAgQIAAAQIECBAgQIAAAQIECBAgQIAAAQIECBAgQIAAAQIECBAgQIAAAQIECBAgQIAAAQIECBAgQIAAAQIECBAgQIAAAQIECBAgQIAAAQIECBAgQIAAAQIECBAgQIAAAQIECBAgQIAAAQIECBAgQIAAAQIECBAgQIAAAQIECBAgQIAAAQIECBAgQIAAAQIECBAgQIAAAQIECBAgQIAAAQIECBAgQIAAAQIECBAgQIAAAQIECBAgQIAAAQIECBAgQIAAAQIECBAgQIAAAQIECBAgQIAAAQIECBAgQIAAAQIECBAgQIAAAQIECBAgQIAAAQIECBAgQIAAAQIECBAgQIAAAQIECBAgQIAAAQIECBAgQIAAAQIECBAgQIAAAQIECBAgQIAAAQIECBAgQIAAAQIECBAgQIAAAQIECBAgQIAAAQIECBAgQIAAAQIECBAgQIAAAQIECBAgQIAAAQIECBAgQIAAAQIECBAgQIAAAQIECBAgQIAAAQIECBAgQIAAAQIECBAgQIAAAQIECBAgQIAAAQIECBAgQIAAAQIECBAgQIAAAQIECBAgQIAAAQIECBAgQIAAAQIECBAgQIAAAQIECBAgQIAAAQIECBAgQIAAAQIECBAgQIAAAQIECBAgQIAAAQIECBAgQIAAAQIECBAgQIAAAQIECBAgQIAAAQIECBAgQIAAAQIECBAgQIAAAQIECBAgQIAAAQIECBAgQIAAAQIECBAgQIAAAQIECBAgQIAAAQIECBAgQIAAAQIECBAgQIAAAQIECBAgQIAAAQIECBAgQIAAAQIECBAgQIAAAQIECBAgQIAAAQIECBAgQIAAAQIECBAgQIAAAQIECBAgQIAAAQIECBAgQIAAAQIECBAgQIAAAQIECBAgQIAAAQIECBAgQIAAAQIECBAgQIAAAQIECBAgQIAAAQIECBAgQIAAAQIECBAgQIAAAQIECBAgQIAAAQIECBAgQIAAAQIECBAgQIAAAQIECBAgQIAAAQIECBAgQIAAAQIECBAgQIAAAQIECBAgQIAAAQIECBAgQIAAAQIECBAgQIAAAQIECBAgQIAAAQIECBAgQIAAAQIECBAgQIAAAQIECBAgQIAAAQIECBAgQIAAAQIECBAgQIAAAQIECBAgQIAAAQIECBAgQIAAAQIECBAgQIAAAQIECBAgQIAAAQIECBAgQIAAAQIECBAgQIAAAQIECBAgQIAAAQIECBAgQIAAAQIECBAgQIAAAQIECBAgQIAAAQIECBAgQIAAAQIECBAgQIAAAQIECBAgQIAAAQIECBAgQIAAAQIECBAgQIAAAQIECBAgQIAAAQIECBAgQIAAAQIECBAgQIAAAQIECBAgQIAAAQIECBAgQIAAAQIECBAgQIAAAQIECBAgQIAAAQIECBAgQIAAAQIECBAgQIAAAQIECBAgQIAAAQIECBAgQIAAAQIECBAgQIAAAQIECBAgQIAAAQIECBAgQIAAAQIECBAgQIAAAQIECBAgQIAAAQIECBAgQIAAAQIECBAgQIAAAQIECBAgQIAAAQIECBAgQIAAAQIECBAgQIAAAQIECBAgQIAAAQIECBAgQIAAAQIECBAgQIAAAQIECBAgQIAAAQIECBAgQIAAAQIECBAgQIAAAQIECBAgQIAAAQIECBAgQIAAAQIECBAgQIAAAQIECBAgQIAAAQIECBAgQIAAAQIECBAgQIAAAQIECBAgQIAAAQIECBAgQIAAAQIECBAgQIAAAQIECBAgQIAAAQIECBAgQIAAAQIECBAgQIAAAQIECBAgQIAAAQIECBAgQIAAAQIECBAgQIAAAQIECBAgQIAAAQIECBAgQIAAAQIECBAgQIAAAQIECBAgQIAAAQIECBAgQIAAAQIECBAgQIAAAQIECBAgQIAAAQIECBAgQIAAAQIECBAgQIAAAQIECBAgQIAAAQIECBAgQIAAAQIECBAgQIAAAQIECBAgQIAAAQIECBAgQIAAAQIECBAgQIAAAQIECBAgQIAAAQIECBAgQIAAAQIECBAgQIAAAQIECBAgQIAAAQIECBAgQIAAAQIECBAgQIAAAQIECBAgQIAAAQIECBAgQIAAAQIECBAgQIAAAQIECBAgQIAAAQIECBAgQIAAAQIECBAgQIAAAQIECBAgQIAAAQIECBAgQIAAAQIECBAgQIAAAQIECBAgQIAAAQIECBAgQIAAAQIECBAgQIAAAQIECBAgQIAAAQIDV+D/AZCGSHWcpM/OAAAAAElFTkSuQmCC;movable=1;resizable=1;rotatable=1;deletable=1;editable=1;locked=0;connectable=1;" parent="1" vertex="1">
          <mxGeometry x="380" y="350" width="200" height="200" as="geometry" />
        </mxCell>
        <mxCell id="ZOLhoiJWXAgXSTqIeIC7-3" value="消費者" style="whiteSpace=wrap;html=1;fontSize=50;" parent="1" vertex="1">
          <mxGeometry x="-271" y="-63" width="200" height="200" as="geometry" />
        </mxCell>
        <mxCell id="ZOLhoiJWXAgXSTqIeIC7-4" value="商家" style="whiteSpace=wrap;html=1;fontSize=50;" parent="1" vertex="1">
          <mxGeometry x="1004" y="-63" width="200" height="200" as="geometry" />
        </mxCell>
        <mxCell id="ZOLhoiJWXAgXSTqIeIC7-5" value="訪客" style="whiteSpace=wrap;html=1;aspect=fixed;fontSize=50;" parent="1" vertex="1">
          <mxGeometry x="-271" y="836.5" width="200" height="200" as="geometry" />
        </mxCell>
        <mxCell id="ZOLhoiJWXAgXSTqIeIC7-7" value="管理員" style="whiteSpace=wrap;html=1;aspect=fixed;fontSize=50;" parent="1" vertex="1">
          <mxGeometry x="1004" y="846" width="200" height="200" as="geometry" />
        </mxCell>
        <mxCell id="ZOLhoiJWXAgXSTqIeIC7-12" value="" style="endArrow=classic;html=1;rounded=0;exitX=1;exitY=0.5;exitDx=0;exitDy=0;entryX=0.5;entryY=0;entryDx=0;entryDy=0;fillColor=#dae8fc;strokeColor=#6c8ebf;strokeWidth=2;" parent="1" source="ZOLhoiJWXAgXSTqIeIC7-3" target="1uWH6UvffxMvrlQ3iq2U-70" edge="1">
          <mxGeometry width="50" height="50" relative="1" as="geometry">
            <mxPoint x="161" y="213" as="sourcePoint" />
            <mxPoint x="382" y="368" as="targetPoint" />
          </mxGeometry>
        </mxCell>
        <mxCell id="ZOLhoiJWXAgXSTqIeIC7-13" value="" style="endArrow=classic;html=1;rounded=0;entryX=0.5;entryY=1;entryDx=0;entryDy=0;exitX=0;exitY=0.5;exitDx=0;exitDy=0;fillColor=#dae8fc;strokeColor=#6c8ebf;strokeWidth=2;" parent="1" source="1uWH6UvffxMvrlQ3iq2U-70" target="ZOLhoiJWXAgXSTqIeIC7-3" edge="1">
          <mxGeometry width="50" height="50" relative="1" as="geometry">
            <mxPoint x="39" y="377" as="sourcePoint" />
            <mxPoint x="451" y="442" as="targetPoint" />
          </mxGeometry>
        </mxCell>
        <mxCell id="ZOLhoiJWXAgXSTqIeIC7-14" value="" style="endArrow=classic;html=1;rounded=0;exitX=0.5;exitY=0;exitDx=0;exitDy=0;entryX=0;entryY=0.5;entryDx=0;entryDy=0;strokeWidth=2;" parent="1" source="1uWH6UvffxMvrlQ3iq2U-70" target="ZOLhoiJWXAgXSTqIeIC7-4" edge="1">
          <mxGeometry width="50" height="50" relative="1" as="geometry">
            <mxPoint x="401" y="492" as="sourcePoint" />
            <mxPoint x="451" y="442" as="targetPoint" />
          </mxGeometry>
        </mxCell>
        <mxCell id="ZOLhoiJWXAgXSTqIeIC7-15" value="" style="endArrow=classic;html=1;rounded=0;exitX=0.5;exitY=1;exitDx=0;exitDy=0;strokeWidth=2;entryX=1;entryY=0.5;entryDx=0;entryDy=0;" parent="1" source="ZOLhoiJWXAgXSTqIeIC7-4" target="1uWH6UvffxMvrlQ3iq2U-70" edge="1">
          <mxGeometry width="50" height="50" relative="1" as="geometry">
            <mxPoint x="401" y="492" as="sourcePoint" />
            <mxPoint x="605" y="432" as="targetPoint" />
          </mxGeometry>
        </mxCell>
        <mxCell id="ZOLhoiJWXAgXSTqIeIC7-16" value="" style="endArrow=classic;html=1;rounded=0;exitX=0;exitY=0.5;exitDx=0;exitDy=0;entryX=0.5;entryY=1;entryDx=0;entryDy=0;strokeColor=#B5739D;strokeWidth=2;" parent="1" source="ZOLhoiJWXAgXSTqIeIC7-7" target="1uWH6UvffxMvrlQ3iq2U-70" edge="1">
          <mxGeometry width="50" height="50" relative="1" as="geometry">
            <mxPoint x="401" y="492" as="sourcePoint" />
            <mxPoint x="451" y="442" as="targetPoint" />
          </mxGeometry>
        </mxCell>
        <mxCell id="ZOLhoiJWXAgXSTqIeIC7-17" value="" style="endArrow=classic;html=1;rounded=0;exitX=1;exitY=0.5;exitDx=0;exitDy=0;entryX=0.5;entryY=0;entryDx=0;entryDy=0;strokeColor=#B5739D;strokeWidth=2;" parent="1" source="1uWH6UvffxMvrlQ3iq2U-70" target="ZOLhoiJWXAgXSTqIeIC7-7" edge="1">
          <mxGeometry width="50" height="50" relative="1" as="geometry">
            <mxPoint x="401" y="492" as="sourcePoint" />
            <mxPoint x="451" y="442" as="targetPoint" />
          </mxGeometry>
        </mxCell>
        <mxCell id="ZOLhoiJWXAgXSTqIeIC7-18" value="" style="endArrow=classic;html=1;rounded=0;exitX=0.5;exitY=0;exitDx=0;exitDy=0;entryX=0;entryY=0.5;entryDx=0;entryDy=0;strokeWidth=2;strokeColor=#F8CECC;" parent="1" source="ZOLhoiJWXAgXSTqIeIC7-5" target="1uWH6UvffxMvrlQ3iq2U-70" edge="1">
          <mxGeometry width="50" height="50" relative="1" as="geometry">
            <mxPoint x="401" y="492" as="sourcePoint" />
            <mxPoint x="411" y="533" as="targetPoint" />
          </mxGeometry>
        </mxCell>
        <mxCell id="ZOLhoiJWXAgXSTqIeIC7-19" value="" style="endArrow=classic;html=1;rounded=0;entryX=1;entryY=0.5;entryDx=0;entryDy=0;strokeWidth=2;strokeColor=#F8CECC;exitX=0.5;exitY=1;exitDx=0;exitDy=0;" parent="1" source="1uWH6UvffxMvrlQ3iq2U-70" target="ZOLhoiJWXAgXSTqIeIC7-5" edge="1">
          <mxGeometry width="50" height="50" relative="1" as="geometry">
            <mxPoint x="472" y="632" as="sourcePoint" />
            <mxPoint x="451" y="442" as="targetPoint" />
          </mxGeometry>
        </mxCell>
        <mxCell id="1uWH6UvffxMvrlQ3iq2U-6" value="" style="shape=image;verticalLabelPosition=bottom;labelBackgroundColor=default;verticalAlign=top;aspect=fixed;imageAspect=0;image=data:image/png,iVBORw0KGgoAAAANSUhEUgAAATgAAABRCAMAAAEGKnroAAAAAXNSR0IArs4c6QAAAARnQU1BAACxjwv8YQUAAABjUExURQAAAAAAAAAAAAAAAAAAAAAAAAAAAAAAAAAAAAAAAAAAAAAAAAAAAAAAAAAAAAAAAAAAAAAAAAAAAAAAAAAAAAAAAAAAAAAAAAAAAAAAAAAAAAAAAAAAAAAAAAAAAAAAAAAAAGZodN4AAAAgdFJOUwAIEBiHII8olzCfOKdAr0i3UL9Yx2DPaNdw33jngO/3Sq8erwAAAAlwSFlzAAAXEQAAFxEByibzPwAAC6dJREFUaEPtm4uWoroShgMK4iWoKLSiSL3/U56/qhLu7Tg9a87eZ518My0EQlJUKpdKgvknKYpbgZ+ilhAR2RefWIufwhCfC9bqDaFFREOFCzGlO5rIPApzO2kAkZA2J3KUsLVrOTJNU5izMTHODH1xHIQGGQbeQSgyLjYtA6jPJmaFMysKtPinUPPE6ZPP8C9GKRd1V6w+EiAtGCQh92pTctIu3l2sQSBq9Mg/bBExl1rgr3B1R199hI3JE7NDARTWHnwJgdYdTdE0FTXNzQU7EHXLBzYTQ3f8oChR/bL7/VXDOqxN2Kouxjw4hoeLfl7GhPyyZAcbqUzUGtT3I9qOCndw/YLk2ICk6uMymae3VGN2DchdwMPGiTakMDBDvPVer3HiCUEcvokGSI2b0+TjkNQdHXp/JW96nkWGtNKWsWCCSjOPFwj8w2zc0dmogFomtvpEf/ri00gue/BIir51Vsmo4FrIFfGmR2/wbc2NeMKdB1dgl9reSp/Akbi9kdZihlzTB7LutM7WMhzg+qrZcLujLQknpyG0PCOszbmK82nms4JMSDJy7SChgahapMDSKJwc8sJhSToZhZxXfBun0hAJ2lrUrAO0NHIdLR8uSXJNg9ZzmhzrkqUBqUQDHGZ5VRxRKp9okFtsjreDFqydtE+CHzJdSMdeSC7ilk9TX3tlaHJ80WXLh9nbeoml00674RcEdP1CxaFOcZPkFtEbNDQuKTkMJhoU9kGb+w7XR3ybXCAQCPyPMe5b/1Fc01pzz+mG6O6S65k8aP9bRLJXSxgMcBz8SdTzk0ffFUnP0hHxvejAt9D58TMFp7iz+lAzjj3HqntCcB2Evn8GcTc10FGjN0IvQjhxwvHPzRxFAA4tIxEh3BU97fMuPnBRjzKb8oU/8WylR9SukDvWHfpkRi4AEg3GBK3h9Flyt9cJ5+SDGvQSXlAPxAMqctMiegnOMo8nPO7aMnz3xMqWkPOPVrQ1FzG6q39ahcOIjC/j4h2+m0riR4fi6PghlRNO8NMt/lIpbyyh8o2iAZkNzxog16Zhx8yxgXu3N61mGLO5pE0jXf9pf93zyAlCejWVXdFrGNHZM51m/BPhfDweWKlwOzaEXUZSPRxecxiopCgplNbuW+GAL1a2K2/M/mbaC3fxWl2G40g8ycFrLma/G5erqV/ONRU3MGrrczBlzjWB0XCPhP1FOcZuWC/vJ3izWKBPbtscj1wrzpUWZqLFDdvvuaMYTkQvLlST3tX/Bjk/qIHRGFA1B/WUjb30WTHj0L8MV38CgUAgEAgEAn+HN+PT32Ew0P8p0WyVzJh+mXtAlPMokW5wKCJ4u5a+THGEA3mGy/hF7P9OxpBHdj07xF1vZTwf25Me5cZbDuqDxAc5COnycivFNbJIyN5rCAdPCG6Heh7sbyG3yUs9ORmRg10yXR6WHyuO17vBekqVOOBA1xH4CTnx3EZzxijuvDZwWTlxqkQ4ayv8N6nMJ4+9qS9ry50uPcAhc/7bx8IJ6uZf/erpyENZKF1o7IDi/YLD4jQHqnLL7mrTfG+rnXD8znhW1hN+KdxWxPHRLnWffkOR09u2X4CtbUuvvW357VVz4GmSljODpiWSuGdjvHC61mIk5WXT8XQzJJIafH4QcW7USKbeXp2TfILnnUJrh/iYeeGc8hJenSbvYKsPvmUtkTMML5wsvXgGRj6nubAg7s8+vX4imqxx+bkP3c5Sy3aToXAUJ0/4yVTchsKN6IXjHw354lqm4TgcRaLpYg6UA/uT84icuN3EDE9afOF9oW0Vbi4FMxTOlePPhMvZyOhs9g8V7sACnW5osWRWAvccfA7KDO1XxGXIwoFuZkENjpf6mQrv9uLL02KVZiXl318Kd9W5w3PTbL3mjLl9QTcPt2jGaXWzRtFt06Q1B3rh5BeowY0mpXp+oLlNaTKxem4zvHD7doW37kVFWj4ZscWkQK1Z0lw3rzIsVlepeuHYvE9s7N1cyzJcrP1LqDjbli9QmrjlP6YTDjWhKK5cWgPh5BcM5sJUEo5XuZXDH2gOcSbCSWnErSmPbp6J8cJxjBtrLucsvXCsBEYXkxknHDcy2hUMhBN86J14S5oDPH2IRFfSlw9IWKRVBuEkUS8c2zaTd8I55sJpU10UT9drdjthFhDhpOI0qJhOuKMMUkpWIdEoP53H3yTVrcrxpBMOowbIiodX0XDjEPi15t7BWThOjdontyRsw620AOXTNVMCR0AjcRIZ1/bgqvOKO4Famp2rthsOsTl+6PCwboLZsftgwMgjs45q0OdfR/sUPZyz7FgQEpZpc85rGXAl2rqNGpCBHtPxEKKYWsC/iZGCA4FAIBAIBAKBQCAQCAQCgYCwTj9YnjX323C+8xf0M5rxbbZgZ2/ZhXMcTGJudQF5ld8/Wy7f3+SryV9QdmJED57z7Oc1JfznbNvnaO621+Pw8ur5GsV6R5zLanCdnl6PaGMKnZ0l3aBrSee8dfPryy238NRt1U/gxvX17fT2mtzc9JSkppN7gYLXlISKqgj5Fi7YFBz+AQ9Z5ul5kHzj6rgSeevauUvCnYaPnV/FO0ONrpSZ2q9xrBCA4Jm5QPe94rrfFb9GdHu593K8tb5GUnlY/LndBKwf1ZSzp6Jb79rxcoV1H5CDZvIZwu8S18PVjcatNPScxyv/I7L28tYkzDYWxV24bFNeJT3S3VB7j8YWJxB0WrbHqCpUCQW9vn2zDSzXb9hmBi3Ibrgy+DcVZ0zedvkm1H9mrqTjpY+ODDUu1Zd/DytudaDNnTiXDL+8YDq2OIEK6DnZDZuC6LCc+TumimvPrnpYK5aeuQD4rC2d04lY+4070bNbP3K5V6/t+OuPAV3ZOXbUyxzVfvXtSfQqTfPKzP6gD40Vxwbj2riSS+7EX7LcraWntWsaNAXD5E3SXS9p3BBOFIeyOiw1J3uqJ/E+J6NK5C1u3urbbh0UrzhLt5wscU4ZvRnbqny+sBIbPhPVsDgpq7nF6S/XnISvSyXiWOUww3Hye2c1zKh3nSmu7Kvk4F45LJPfpPHJNGh4GFkbVerpkub+Rus4fg5kTK6T4cBEceiCycfI2NJS9/RYcUMy9CDddykgH66VT5P/ho8VN60wn+MVl/jNQQV/0aaMFLdK24O8QXRyKpbTZ5O5/nwrBX/CUENOpkV5pJNGvIu0Q8UJ57tLpyc+DUplIfkNKrOyo3a0g3BBca5iFcWTuip1+2PFRbuuWDdojxTbKW57untB4hNM4ilDp/3t1e9ZMxf3lAeKcRxRN9dUSz+5bum2Snlj4FRxJcnX70PWlHfq/z75Jf47FpekrzQeFrc/n1VV82ilplmqj1U2kU2Z16Xtbl9rv5gMtjN8prhZc/rTqvr4a1UVEg1Q8xsrLsko0z74QO2rGLzzkNmb7Xmz0UpGZSnV+EWLBnEXFDfT0sKlcfKdB7Cm0b6XueJO31TVb97iA3rFdVl18naK2zTXg35KCnPM6YGnNkldTYQTpoo7y8jNRFzn1OLOX3zOe7Emilvgl4pzJ4MhrTBTXNQZ3Ogey9bf+S0+UlzP8Skj+TOhLU7qdu4il4V3EAXfV5u0XqniVm395QaPP7C4cfKfKG6ju3V7TiOH8YHiyWdv8QG94rwfjP7/qR3rVHHly7s1Vve+wvro1JffnKJXTZGL4pK2jGyTS1swURx/qH6iG4vwko14ucwFrL6vTp9b3IB3936DtUumcYOFIQPFxV+306D4d1oBwbFCkbXjTfKeCF2oO93assmuiFoNPhE4zpqYlHRzaN0PJs39I8X1u+WY/O8r7rqUTGzvWYu3dMVYZl5Ntiiyxn7V3UiOkfZrGbUss6V6PZ4J2H5JBkMvdLtra182OboRrUpnuGjfblqnSiMxmnxim4zHUwtfnHjyvoP9Ey7fOh2Xcrnqb9tCZtP+mNINHfOqyJvZDMtmpJDfYsX7Yb/l1NWWQCAQCAQCgUAgEAgEAv8fGPMfDcn64L4S/zsAAAAASUVORK5CYII=;" parent="1" vertex="1">
          <mxGeometry x="489" y="-97" width="312" height="81" as="geometry" />
        </mxCell>
        <mxCell id="1uWH6UvffxMvrlQ3iq2U-9" value="" style="shape=image;verticalLabelPosition=bottom;labelBackgroundColor=default;verticalAlign=top;aspect=fixed;imageAspect=0;image=data:image/png,iVBORw0KGgoAAAANSUhEUgAAAYMAAABRCAMAAAFwPAomAAAAAXNSR0IArs4c6QAAAARnQU1BAACxjwv8YQUAAABjUExURQAAAAAAAAAAAAAAAAAAAAAAAAAAAAAAAAAAAAAAAAAAAAAAAAAAAAAAAAAAAAAAAAAAAAAAAAAAAAAAAAAAAAAAAAAAAAAAAAAAAAAAAAAAAAAAAAAAAAAAAAAAAAAAAAAAAGZodN4AAAAgdFJOUwAIEBiHII8olzCfOKdAr0i3UL9Yx2DPaNdw33jngO/3Sq8erwAAAAlwSFlzAAAXEQAAFxEByibzPwAADsdJREFUaEPtmwm3qjgSgAMIKooLCioK1P//lVNbFhC9/fp2n5kzJ997FzGQpVJJpbJo/nepa6jxUgN9yeqaA4VKPsZLYvipJ/g6eYIxjviRGjjDToKI1FzBnHr5cuA4Eg0qyaPhL8Zc+BtRVWBuxmzxNqH0jnxLUIwWy32a5R35l8DGUSd0kW+u0tfNRu+QzJi7fQIJqXqgO/yXchjdd02Jn6h/0uzLbNcuAuoTQc1ShIyC8U2KwOE5X016xiABQNoNfce/AhPME7znCFiqHBsNYyNE/qd46Cfr2YHK8voKNDfyVfq/6B2RQHntXct3yWPk17mxUJOkOEfbNMaqumCaFP5CA1SahF+2ZmaLoUQLaGge8xyonVZVgcGY02BWFIRgKH4fzY6KhMYMsxoxeJt1poF2JaXv9nQVm0dcKPHtUg6mxgsaVKwkyoFC+O/cyGNrLimMcqhbzgFf58RtDmq++RKg37lMefAQzKXlTns1aUGfa7pQ+Jk+bAVhx875MVfrYg6RSGSCs3zc7ZQtjodoZQTpUwxguO1+rm/tNAkefGc9DtCZY8xGPu1z/OzwK2XKlsPywJBejbAL5pGUfKyRvbk5azRviNiBji5cwnrYqlEm09hiwugTIHhT9ZMccDxfXfHTegZvDBSJSvFEa8qgle7QGppBE8LCUWIkD9u8ajKQsFUmk4oFA5vEjKHCh+ecksE32HijDJiPrYYDyUbhKEZl+vI1yYFtK7+Kj8V9CXnin44zG5sijTSmrjA3Et5BMshVagk0OZsDBqLdfU7iKOwYYf57kLJJDhSrUivNWdsc6nqk9+gRq83mgAHqYs2o1D1nl30n4yFCkcm7o7gvyYLhlzEHSYzD8RLMA5aRBEBHGYEUwXBBXc48AK1IRIUfm4T7SSQSiUT+79ChNGQyXPwlFhJBlke+fwEdJ0/kUqlbpUHzIpQs24vdpwQnfjIIA5ZfJ70zcLg/9ErrxkqXPJL0/YpmwYAjOjEm7CvgC4MMz/7VTyTiYoB1YGXktchDx7pIsbhc2iQoM+ZSkWdkMnKqArDQFXkjJYnKF2VeLlo86khEdocOW3yhoKQ6mil/hXyGHdU7F5wqUzyh4yweiOeR4WdNmTRlG3ow+DY76FaqSqPTUkDVFKiAErUQiNDIbJ84sUtuziM5viPP6AlfgFlR5tDjJ9Z/751PLOi4Mxm3pw2oQy0inOgNlHo9oNdUvYB8RHJnAZI8IfFtbirClWpmUQswUXajriXCTiAhKdzIkea7j4DJJFJyQSncyxk24cIM2hGwAqHue2pp+AY7e2fXYFwcbEh79gcbrG/AOHQvItA7FU5rnAglpuydRtO47tJLcik1H9tzUFw3GVuAYnCsnGYWEr8gJfctbIL5kjYkekOzrqTVaRyiuFCDZmxD+iDCieX3MRtRJcMBeKX/zRVK6hVfocf8Sk4lsy8ngLWEua+4fYbgGzijhBUV/8mv02XLmuy270ZJRFDRVITcTmCuttU09/rKPUKnqdTIbFnCu0WCx3Xf0LfzHc0mdtVEHpXcSRxgEtbNA9gAISB3DRcng24qNCYSVDEttBWhGdiAGMJWhcwHsN3ClywoYyQSiUQikUgkEon8gukKSoBMZGSq+c8ynSJ9LMAyC7OhTxMkmdJ2SzFokjhnC43fAAq2+7r3lyFYBQhfyMAtx3zmrOedeKFAZrWVBs1XI7nouvR1wopjbfS0SrC0j2eKtaEVDMHNJHFq65cGT30/4lS1v8sK3oVPOdGceatFmEg2Y3vXiXatU25ar2v5TrmG5/WQC58tGfgZuFOB5Rmnvr5MASgwy1xTGwkU97Y1esSsH5REizlsEpLgmsnm4jcJGNFtb9NUwRW3kqKAgavpWU2db6okuBSvm2VnzxP6ixCog6G1pJwCK+4OvDhGik4xzo8STFNfj3xqjTnCVkuZ6cJRVuCLxyM1t11QjShBUlITsIcne218B0zLJk9RHbO2TYXcgTnZNksSSFWiUF8luFEJKeGKFHiWVTJKhveVPXYta0QdpFR9kIeLRPiyyGMD3VIZdhAwB+wC2A2oPi1+E58PItYrc6dV2NtgFRv09K8S8PomJcyJ9+6sBfRTe6kSXHZ2Xbm/j9JBuNZQAi7yzi4UqgS0CiwR/EXgRWtPerfLUAeA2w4ViRIML1lH/xMJtDMWWEGyroaNnlEJmlwk2GBwsgGoz6bkJa17x91pw0uoiErAJ904qr8w28aeNmP8CunZhqsOaBXxRwl4CRueVXUSCfbURPuOl3y5v9GxOQK/kATbmmr/QgdisNe51kaBUkR9nc7fqQRXbEVjuBSKbS60Ef5BKau2BUrAd7SC+JMEB1lerPp+a3WAkajb3bR0wbK06gCryFabk4B2E+QZWX6/6k1/VAb8kMcE3oX21A8ZrRQBdp2pbJeok9kmS0iFI2bD5uOKUa0Ea4oBYVe1PVkkeI40zpa8z+AlOJiHs8TBojf9zSUoSLdB+u4BW1VkpFYkodUeClez71AralgJtKouEuSob/x+ljVdYSoBcxd76CXwR5cx9ncJuPAH725osyO4CNWWJDiYDXT40o/9QCXAP5aAvyWQpO7QEPImweGKEqOxsBLQx8ZLM5OAxnDwR6e19qW0hH1gdYB1hxJYV+9PJSBW1M3QuLz5VCxBdr2yzeGnXOoDWZCsuwebJ4JKwCvt8g0ZtGiJngHHB+yiEC8qQoIXtUXEzxKs2KPCWCpBxbY6pbINEBzHQ4JW1Mt2W2nSjkenI+Y5+M0+QSVQ5K5zQ01KZ4uJzJwGzGilgwK98FclkPpn9pvbnbsm1iwl0bIlzey2mpCjU0Sf2d16RS28WJI7t+rW7fAKLIEHvyXhUJaAuORn26BWehZtIkFotd5YeQnwS5D4Sn8XMIPPKhfj3qofoXFgc7cerDomFjZqes/t/zDz1knup2y3Cyt9vXM1lwfCRCKRSCQSiUQikUgkEolEIpFIJBKJ/Iad29T4Rv6a7tn8zFD6dPftze72faPpnp/3k2eM18Ztcv0F7rU7hvCFFg5vO4SWDg5vKaTPYIfoV9R07sCTunpIw4o7TN/6iRuUro7OcPqqAnvEYn5K6wsX2gbGdPWEgOcO41K91H5H+I1jrRJfZ5uDkyhyXo9/WuiBjg97/TlNf+RtWctxLPSOoDMsurv8eGgY8+r1hmnpt4+fSV5+a/UBfKhKOAHQuYjEnkIRWAuV+wHZz7R0FqeCcH9TKN3e9YRlHTxlb7uuqe6P4I/yMR3wJnIle5WigyfAmO9cH5weevw7lP50ARXhNauCbPxsGS7Ap8Y+Ur+SbHXmV2q/U32mo2BvlLov+woOUW7nhwymrPgQjNdBCQfN5IMOXvojzY88BjlfccYWIb1hddckcy416yDXgwNpDRtK8Pc6wAy9qPdwu5o4u233KbdDas7td5EKUh8X8DgezVONbD87+qCoDjbgj49iE1w8l6to5Yc6sDW/rINcu9pHVPa8g/3mNJetISWQDrJRD8IYsx6oZ/1CB+7EQO+kOLhGqBV2e10wT7YUbwQNlqnAntIRCsDIVMDjwKkdyXClHZ9neUd0cPO97m5/+q3Mk1/DwGMT6mBb0w/U+xbwA61omy/r4AgwP1CL3simv5F5PHYwUjUk/fii4ib78TlVQ41NFXWQvWnnFzrAIn3jzSwfx0Uj4phVUnnnsoUFrAaATy4H62DnVZD5M6rCLHlsGdJH/no/6MH+YvwTx3oovCHYHlCfq2MYRcYDN34Lv9CBK/xWm0fvK6ifj17rK5TpZOxI6pmWJpWUvXb5VAfJ43W/mG0NMBwefJoJOTkzWKJxb67uwDS6VJNWP9fBdtj9sQ6G0uwX7SCCFZ0+Z2eJKDS7Hegs9pstaE1aQiE99Z/Qwf0lqu69VzbRQVaMJzGkvT9J1cNY9Noc1uzsPEBdH/Qtjyir18H62XYrEbChjn7ZD1BzLdmRmCnIthRqslt/6vQ9eXNDX2WiA/LPuObZBVjUwRNlSvhk5wLBj/QnTBq87QeWErjmfq+Dh29ecqoaKbwOypvTRgF1uuFcs6t4BIrGcoiDP+sHSNLD0KxDsSY6EO78/BKM3JqqY2e2VMUTHYD8zKNuYUQlLulgxynu5j+FUBrXmwLKiTXooE1RB8nVz19yHjJIRDqE+TfAwuerV5mFQ5+9f7NFphlIODrR+bjqYeMZ80FzqoP0doe92Lq9N2ILOsjoRwnJOM4ndPPkZzrQbCp+aUEH2SgG97w8y2zgwLO7CW1YCxfKh/vBKWhWBLQ04Xn90exV0X4w64bS/KY6SPtRqx0bMuy75ab0WQdZ/5Qf3CDpAe7nynaiBR2YLc5x7+/N9Xc6yNzPXCr76oSf+8HLzQ/MIC7h7lZitzv1iwn+NbwOXPZSbYjTQf5o/TLPCnvjGoUs2Yub870fMOhpyMLUdi9pLukAx/NxwWz/SgePoIqzcQwbmPCjDjbcjUQHjwHHtUImn8i/rQPP7j7ykM1T9xLcT7EceS3jrGWqg13xGjYa5zzCtWddBDpAJ197x24EnNPNmSc/00HL4zWBVTPTwXaYziZL8KeklQbkRP2Ek6+Fh1iy6Zis/CM6cEskVztFn+vg+GqtVKN0xMvIU7AvqA7QzU+cJULSE8icjVAdHE9wsq0qvQ5bkw/805mvTHQwZaKDvHubVaWtFdRyIb88OUEw4FLF24iNvv1v6WB3emvzaHVcWHK5XoNF54ubvKUrcprFjVmCdZBPplrbDQ4nYW4lNDgR8kviScGLeci6g9d75YaoDo7fdXBeHitJC6P6y8r5NarDj1xOMB6aoOkI/7QO/BJFSFI9sHg22by0wqRley3IVXif7n8g10pits8rjMFmgnKG7mbb2vr5uj8CqRPUDnzpDvpLqueiDiTs2K3mXcBzfMHBOgeXFsr3GdqtA5j+eLh7t9E4ow/k/EPW5Yf5ismaD437dPoDByxVb9BUt4l1nuCq6LiU5WyhfspqOkQv8Em+Kfu2//zi+jRZnS+nKmHS+u94pZFIJBKJRCKRSCQSiUQikUjkv4Mx/wE8rBmyDU4MWQAAAABJRU5ErkJggg==;" parent="1" vertex="1">
          <mxGeometry x="1105" y="258" width="387" height="81" as="geometry" />
        </mxCell>
        <mxCell id="1uWH6UvffxMvrlQ3iq2U-16" value="" style="shape=image;verticalLabelPosition=bottom;labelBackgroundColor=default;verticalAlign=top;aspect=fixed;imageAspect=0;image=data:image/png,iVBORw0KGgoAAAANSUhEUgAAAV4AAABRCAMAAAHa0w7fAAAAAXNSR0IArs4c6QAAAARnQU1BAACxjwv8YQUAAABjUExURQAAAAAAAAAAAAAAAAAAAAAAAAAAAAAAAAAAAAAAAAAAAAAAAAAAAAAAAAAAAAAAAAAAAAAAAAAAAAAAAAAAAAAAAAAAAAAAAAAAAAAAAAAAAAAAAAAAAAAAAAAAAAAAAAAAAGZodN4AAAAgdFJOUwAIEBiHII8olzCfOKdAr0i3UL9Yx2DPaNdw33jngO/3Sq8erwAAAAlwSFlzAAAXEQAAFxEByibzPwAADUJJREFUaEPtmw+XqjgPhwsqKlpUFEZRoN//U76/JC20gDPee3ffs7unz5nhn6UNaZo2Lah/EPpgbnywMsbQvrkkStcqxaFeK1wytLEY1dFZT0cgUSW2VdmpXH4dUyp1Mqrhg8qoig+IEncg8YkSa20vMpIY1ymxUfRbLdfCfCN/TAuNSm33iVpZ7aK+iLFOVrJrZac2io3CqHqsDVwb2bM1yG0bdVA7VCBVt0Vfh6w72hwyWwAjebqyJjlH/i+saWNE9behzY21rV727KW0ZkcQskcFtkbj317wKayfoUp+8J6cCZHQpsnaL9prbeAjSuQg1kJbmx2nm2EOBVzHtmkJuURmih+sibO/AQ2yLSEiXzdsmPS7advM3RjwwtPC/4wGTDeVdzrgpnCS+5V6aEAHUg5nykfLRkwZJlv1lfEZp6TN6CK3tIGLbdGAjmZQG5EcZD820kjkvwI7gIIPy9HEceFoD7eq2ODEqELr3DUygMYidG2bFG0rDmDEqKdSFzqqbb7kBMb7iSu7Ba03cEq2Y0Kztmlot+QjbMoeCbwmCSfDySFG/ng0cGaUL3kP+AzxfRZq6olI5hEIhluERPwf/Yh/dNyUL/nV1+DLfOCMppcIvtazs+yudEw++IDOXxyNUdmJnG9LzhJ7VhMKOFNS0Lb1snsfxm/i4NhN2pEcg52fL1/wVKb1eVD2AM6NpxvxxJSBy7dUGwOrwWFLPpjvp5to7yCnHFyADVhPDchy2N8ytorhmU+me9BtKVUO6wnM8l0EqcQe99yfEnDkPrnSlGKwQDF5e+L1N5FIJBL5h7McmXxMalK1oZE9dQGmV9sddc8U0eQlNj0GLw6kwNneBKMIDJAK1WO0cSq1QczB2chOXV6UV214TDKQ0G+rI/2E7tzdg43mLpBPfqLTlE66Ohrb9PivKcjy75Zsl+KgBv0wx5MlJ5KEuHZlmehsGZs7lYiSNEd1fokzDigFUB/MBaGybnjyHSmG9QsNpGrNBy2iwR4DyLbHJUrMkq8w2FJmpV4VPe4gL5dqVK7tJXTssjOsBQlu7S/Ye7jx7Bs02ZM5yrhEhlUHySbBePPR9WPtn9zATHCalhwwoMGQWoRzVWCHtjJCtvIybrAyyEubnG/zUr0BIxhK9IRgkBc3eaOY8bDmSgN3SpySuhF68wjvfChPpHzI7ZTZDsNDe05mjA2fjDjheP+hvBR6I9FXd0+tfksaPwos71eQUeWCc6dfDCEzVDEeZbd5Jy9w9kDPbOzP7kfefyRvQ65hu7aBgJUXirAM4+4xo0FeC9kvfsTgnoWQZG1uM5iN5/ncXeQ9tW3idbMHodkFSHMTqbKrlkhA7XpR3c54A2eqTqIIK/UBqz0b05E1qONjiAu4VHE4/qSI1S/yqFp9DR6mGMf2/wqmgWskEolEIpFIJPIf4M+GuQ2FBURJsfyAwVjf2GjDYWcGEm+lASQIV1dIi1g4RWylzUWVJ0R+F+TXGoq2bJTsCOMpir5LBK5tidCPwpczwsHvqBG3UMBCkeXVXG3wRrfS/9qLWCgFyu53Ew2ZpHkirjb6gaJojgYJJcKSEMpNNjheFCzaGLE2SMlBLaJNLisP1TGH5zvkplE4OuIzzkv1di7DmG0xiwb3RUNqMko/Tcnyav3SulYZz0OF6yGV1o9cG5nlKiVM/DV5iYRmktSOF8h1h4CQYlaZcODfGT68TJTFQEc57OJ5kTkwTripn1uadmjb92Gkk5d4fUko+pKl/WUGk+1RyFUMrUF1r+n5+XG9wkiMvazQEXqc+GkuvelpycvKSzMX15fSEqnzBAtCfL99CFZeLRnK0uP3zbHhQkskImkKWqxypiubFvZNzQE0ZM7Yr+WtBTv/cVvj8Kiex/SaOXmt/fIyrnENTKZX9qREY9u2lRft0kMuvaOhsmVmBffbBz3yU8idnde8d35dufmwG8v2IkEDeU2qX7ApU959eQMGeXnP+U1nY2ZQc8hrXv1mHYO7TMfB8Ku28Z73FdTVMH9HOTxlxVfknQtG+PJaK/sdeQnotzDQI8ubncUQCHO5DFb3sMrl9m7rzon8wMUTGq3IC6StAjFeWpEmbmjZ1JzLiT2wxXGxxY/yQmlsDzx7yx7WSeEfXUzN5cP4SG7k7M033rdtVtPJKC9vgUz8BdOZI0v6tVm+B23M2m8m011zedPiOfpF9+tgD9whbXJ6X2iu32Zwp2IPYlLWsJy8xZU8iqHN+id5Saf43xbw4dZ++UZGRGLjfi8vSijL2wvCefLyFngTqyzchsyhtk7cyXvkPd9zHb3kIhf6vX4Ztkonr+zAeIQ2yfqCPbgL9oCmOO+k3zNVj5PXPrAeuysrL5VhEw3yCja/nbfCMyPlRE4EJy8ZPuN+ADP9WrgH2a8hL//g5LUZtOUgrzCXN+VVFlKE3YdPEZCSV7DeHVh5tfqiFRX8uZcpwDt5ZbFquznfayrIioIbkQ754tLwUgzxs36/Y8WSPti7ZK22ZrXp2Tqgum5s0LmbMZ/KS//GnPlxWn20tbmhLqxhbdwGlwjEfumm41PTst3IB/LyACJxQp1pwLsq7t6YoRgyyZ1jnGRLOYzd3pZ+3V7PDdfMVryu78UST9t5OHb6RN5/EoGyI5FIJBKJRCKRSCQSiUQikUgk8hfgLbk66jKbLJYNlGXBawCX4vF+6Z2o6zxYC/iWUYb0Pltxudx3F5oe9tYP9jJ/vv1JCIeuw69sFqkGKVKSYTsuviRPf5XgFzk0L1lZSV3+btUq6W/VJGP3k5Y1MHBd1mL4Zc3amOKbGfT0zF8q3bOyeyZb3GthuTS9nw9kCam3C0n08Pfx26S0uS3YyUhmM5mxeTnJymFZqza3BMUOX0rUpv4D/VIRvJa1sWv/TjW1fXFl+JqibRsrQz4Ubvpx2Ws1GonksTb0uk5y51Xn7+AkjVtZ21J6qDW94slH9dKW3xhY8ULRnb//Gnm/cAfW/HHG84D/s02Ph5F3O8Q4R4PIaXHTFQty94HL73Kxq1VrVqgUlDTd0PSSwtpGY9egxsKlZix7uwyrdT0syaqnuX+w9rNPWb3VGc+a0crc1VTKdI8ktF7iZtB2qm6f1KWoqjYv+6rJnD1agVtCJTw3UfrvZPyd6h3IqJK5oGfn5ZmZNavqy9x4rx8mlwNtlr/2GYTd990Hjo8h9a6OZvvkRk9vkFDdhdZLbHD5kBwy3x0kxeeu3jFRb2+fCCBnuD97Aj5z8TPau+9cSVyNEulByN5SV38X52lfsjwe1C3Sje5hwCrj0DnlVmY3FpXzV5tC2uzkOOmM6a5q1z2VPsPm0JBC9ZLxWd8LXaJiNdI9UMO11mtzHpuIn73aDNcrEzroUL247bjUyrRpwmS/Qgo/7jKlZ5rAbS61zRKNUg5ofd1rcJ3pMdI42TOPPmiW5XkQM3h+OmUZVtwQrmjMqBJWxNx65W0tEktTQ+N2S6kquJKBMPuDNUEi8CFT9bbjOfsHofq2V/6RfS9KDPJkStfVMEnudVAX2+udvlZ4Tt/9DqQlv4W6yES91Lk6D5LTt83ZXUQK1euzg1OlD3UdhfEKm2b/hk/V61Xcn4A8rzdzf7qcPfWmGFrR208TerNeNUvDllX+WhZKOj+0E359S0/tojLUtYGWleqrl/mavzqVnj2TXMh+C/ch5P4oB8zV674eLV/j4f0vUC+XY6tsfzMyZrDq/brXGQ1G+SRk2W4vdTc8EpOZ3tpWZY3PMVbgKVXJDs6ExgLr3tSrHVQxU29LvjYkN8ehet9nv8Sn1uuV/3vk3DTHPHlgGTqHsG06pupdPZvzZTaQqYz79Nwyb72X7NBIqLjxPh/+TL2zYdNvOodsPP8r1buyXWPuxgXqkDV9vp2o1x74eOpNq+Iub9Yjn5l6J+1r9vwXeYeMvGhmamxRmw/qU2fqnely4VKQ/ca4OAJBTjDCmqq3fOMcfoqJvqftrVZL89iRkXbygcDUem1xPjPrZdA7WcuyrH9SbyWnKflKsd5rRccZHMREvQv8pF4nZJATmKoX8bjDs14Fm5l8G/MLbPuhZ+qLaxACfGC9wRf8jp+t96v0RqnUKm2XU9wTUe/GNBiTML9hvUH2n6h321pDcJxt3yhQpY4O/hfAsHfwdBd/bENM1EsB+nkI2BlDryjPWFCvDOOWSW5j87sVrN5tXyW6PbM8E/XuUOzZ3Kn0rqNtyePKTag5j8+t18O33t9nZ4x8bgESREshgXoBAlaMNaUFne6v8/hCesiCet8+PHLthzaw119tjuDF3LLx44nT9GYMwCUQH6aAwGPSeY746nXTfMLt71av0vSVELPyZ0X2VfbCU45deFLBYh5+gwZJBVW85iNRDJXIrEaK6cghpJCS97DJS/BUhy/Uf+hbD7lpnKc5oxOU1ntFxR/t1Skbipkdkv1Gtzki8OWegynnHuePqHyny5y+nAE9d/brsiUOZWgSYE3fQ/qsdkGP/Us87HMWZbmeaB+4Kbr38r1l8/jmpm/8RiQSiUQikUgkEolEIpFI5N+OUv8DpVMp1n9gfEUAAAAASUVORK5CYII=;" parent="1" vertex="1">
          <mxGeometry x="-932.0034482758621" y="230.0010344827586" width="350" height="81" as="geometry" />
        </mxCell>
        <mxCell id="1uWH6UvffxMvrlQ3iq2U-17" value="" style="shape=image;verticalLabelPosition=bottom;labelBackgroundColor=default;verticalAlign=top;aspect=fixed;imageAspect=0;image=data:image/png,iVBORw0KGgoAAAANSUhEUgAAAakAAABSCAMAAAGu1+uRAAAAAXNSR0IArs4c6QAAAARnQU1BAACxjwv8YQUAAABjUExURQAAAAAAAAAAAAAAAAAAAAAAAAAAAAAAAAAAAAAAAAAAAAAAAAAAAAAAAAAAAAAAAAAAAAAAAAAAAAAAAAAAAAAAAAAAAAAAAAAAAAAAAAAAAAAAAAAAAAAAAAAAAAAAAAAAAGZodN4AAAAgdFJOUwAIEBiHII8olzCfOKdAr0i3UL9Yx2DPaNdw33jngO/3Sq8erwAAAAlwSFlzAAAXEQAAFxEByibzPwAAEMdJREFUeF7tnYuWqrgShgOICnZQUWhELnn/pzx/VSUQELt7X9acM2fl29MKGEKqKqlUQmDUv4Y4Mka2yrKhL6OiVB0SPjTz0CZSD7sDtNEmuVBqdeQD8UWlSt0MPkc+YBlw0G4SBv+01nwio3EClQAnowi4EM7OsYlDmo8xe5devpDHOVWJy0OpSqmnOtidwP8OuelVKTXsnqmzM+NdZTAZqgE+tMo/+KBAlcMlQ03gNEbVNe/3OOuO7xp1MacND65WVHXw0VB9Mq5mU/UQDCVwR/k75jMsMQqCSm6LQ2chm0EdFokC/zpi+rBmJw/ktiZgat6jj7OqI9pmmtkHeek7/szZSU51y8Og1hNwberKWwbZEpyzGSgryrlXx76Xqi30seQ3t4iB6t6Qw7lJDiuM/qCCdSWRcfZyLmo/F3hH5+FaXQ9283EV93e+lvPqNSXATyeSS5IsyHAqCSRNUqDMOKltIBo71GQoK9p32tO6o2tRKrYFJ6cTc9HIikiRauPWlYM/ZVM4oIUD9BcpDhdOJJDRR6UK3iEqLkP2nMoYCAT+Cdi9SMtMI/XJG3zARWqpim74KCI019Jv4LLJ/nX2hPZ3/kJYucQoRKMMewBcrIZDNHB/FnjBMe9yOv0Mj8upmJy2uaiSlqIIxBK6Pyr9iYjAK5YH+0g4KFtK0JErE4eXtCdj+FK3HJ4QIkhQk9N1+FLSg5A3fLADjPVJvOcC7FNJ6GRx/pK9RNyUGH8mVnKplko9HZ8vRftERB7ZQEZN57ujPnzswV2JgWuVrgEXhnslfT/U9QOXQicFIHqP4yf0GPnFXSqTriylBD2VFeWJXi/FaenjQsLRz6J52uLEB3SMJBVfWny7/JZTsehMZz7XwVjlmb3sOCgbCROnHgefNk/50+iD+VcqM1crdyloky4Fw/B57lKISSNSit214FfXk51JbS/VFkT92EhBcJ2ppGQrgKJyC6HkpDNpLmTQ9aUA1QYcpXAY2poCiFVCmwLSQgY5wJfa2V2E0XawRidyXq+XCgQCgUAgsEFkEAFSb019Z45w7EZRzY1iG4O/h4tLAVJQkCDB1cy15WCnN32NYCVHKIET6Vze0PpsvJlXAvnIgB80c5ct4YCAEJvK1dmuHtEGBt45cpRA8ocdfc+R5Z1Dn+Ox74sSQZLBX+ldirPa8YB8hVG3+HxFmIHAg6SiY/0uPyQtlXw18u9RXApPKopTqzn/i8ygzDRI+DQ4ympE1ppzpulgvsJbThyv80CBEtYIIpPRmkk+dHtQD96g/Qcd20nwxNGoikZo0VxIrW1Plxap+LLYpjGM2JamJYiMjJB/mHtDIntSmXmWvOWANFLdkyoTR3wIJ3MaEQhfS4XEHNCT2uhbvjrZxee523kZDCjPjEiFukHR6PGpNL5Fql60ENlA2w4/JKNrTN9btiq0b9Rk3uEhC/K8kHYhJamRf/gKqv/4OuMD/yHo1ra4YD5bs/oYKizUbKhx0E+JarK2rct9YqUCUgeAbDzL8m6QnJRNeeZiwMaTCofn6SQoYV2Iy0eur06tRsGSX0EjPzpvB93L+Wupkj07Cdok3IazVXpArRLw27ZUwNVAPt9KVc5S8a+FG5MjOU//MXLintrVMcv2pqnmwmxz4OGssTd6JLHmwR3jnT1tug2rt4qEK5JeR5yVlaqzGWg3XLYDIkDn527Mb6V62iYQGTmdlDBD+xhnkg+0eOXaoGB9i+VvmUucDHIk94ea4jvAMkcyQVYa05H7TrVqbbG4+UjS5Qm0OxuiIHFKr71CGrnolbwKqIxzoj+W6nuc7ryx9T+A7ZYcPEs8jajB140qEAgEAoFAIBAIBAJ/xN2NujI3u8TQLdViNcx0KVbjOB5DN3xblWYHTKc03/wfMYA1ch97hdlP817qab+BvY3rU9Ms0sQ8odb6szUb0MJBKixP5KBEPF/L838X2vTmbyhFptRj9Mb6hEkrmkcrc54rwZ++6EeuIVrBSwe6lXJOO0VzTIIntpcM43cqV+Kk+KT7zpTAppZpxS9oUUbYi4q8nxY90AV4LkWutKfr37uyNnm0KiLNmlQ9FArlmZ5XPeicbo43KuI5pZfZAJSW85juWlu8zVhUCdWyjnd1THIggal4IvJboRjDQskUEM0901+9pw0+xMik3KJCWKpetXTJseJpLJlsMxBrJGV4k/MM1M+5zh+Ct8mc6P4+LaaIqI7ur0iQUZ1qjz8Uan9FkaVOZ3QGXYAt5VVeFmqcFT/P8VR9317P0bNfCqVGmjdyikltRT5fbfnxcZMtwdskuOkaPTV6ml6UdTbdN0LJQsIUFqUi8xTeeNaaGwO3KX29q4S+5caIoVlgtDw6SQqxgyozk0SlOhiazsNRqX6AyiGHaIdFxTd28YMpqWFVsySpdx+Cp/0GdRsh0Ye19DSRB76xVMFtsbbFpnzRJCM+WLBRzp5PivxpXzf3SovZY5XV5D58oXqUAg5nt7MThlaohGzNR+YPpqLV0j7sfkDUGbkTg7QmYW19V/24zINUpVR89kmudIUEz8Krb+dF65gmlPkK2EHdEKHiq+jIrfQXB26F6so3QrXLBwU8X5/h3+0pLlmrPVrEd0IxpSoNOhcWihTjaAZupEInimNHQQuYCNfhUNnica5r7U6ak2tQNvmg9soKRfeAUBdmobwFZwS5KqGQukI3Ipjm8wdCwbVSoi5mofDffCEU0lHbcgHs+Tc01P4Eb489Zykw3SCwW0jq7pdYoSgdrSrjn8HpYWuNZfrBFWJEm3XZlupzoYEX6FeRPL5I9Ztmz/XOCnVoTpN23PdU/RK5h0q+bBbKym/MJJ5zFL5Q8sXQRj1X9fkHK5QmT3m190fq5u4/xPJCAg9Lnk/fx4NtU+v8Cvaub4Wifke49e8sBb4WSvNtYrcHvOrHhUA+nLxCEHJwZXgH5aOhWL55sS2UYAsud1iAEyqD9lBeo5KBmpscbW2BeAWhsBYKFQFN0uUmTuIxL5J3P0ya5UN7uUPwjVDsNneHhffzqp8cYNaWcp0vX73DlzgSKUxrM9B6EkrczCSU9KM2uftSzbxyb4aEooK4RN8J1XIm7g6ZFQrhiQ2GMrfYFrwIJciDX4j54rKhrkqujIaKjpO6YJTIaynACmWRrdmZt+6nJ7p0ZH04iG3o7uxPhZJ0HAul2sYB5LDZq+mhmUMh10FrvzUDji+hzoIui67NXblEXrwCllutR0lLJmzdFI+f+GW8m1rGNrVE5NGdLUV4QnlBwCtcQGfyHQcMWXOZT6HFI0Jq6wtreoW9Iw9SCkDRTZfinaX6uDMFig7m4mHr7iqmcCKZ4sYbiZU2+XyWu235DzLL+Lt4FYSwSp6FX6ohEAgEAoFAIBAIBAKBQCAQCAQCgUAg8H9Eln++u9+U7XtZHPJ521ha5vFFHl9y2r/ciNo/3XqUCXsL93z+8vbigj09Tv1jqpv3ss333PLqXa7P/PP1pz+7cXhquvn5VCY1F9Hy7WU9RmrswrncPK2pXtTITHkItSm/MtzeHJFbdTzdx925ymg5UVl2dsVCbm4ks/cAMqB76ZnptMs1a7bL4YhMq5PEPOUmtsfTDBsl28s93zdUtoJcTfu2quTm8VqXS9PxU8e/zcV0XEsvcis5tSpKRnOj4495OdadlxuBztxlozXjlg1sHh8jr0AZ3OPFb9lB6GpaqLyntWC5SVlWfNOX5hz1vJg5M/wmgon5rU0bPCjHabWKR7W5krmnVxS8srf1xPBCgMIM9tLC3ZhjpE61LTXdxU4Makj8cK3L3Z//fVJ6Xxc4jPSiS6vlw9hM9j/ZGqtdXbPqI5ncmgeQ2KUSfb837qHlKyTyVrC+I+3ZUklDducnqgsDNQ672VI+qcqH9NrLMsNzO67cwpqDvC9jslRljD2j8ss/IXr+iuhjsIs/TM15q7iT3JORbC85lAOr8NBIAf/cUhNoRpm11NH3Cq2RJYq1KfgbG7QwGpSbkk7tEi7U/HRdB7epeMjVhavsWIoaF22K6Y2O9tFtkW0i6nqDXarvWco1zW1L1cZbJrqFe2lGZca7ZBqL4YCmZwjYUvnkHbPR4Pfft1RUrL1Skies5Yh8sXgfkFtnwGVgpjZFvDrkyVJoFdbgR2/tDpzCpHZ129kfPk1nhtupHJ4KjoTeh7G0lAe9yCSnymLavkeb7fvWa7iL7IliFMXisPRUO0OLu2uTx9uWsv5tSaKtoJVpOb/4wzRwqmmz6iTzkUqn7cJyjz9pU1Fu2N8QqfW7rjOq3crRndXPe6iRd3b7PdPS6XSpyuvYchkK7jIKVtOJjry2KdtPUVXl4/TaIE7lK2GVvTq65czT4W/aVGYeI/fcSw6+Qa71OMepVWea6Q2CjPWfLvgQ/sz7RfXUUFZvS0oncZj44nw7KG2borfQPDerpUpr68lfWasS1nFlQHHQljpp60tLUf2pKYxAi4MicxfUMIO3xH2VfVG40v7UUvmgjl8FKNElf4k4oqoYzf4UDfQ2VAq58E2uYYgPdWtd11/rp0xZ1WNROWfmWypCu7pLz+QBZaUfZitgiHP4sLe8WGriad+Qkg20rtK3lHBb1FEmfakPi+yjTk/1ig9TDmwpzmrLUinFH91m9AdSF//61GZcxiDLmASei9rf37AUW0fa1OliRi69tVR0+xjyk9ehz2xWSKiz9VfiAnrfv0Brb33mugBdwhXX/RkdyMN0pxv6oldLtfwS8QWD986d1+x5te7CUl4auOMtEWpaNp1tB+qklu80sR97iKKjqV+B46xJI2ypDbf6cyJZSzx5v5jbw8L7ifNZ0byKeSubav3OOZRwmW6jTe1PO35tO0d2/A02LDUtep94PfSS/cpSvG3F3bBU0bE2tOfsfZD7FnM20QjPyW3qsnrkD5dOR6+//mW0BDrJrOG4Kszlc2mp72pStmsu0oFuWMpuWF4ttadLUXPSGqN7GiKZPEI0+F+wlDUUibyWg/m2Te3paT3xfq3LK/s83s0wTA9q/R7yTjhq7x/6cSTnUHJftWpTm6zFZH7dUvYpMEbaFD10p870PN7SUvx06oLxr1oqbucZomT0HvqbSKdBvUcxZ6N5OkQsdTbw5Kbsz9L3r/Xwa1yn6ZSbuXWlN/O6stQ3NcnjW0vF43IOp6bxETjRuIct9TAtTQUSv96m1tmvLWVNXJbo4FYi9MuXf34YmRvy+aZNJQN3RMuIwvInlkrb2RsXy8dO1pbiwVbDEjoaP8XMt5ZaknSTVKiDbKkHIqnYPjG00aYGCoElYndt6vNFox4LSyWLlJU/GzEH745Da+xzthNiqWxwNYmpXPxhu/y/bam4lTdjMtd5U1hYisCY3NS2QuUX16Rf+TVLVcZT1kF/lqYzY/E5mWdhKSL6kBO82Vo0y1WiBQtLLfGM07tX4i5AXTbNeiDwGEZ6IwKR5WP38XqH42+3qaiZppPO9kllIu1LhCiGpqocp3wc6X8K5BFVGNl18v+T8InNujMZ1specLXuC11u2V+9lOmOZ5UWTT3uBzeOPJnBBdKHi2lflDVTitqyjR6msDH+Z/t+/PcczXiZvOK1NvZ1oTO6gCYWbnTTUvWXevgh/IDhgnJva03S1fvru/aTlb49meRl0mz3s7h0S9cHe48sg6ttyiMHGhOnyuobo7B3BSQ+7OTj5+tYJmK3+Xg3m7JEfwwfb+8dVoMv5aalWooKA4FAIBAIBAKBQCAQCAQCgUAgEAj8Jkr9B23IX5xu79NXAAAAAElFTkSuQmCC;" parent="1" vertex="1">
          <mxGeometry x="-538.0010344827585" y="302.9962068965519" width="425" height="82" as="geometry" />
        </mxCell>
        <mxCell id="1uWH6UvffxMvrlQ3iq2U-19" value="" style="shape=image;verticalLabelPosition=bottom;labelBackgroundColor=default;verticalAlign=top;aspect=fixed;imageAspect=0;image=data:image/png,iVBORw0KGgoAAAANSUhEUgAAAV4AAABSCAMAAAFcR3xxAAAAAXNSR0IArs4c6QAAAARnQU1BAACxjwv8YQUAAABjUExURQAAAAAAAAAAAAAAAAAAAAAAAAAAAAAAAAAAAAAAAAAAAAAAAAAAAAAAAAAAAAAAAAAAAAAAAAAAAAAAAAAAAAAAAAAAAAAAAAAAAAAAAAAAAAAAAAAAAAAAAAAAAAAAAAAAAGZodN4AAAAgdFJOUwAIEBiHII8olzCfOKdAr0i3UL9Yx2DPaNdw33jngO/3Sq8erwAAAAlwSFlzAAAXEQAAFxEByibzPwAADWpJREFUaEPtmwmXoroSgAOKCooLAirNUv//V97aEsKiPT0z55537svXrSCGolKpVFbN/xDVBSDls65r6AD0lsb0bnnp0UTQQdXnOeT5M4/w841vwXsq/EOO/FEB/Ou6TkUqRYHP1PMvFGF52FRywHdMdbN3nvUY+BtUTWE66OkUDRxPysd0eEHYY+mZPG9zfMtzLA8uLizTMX3y1BOBS/tKZxUeNsa0VNxM/KUnBAu4XfhcwRvv6B14xir1U6UC/wY5vandqfLaM8fDmIGOLb4ucupT8zt9uQLAlo+RabQ6A8pwQGPFFeaC4UXObaRAEvyw5hNwuNF1YCL2XfG5onjySSceabbkxXu8/nROSfLqntL73slsUOKREnR0G1vGQIHQCauFjxKV0cm9yx4upk1I8HUr5eH67ic7irokGi05FMVchuhithJ6A4H/Clx5xa2xPlI9IfCCPcVqGWPNHKim3d90CuaVkBgjDTYzXIOwpcJmzNV6bNnKJmuoIkaTetWwPtStIbnzqsgqY0gBiQS2O+NJiA4YR1QuhhHtH1Usl6SdSe48+OAXpB+1u3eOPkd+P+BLdMAX/bOIV6PBCV+j3IMGvQX0pakkWnIPAFtdUryAIsOzrUlylIvvCB4PeN3rpSFgWgnkHqwB9SLPYlfUim+iqMgPfNEpy6VYyZf4TdjTvRdsPTzDETu5B+HYLXeQACsXX4U57tfk6kEKfAp6E5YZc6GurTRbBEdxNselGFpSJ6ZvnVpRRHJJNPZtTGI7SiNkCPz6gQ0lKu1ccZqvCFPcUa+2ADHt6FradsqHQCAQCPzHybEh5pELxf0GP3DDUlGzQC1H5Q+TuHXCPoV8tBQ41MDGCxvr4SQ3AbbD2BZrW5IANVgWaf099Do+aqW5fMczJdkN981qbJ6vL3xr8VWP3TV5+k7b1QmAre1rjwcQfamFr7+y9GuqEVPRIIxE06vHzkIsfR6x0TccsBuBkBFJLD0spa4jP0NaZhyNqc54saJrOscBLP/G/Y0SO3kJvEZ98X+P53mHlyR5JYex6DglXdEj9unGC295UQcLNIua+imdROyjJaeKO25C6xkbE6s97tSvOWEXGW0l+hbUM0N/0L4b9fU8fakTaLEPpA5kj960Wnoz8H667Yr34PFyN91YMCoP2UPNvbeipI5PxAUNwF3n1JQdfXjRmJv0xXyKjohIaDk1sCfvJTeMPAl7TlVq+k1E2l7HLt0qZD8Sem+uKnyu7/FK3VmnujWBte8lMploM2CidX0Rta+k9EjV3fDrm3QBP5Fzbnp0UkJErtp3PLX65tJF3ZHzDHh1w6q+1TdSn0MADYrXX8/RvxJ2u9h73ioDTxfLBA6PjZioZf3zvvTmiJ0o0ciyw2dfshogw/vx+XZmaEPp5R6vBiBnqeLylSrYyTUkwqr7Ha4rz8VhhweKqx2j0T9BIvajJd8zips9MBAIBAKBQCAQCFjcdpQv8PebAI5nhtmqh00xG2Td6E2WMXjaZaddcRx3RBOZa0TeHAn4A+e39CidBls8LQCdruDSMIXHPd5YRucztuDyyODAJ+tTc+xljQPv6s5dkdESUc156f0xeqqjTMe4viRDo2+BCw+6SJsz3uwGq6KvCDnR2Pt87s5wXA4Jj0NGQ0+0Z5nRohSNV1HZra6uudGWB33BXxJ20KmC4c1ilk80kL66elfkPD3D80W6bsSIfXXZZUKWG5rHibLsyPrqilMjg/fZ83sVTa8bZtKOs3/VvswQoTYyUXHHsWpMbsDae3tqWN9hHIKPZHk1fKVme8sS1lcyZsyV9EbNOJGF1CLR9EpOdAWLiFyMvth8niyJB546pOkz0mZjbyvpCutr9pUtMEoBdI5Vij6KPXqsUjvYHzt0bKP6bvPsRcuZtFyZJYmM0O30ykRfnaY42QmZB3v8B3qa3bvohNeZLFFhMQ1kFp5lzE9YW/gEucgl2eFh58NKlBCZ25MuOvui/2LNV32lvn3Sl0XZLz5DqXKtwZUEh1Q0oZw8Kzv/gVwmUxlWX/uwCF1H9L1J7l86d6Hzpb6+loTXKtFq5ML0pOGXYlreJRxsRd+aa4nQVge6xLQyscG141AUT9pBYysfKzGovnSqBZFf5DMmhWfBq9IeJ53ArE2WmtsLy4T2A3xHSrO0PH9E+p54GVfB51uuvMGHnktO4883mmr/5A/xqK8TkfBGhMl0plhfoM9mg2nAlHgr5WctAPlgGtKXOGvJqbCus7Prm2dl0zhVnD+kvECNn3x9NXNF6Uxq/WEKFau0SaAbQVNR4h0JVk2q+fEBLuq/c/tSM+LytNQXjabmS4qlfWf6njXpiM533jA2yb2foSLqGgDyU6uv+l6eX0d/yBu12FzfO96Efggmz8i3f9G+Yz4UknYZG+d3DOQtpYbYN/ZlFva187n0ebPDA4t6b1/bjKF50O3xetRakUjDNeHprUat0nADY6WrvlihtFnbshRmoa/y5ApVG0i3Z2qcRF98x3QYhTdLr91SFjgfG+oGMjU1GHT83HnYy8O5vUJT8goN8gJuZg66a5F5py9V564AaEixjYmtD9aYXuSpUCXBMILsRdOS9YukaIjsc6+Sc2/7CA2rsilqZ9Wkd+GwsqaY6UtP37kbvoBbgGTHLcCR3Vi2Bil31SxXQ9KdV201mHiYPWCB8yvG5VRwDhxbnabJ17hr4X4iGmtGmF8PBAKBQCAQCAQCgUAgEAgEAoF/kfw2LgXMyPUX97TR/iMfZHzkuJwRfrydJP6FuebfpIPSn0j/feLtsJvNmldwrth6r8d8Pr2Cg9i1GQ763bqdnQwmaniF4x3Htqa9M4/jpobToapkvbJpZENN03dkx47WdIUBgBZU7vDs7JpS6q22TLlc8nE6f8EZ4LyyaFDxA/4Ox0FWli5PyU+li3tHGDpaKip0LfIN/ZqBVca1JCfGB3yzsyFu4MtkLlXJO0ZaLUlZdOpYYmd/PGTMTZ9vsUtCH1BR7viWmXl3f2Zsq/SWs6Cmyb3fbtiNWZ21gFOw4D0nSqXuRdsNrK/dMYnue/nEV4bmzWXdLOHMtYU5AbxG85LEhn7H1JJmpzap8pxLIGmuH0PR3n67MO9RPXenRfQe95OWP+FFiot5T/0Y82LoxVYDlHoyyLHoffOO2BqAVR6aldq3BpnXXCA1Na3xprDFKyjcmddKxPIylyxOTew9Ovlg4MqWtdXaHksqvjVG9f+E/SK4doXITnboF67Wl2rDh6uBrvzfYPWrBvmNpTEHb104H2iTnlLZFiqDcuhvWTncjwPmfIhn5nWxt+fq0KCNamjYmclQ48adiXjEGWvuvcksoryglzDgaukRij8xdN72botEBVduU85w5iOqLA3GckvIHKw6uZ5+wHuS7x2bQiLdZqDWOmqgxYS8sr/0Xi/20vWc7qRUCf1A1zIV/wPz2uvmoP4kGvwJF1dBWFePaswKERXexgRQRcjBr1ifV9jU/bsGbZ7/pJdNCEjUDMm+1M7M1LxU6AVkXZcBuW+jhaZ8NO9bJubt3ObfWgXsvc2zv4uNWjlcr8P15YLYxLxf2L2QDUge2/7+6FfDfpz5G1PmzPM/6rDTIs4Gqt6+eRm3A8Njvwjtc/Hx+n6VCKO3njI3uHUNe0oCZ+62RP0uPhd/aXOGeO9mN8CVH2vNm+6a0106FTOy9b3eed1OM3Rt1b8TdRrHeD/F+gyLkLJVwTYqsZFdmDeBVuOvA0OYq3RvxR/0d9M+tOXSc3l8KJbopiW7dpC+0Gc2A+d5B+WiBH9EzPt+xuDw4HAx8V6pmzPqZWRKs/a88HPgqDqy9F5zSrq2I9NSv8CyYt5psERWLq2I/55MNr8ZHA2xyOz+sNvKouev/QrgDTfe7IaVYzQCemx9mpp31Xs988aPot3S53kMx0jtewmyzP+Z9D+O5k14zLZiXt1cPnL/xryT9mNBVAK3EJWtXwR7sCnetRw/Iyq1S/PA2pE/dlhpmo7izcx7Xb9opB3N61Wf3zBvzSbasL1q2md6ueVo3ittApyat9aK49h9Y96EhY7cFyU0C3BRrcPF54fW45d5uJ71Dh6o/ViKM/N+572OfBkcZua9T80btWrB7IoZY+89wGD7sT8PDjPxSrFlF5D0FTvQGunglD2tifkR2CVyNuyL6fzMzLyrrHXJvvfeKekgu9+RbBDz7gZ0KdrwjUzNuwKb97uafIPnhS1qiyPuBjgv1I/r3ruW0FTI74O3y89aiG7ceitMzEtEJ8yMPG9z/pp9OfJD8x7An/CJMDgUT2hPD1sxfPMyUS2NhDfEsD94ekP+HLsyvrfnDTz9rl7aPmdOHRfQzoLHD7g5vzGPZrRuhQGfxp7eo5NtC6fpg+5XgPawDA84UJnzMfOFzPjQz+H6ovMmiiu0NPafJvvCo1fbazTr4GRVRivMi9SSnvqDbzMMXXpGRCe3g/r4rFc95t5iNrnN/n3iYl5Pjm5G91igL81K1RLvYPEblGoxzuAfUn1LvBZpvnSm+NKdsLzLL7+E991Z29hiu5g9eccFVpQ5lqU3Pb1gs/vTIBwIBAKBQCAQCAQCgUAgEAj8n2DMP44QJwdFgvEAAAAAAElFTkSuQmCC;" parent="1" vertex="1">
          <mxGeometry x="-523.0027586206895" y="167.00655172413792" width="350" height="82" as="geometry" />
        </mxCell>
        <mxCell id="1uWH6UvffxMvrlQ3iq2U-20" value="" style="shape=image;verticalLabelPosition=bottom;labelBackgroundColor=default;verticalAlign=top;aspect=fixed;imageAspect=0;image=data:image/png,iVBORw0KGgoAAAANSUhEUgAAAV4AAABSCAMAAAFcR3xxAAAAAXNSR0IArs4c6QAAAARnQU1BAACxjwv8YQUAAABjUExURQAAAAAAAAAAAAAAAAAAAAAAAAAAAAAAAAAAAAAAAAAAAAAAAAAAAAAAAAAAAAAAAAAAAAAAAAAAAAAAAAAAAAAAAAAAAAAAAAAAAAAAAAAAAAAAAAAAAAAAAAAAAAAAAAAAAGZodN4AAAAgdFJOUwAIEBiHII8olzCfOKdAr0i3UL9Yx2DPaNdw33jngO/3Sq8erwAAAAlwSFlzAAAXEQAAFxEByibzPwAADUFJREFUaEPtm4uaorqygAOItiiICDQil3r/p9x1SwiK090zs9a39zn5u1WMIVQqlUolBPNfRFvCnCPmkOdACf0lMeaGCcaMCCUtwIh/mDHPB8pw/ezxPTIV/kE3V3QK5yMiMD0VgWeZRtOMqTATZubjiN+FBDOTGJoZMxyNKQf6CUCyB/4OeZ6BySGjY2lyTMLWwLZaKXpPrYmZc2oYam6mNynlqqoK8PeTJCo9tXYpxw02qWmpuY3BS2HuBT6uL65M5JONjq0HYJU58G9xozdVPZhaDmwCgT2TUwt8jf4PxnT6+ZYCbIH2TDA7/mT6gVwJwT/OfIjgt7sebgNDjDZJTsL5iTO/W+/VaGHoT5iRrBTwD0Vm63zDDEcquCfjF0sFNPqlnmj6UiM0cjFzeqOCTe5c3Aak5TPWiTOgk0TQn+ZWFwnqB6H0iS+pBclHdX1fcCDwvw8PS9jxXMiACTiSKNgRY+wBMX1s+QUaj7j/rOgo1MD/PG/ze55LgIPhjj8A3eGT+66hcEiSCvQg8zjuMJV+2Op4OGyhLHSiV5aOgER0MjP2YDqVYhkv4rny+2a52O/JeaU87j7wlYx0RG+SmxwDD6n4nshAzulVNZAvwvqB9X5PROy/GvGW7BexBkiCgd0FP0sTReRx+Fz8HUMCLSaVj024WuRf6aojucEHpdhIjooTec1I8nESve3pQGCHaUcIBb8CR4CsiFycNRVgy8UfwUQUj6zLJVRsLnft5rGe1nQuNZa7NJfaHFa1hL6lM+8Y/uRuMMLS7RizUS6ehrZA6Te+eEffWHTXEmzIV8xxQQmcaxdkKFgqEAgEAoH/65Q4AvFEmlw/0OSKoMGFR46MxxFBBodIhu6FOTU9ngdDBRhXcDHjOFEIkPAAen3KzySayNM+PIOGUBpFP+T7r6BgAK8i/wgGJDzLYnklSeDj1hvnHT3+Yb3B8DgrAQtc2njg0ETyeGhoAC4sdJd5zbuGV6okRqGsFADtcfRNSGYdmWXCSGCOrMXPSmajUnZB2bFdJgycDjLyq34PeJylmoRnyQfDgRZrWCIszbJ8vqenUAo0VtRpsdQix7Zqmr1EfMzsGcdSdkuBRnfg64twPEnFaaqGLBLzWHnp44xhkVxLs9j58nfAKlIZk5TxcbdSE0uQdOJGRmrK/MkNDbIssDd9TV+SRZmji6jlO2dGJAFn/RhukbEc6AIDFdtRXMwXgGXGsAW1DZVzxU4jkj7Le62oQ8qFSeV6YBPQoGfsKfhfJO/kRXz9cvfqqTfSBfgHd+DpaIM7dch4rz1gW17BXtjJq4Fne8C3GX++suVItg15c42LKYETOc8P5QU2HFemShoNNZU1gu8LbKZGpguWASt8GiuAs9igzXYgc5by1h6FMsh8imAxGcwvB7YzvcX9zt1pvaoZOUVpT/4CUvbt81fdh2Zajq9ECwQCgUAgEAgE/l9D8TXT9X7sDBimw1OEvs5hiTjIBxvl36ajRvYFTiPa1YTaAyf7Pm5S8OU8OQEskhZZaGKSyvQIoUkLz2y82bzOq1pY32357AzMqSmgavEMWrToZXknMTNX0FsWWcAzGKnQoecFAC7hC+hORIS6IGkGFJduYfCmH37dZAbGt6Ra/IfIv0EilGe+Cpj8cT6wvPx/NKeCTkM4m1DxlH0czzv+mKUyqc5d862qPUE1vJUk74kXNlI6h8QkKVJVKsGH9kbLCjAn2oL02UCi+h3H/RzXEU8fVxM2IpJGK5aa/0ReBlAa0jJS4OT1RiWyvM/2sDl5BXOHKjItVkb1y2fq1Y9eGcKe58dezb8rL+qVP/BF0uRkvlQMSyXl5Ym9Q0s5yNojsXJZ/4hp0WOGeH+KW1qE8OyXjukuZiPCqHi8IEnHR+qi2u1O39Yvt1axpxYcx77GDtjkecP7OMh+83zIzOHCR3l+laScnYFbr8nJpPaDVHGx372TV4TQ7GfqV7S+M9PBTAuLxjTWrFXu9yRUTKarsGqsFzEseq9kX57QLEuViJWXLTqezGVn5SVBkCaVjka3vBHNzsZBx2w1/PZjsvTOzlbk7bmXCPt6qfEk12UDRk30tDrHKZhGdctLlRcRO0OoFqgVzErZsTFJ3istTbH8vyuvMQ88n+QtadnWshyZilcREb7nrdWR36MTL0/OtP1G5XUnjmwM3nImynuiRWST4feO5BVbgINpMjqYll1Em1AZ6ry1tnblFAuRBJN0N5vHiWLtwWBXs45kkVdtouqd89XsWTQdJY16Dl1R3Af+LL3tC5U32L6k1/gDLmq/VhB7VJAM7+U9m6Su6qGaeSfFs35f5MWXVIXWeX8sb0RtQ8vNtK5q5RUvgLjLYqm1XMWJaQ8KrPCR9LtvzOkb+sWXXIcSfiwvl2LDhjf6ZV7066/n3g8oL//wXr/ywx/KO3MWW7rKi96XtlogXqzwIq8iJezS7H6jmzEq78zue8jzj8Nq447KK70PB4sfyrtngY52+dj2zDuQQz501bKu/E5e9t+PoodB1K2DGV4Wu5NcWuSxkKdbiqXhohPpU7wsI0PINhyqao1O4p6isreimQZU5aiTu6jct2mCdDLbMNQGm7EMd2c2Y3cTkvHVd+UruhTxfV/iFtR5PFi33rKPy0VZ6/X3LRab3WAVqDvFBAKBQCAQCAQCgUAgEAgEAoFA4F/i8n5p9qSr04nsXXjPRW88/5TXFeaDWxB/RraL/IwT3/L897hM5fOKeAWZLM6PL3qudL9IDhPfa32LK4M5wccv1B1l04NqfY+O/Vy1yYNvsTfzjlWRQ78jOfpBdnmMYwbQ00r9GdrS6v623mPznrPcI9rmMtND0wufMLtbC7/NGfixnKhUjdl7gQ8YPlD1R7lx85b1HSBFyog7rssDpsuvLe0OfWpg0OZM6f5lrk9r5fqYds8l9ssdm71e3/JNRWR0J81xBX2IikntI+GKvfafkfZyZzAZKtKCqnfnlW2V0+vdMXfddLnlhQ008DPwxORuySbp8Lw1bIOkvRtA1bE5PkgDOTQxKi1e1EuWO03juJvnq4n7Mrae5DJ4dwqfeehulDNtenHUgyYji/d5Ve8vTP03aOnOJqs37urFTTViH5t46vWwPcCYAtzmjS8g9Zqixu5Cd/12kBsqfG29RIodJhvjyByw/2qa3WT0C9J58WfRNDQbZ/xl9b4MYtGAIpBq7v5DTcmsN5ZL2wOXXvOmWla9e2illeK95x4e1aLySPcOoXqnj2G4zMV83Fe7mlS7Vq92h6qGGbWaa/M6lk7uF+9xALdzpdzcWvnXrTc+Q+EUVHXSWaQbjuMAssEomkC2anQw8Sdtc9T9jgTAhFUreHuWRZxDC3omngq0x1LBU/SI+Jz5CTqzpwcczQ2m88Ec+OG0V+tdfC+nZ3R3nXI1viLWxZu6lIEqP/MuNaTd6UHerZ7HvYLbVsZk0C2e47eIKphVwSyrR8XPDjvSfnKDQuM1czQvw43PsR/e3ch/qj/auOxjRU5Qm0ernWStXlLHMOBbSe35bL3v1ZvZbw9b1CJw3/vd7wLrJxH/BoltoAzOU+3tItZnjJnoA7oXZUVliVUFt2PYIymnX/SrZ/U6GaJWIqHjVJK+ffUyW/HHa9ob9eLIK43IT7kKPV7hX4KtN2p6GMQdWvUexr5uhieFMNDF5vDqxa5d50U7qDzy6MxDLM2xbOOjUuKWHr5Hsu5wJXN8Ue+o561xnW67eFXvYbKDdQYT7SL8mLrIqjdbjPhUc3l3L9Briq12/TYXroFzDmnFludbr8ZFT1D1nzgVQwdL0MMUYN1ERB2cdpTrbjxXqaSMs+Fu0jy/eYH0hnpX7Ub4SdvFk3rjEWSWYjniz5jg1LtUr4eO9JBDoQkYDkL9B/rNZPtT4fne477vPBdF6tUDn5V6o6bseZ737MPX4w7x6hwmJz6FXTR/IoPfUK/dT+bIXjX+6hwaKr5qb3pOvgPaP4ks6pVPRIMeP2r4ExeSYpDOVDhnON4wJAJR05P1SgiwwlOv5yN+rt5EPO6NdHcDHegPJqaQ+a+ol1licSxHu/4/rt7MjUxT3UK3W8apJ/Xqgc+Gc0AycFYi7L5Q7wn2/JlSZCbWO4Cd6v3EOSjfUa+e9A+r9zIPtluesEIrD/Ok3i38HI6vrXdNQ7vZmXj+EPW2PUnCrvProY00FT1d0mdTvTqZ+UfVe5k9+6tXm12RlXqJGM2ik8Dt9Pkupv2peqMaJudY8MQc2vMMU3HXQlbqZZJZInV/bHCbjTfYUK/DKq701csd+OardxUdf5uoXrRbeCtfBbTVR7Hq+ulugGLVDU8fE8znl55J1bH78ZXuRUM+uUZjvAJW7Zulbcq5yvCyq7aJx2mwfnNxC+lkV9s2qDfUipMeHEz2lQ1TZNJioRQMNfQb8d6YvsWxXPkFJAMbrN5KnCu+Kf/Ww+pBIqJyD0QqzTeWzJDLKnISooFnyhhLj2PZQbvzi/4sxGXRdPy+cbKyOWwwlZulHZbZlBJvGE4gEAgEAoFAIBAIBAKBQCAQ+AJj/gOeGylHZ1NqUQAAAABJRU5ErkJggg==;" parent="1" vertex="1">
          <mxGeometry x="-924.5017647058822" y="298.00470588235294" width="350" height="82" as="geometry" />
        </mxCell>
        <mxCell id="1uWH6UvffxMvrlQ3iq2U-21" value="" style="shape=image;verticalLabelPosition=bottom;labelBackgroundColor=default;verticalAlign=top;aspect=fixed;imageAspect=0;image=data:image/png,iVBORw0KGgoAAAANSUhEUgAAAYMAAABSCAMAAAH2qHiIAAAAAXNSR0IArs4c6QAAAARnQU1BAACxjwv8YQUAAABjUExURQAAAAAAAAAAAAAAAAAAAAAAAAAAAAAAAAAAAAAAAAAAAAAAAAAAAAAAAAAAAAAAAAAAAAAAAAAAAAAAAAAAAAAAAAAAAAAAAAAAAAAAAAAAAAAAAAAAAAAAAAAAAAAAAAAAAGZodN4AAAAgdFJOUwAIEBiHII8olzCfOKdAr0i3UL9Yx2DPaNdw33jngO/3Sq8erwAAAAlwSFlzAAAXEQAAFxEByibzPwAAD8VJREFUaEPtm2mbqroShQM4tCiiKKgIkv//K+9aVQkEh97dZ7jP+ZB37waEkKRSlcqI+e+yXVqrV1U18CS/TjyAx970OG2KQ+FCGZPZwq5bCXiWG0ueEgSoca6qC98wJpejYvGvKAoXuYPp4o1lVZn+sTUGabgn4OiD6gnHDW7KjwFXzFU5TyPyr1K3lanUVIbUrEdN9n1vTQPtiX6FFD9wgokItcl4siaXd6ytcGxTHvjb0/OlO69q6JW24gyzt7VeFKMNynkjgT0HPHcG2YshRv6joN46DfI0U6mycr946I04JUeBX3J3O1X9HS3pFWthEUIrLozR6VmwwyPRq8os+v6h17C4aqiulelg7aYTpyNe5iaPZ9h6xbx0FdG4XDrOcI/ud4Uq0h+n+71e9D1yJoba903fz+oCSfBCyhTCXPs45D0kKj8MXkdsgLc3Julxv07CF6W4Xrwla+kSd7WIJS6NUFnrG8jZBiGuLmmSIWq+rIlqQbNWRyKRjwSeDw5FfAvADXkA0LBuULEedIErnBx7VuyrVDYE9n5tVlc9k5MTl7Vmh6yq7JgCncahvbZ8eY1a7Zxnbqpd38NTOdcC0B4Xp6nJnSOuZ/ZIqr+KtM631koKWQvHhAjRu8utLauqrXoD/7pPTKtedSlvzMB77EzwiT7VPF7kyDTxx/+Swr69SWcDl5DBijOG8xPXjCzBd71JgeA5yvgq4aVEUeQsLni5K64Opr4gBbOka0U5oetjU6TgvXiNzkdJDUHClTrfGYhJVbCgLHxDvS+LSZLe8FJSYIxyCwem0FRVY7oz9VDznhU9MEAI397LlShMIpDM+RSsySr0p7wMPoXzkK8RGbOEF9HE6ZuvpQSL8Ra63uHwpdeAKQD06jYVJEAKCY2SgZSejQNzXEuHDL1D8FYPvIkMfIl5lmMDhShDEGKF6CCcmgI7fvyNk68UhClGIpFIJPJfIbOJSdAFknaqxaFkn2DBnkGHvzzoPeChNImuifWsDsYiVG/7x0JbR3QK8L8wCY9FbcO2L0dz37LhRUD0vpZoxh8lu2FjSxmQa7v8fhD9RHViBDpwviKRhik9mFrQuEsS1dQZmLDo3iwynKyKwHtV2aQ1ejzVXGL2BOSOisDY0LOtT1vTYLRO2mlewInwLSeNH6Un6Q6Q99ig5KT4qIWiwL1aLngzf+B8sDpzJUWXoa9k7MIMazOUkwgiRWsKjrnl2rjZqicRkPQilQvEk29NXZu95Lul8N2ZR03uMyUzYt1chKbCvBD0jssuZ54csLkAFQEdtiMOTWFuJ0bA4OzmA8MHQMN5EfAAnTfGxBvIHf6rIUl/TGQDclQtBDn4AOyYkd0RMc4Y72iEgiZLLuzKKvzJwkFfXTrqR/MomkdVnTg7oulxEkPRGHZVdeVYIFUtJJBSHhWSVNbyLYb0f78TgZaHt9Ive3dvP4tQytSkPgPetr0WUPg3lY3TWe9FAE4LnN1pt6EIUAhSpD3qGFHDyVFF4AjmG05Sjh0rA9C3exmoCHpDGC+9CDKuQTKUpMPdjTdxsDy4CIIY3BDinKQl6oh6KdWCK7Sz2ine0Jk0XxegwCAfz7RirlICplz6bK4tB3Em2UMxI1LDyVyvR5RR3WCwx1wU21FSTnW5H5OHASutBSJCae6TCNQbPfhAD+/4iUf6M2MkP4/tOzfuHYI/f0/5s2CRSCQSiUQikUgkEqLLVOA2m6biYO0xG2NNIdww0yMzZIOMamUebW/uMtKxicn8fEgA45CxIcZxfsxt3BpbmAPhea7tLc2XDoFrxmYP5i4jSg4tZe7IDx4BQ2SQufPpOmySt4lZtroSh7EoBtz5rSgy0+GIKMbVXmIx5pfZICSK8ByvH3RUutTVtBCXejD+fMeAITPSYP6acTXY5cXHIRNx12vV2tPaxTqxtHnBqUSM2asvkaDmcPiMcT8fPxUsX7dm1/eUGNKUZp1rKjpqF75EdC1ITre9mzV8wlKCTHXWsZTwxylIXeBUREvJiwAgL2CNg0kPGKGrBMCme1gBkNmDEZUAiA5SiL4ocIHXmKYkOcn8LrEPNGldJ7qaeoNhL1n+ooNphdXZGYbgbhQ+6TYv8m61NIdiJoGWBbMkgdysi0wxce7sUcnSOJQnFzlsCBUPmpTgOmkgly+1Y0Ynj2vkiflbc4qZmuMSvJtDveRmKxcyvW2PuLCyJ8/NZZ0vrOPJdmWOA2dJVAKdF+J6Pm6pal215VvyptaDTcJ84yLjfir/H0AuFbEapCg/IlN/BSc2mUcaLlyNqECn0swi0EIWeicngdlL4NuebieU4JCifGxxOBWvEmxsK/WKrGXqldNGNwiBwtF45SW5/F4AndwrGlVxrQq7aEaRpSTXXZbK3U3xKV4CiSHFK/ivEmy0PDbeznTCyUuAJ/omta73kFOGwe0eZ336cwlI0Zv2AcsTCbJBdCd0zdbvPjap26QnwnILBnFzXBSA6akEvNQa0PcLLQ0XHMIyU/hzN5zDt2mXmD3i51ONgbtVxKH4/YDfsKYEJkFSlOCu0SjIkadzSVpx79O0NDjVuaXJeh2AMQo3GYygbtbbS6A60HAXi3LiXOqGpqhC/UIHCEoJwPKqVjTOlBYHJ0FxXbowPlFkwF/oigF+bQMJRqbpbGdF+geBWQ9wlVrZ17thfeNDlTnhooxbleHvb0DTKaVxvHaZqweMR1Ed7GnPnyVACi63y+qTDoCXgMYhAbwORDFrprFgW11KQto2STTSYfkGSti3dmD8HyQQCpfLcUbcS3CD80Jy1pwk804CGjBZvUhgL+a6YRoiQS3eQaNSablN1eOSSKdsvCJhzq4B8RJQd8Jh6sW96GBsovCXoPl1D5wELoLiNErgoxpQqMnGxRKeEumE0AuX4kaA8ynWjt2dF4agCEYJdlKtCZs6x6sESiftxcrYEu0yrlQCdHkRDq1C+twrW8FSEHuYdT0t5+t6Qnj9nlSCJPJuUciyHMkHUdvJngMduFYv7K0S/qRvFYMrXGMIWhRbL674NBUD4PO9rrls2CEScEppBki/DOMPrz8gOfS92oO8UHaj4pk3d2Fqf/dNrK70QKH6PjUy7tDtdbKnz+PHIxqLrJSDMc5k8E2M8Cat/wvf1TtPmM/PaOWPRCKRSCQSiUQikUgkEolEIpFIJPIfo16dPq0H1D1XAcHi8zKX8E0c33K5zZZ/yP4yLSs53I36eb3rLWOE4wJGLeuBRfm8ohFmevOD7Ffn1bh74G9RPxq3luap7UIz8LV7FrL2m9Dah0/9fTmMcQjZYL+4cPyBtHrwO6bVvey6y6modTlzGC7ytO0KFmOv61sOLkbe7KHwidTnj/Hv3PLoYAe3Fts2GuG0lKb0QaZbe/iDmRmT2x8o6mdkrZUPxJbymRbLT89H23H53+xl449w5VYJMgx6rh62fbFcoHGkV9nNdLSPF1N+4mx3EMkbQ8NF+7ZVy5XdRCwgxhhsB7tZ2Uk3EnyONsPv1ams2VZfXLN/yB6Uyu5xdDsDUvvoXRLCzQar9J+Y6SCphmed/oqycruNxL6cDuppi4c5uWrb+6V2VzCULMjHlrIJexGQbNL2zQ7OF8qL6KCgiW7khUeFO+1p0kEA1NOck5v7trUeum+8UqADRys7OIISp5kgyemO/AxY7sSIdk7djs7ql4wj+Ttz/C1HSKc6SJpmcpdL63YAPuzKXci2SNC+r4++LsGh2cMPcyb14GjrVPY6bG2vhjarBwJKc3Mzl5k7Lz9qIdSBft8d1IPGDuJUK4tHuLOAx7ohE6wvrRw7Pmls96Ym/yO+aJs/57yA+Cy/jDlz7hPFMKi3hcOUc1APyHPbBrwOcutUmTRfkypOdipQs7i4Bzvb2evmUg3FpoWtd8mTDgJoyC3MILcVCwiGYQPLnUU/04HyWg+2lm2Pv1N3FPcowm7EG4SlPYxfAx/syV2V3U+2+H4ga+zBF2HNDZXAO/3Obzg7O8k/c0BfxV1+g7axoJ4VUrKysnsv6ejoEiQLQziyGF7rgbYHojTeL1BZNFS443wefaCDUrdGd7IfLrf8Ovv4sGjOr7J9RZNIKjG05CHbZ1ZS+qHHVQ2SQDNt98YQf8z64Y1bBAqop/aPrFvfrwD0WSBhiEOQwYDi0XxqieeFhIo0NRnLoUuS1VVTmuuAltGyIb7K9p/WdwsEmoHnow4mJl9JTqhzQHTgtqhlnahgo1+eN8G773WgmfzbFHZ177p87BCEOsgO1u7oRWdU9mvdhF5gZH3mjq9PPOtgJDm4/kgt9hDqQEjf9FaKF00/60C19JBy7PdSbk4HW9tOdqU6SG58kg26dfuqG7rCPLRjNzFok/+wU/wnJLQDVw/q1naSMaeD7FJ1i6X3lTMCQwhI+offd6sk18ErxHmlkUnLeGPZ2L18kJLDP3xB+hcdLG3j1D+ycq2q4GIdYfTzeuA6t04Hhd0FPqS350H3et4HzdheK4jRvf/Kv1QP1tKgTL5oLRmc+SJ1BU90LzpIL+2+f/JpEOGp7/imHlRpddbkAp/xRgdTf9nx5tYnX8TMPutAA6bHFeqzf23ZOQG8CtKwxe3etwfu4q/S63czp8mpLG/NkC/mOnguNTCrB8ev607M/bldgQ6CBpO86kDG6trLaLh7uB444tn9EzrYPekgZ+1x45fcBbzZHPavMpZ+rJVcfRuzGfuDTO+tL5oM56+Qea3fbF30O9jDkEtZPtWDtwQ6GPm9DpJuklHrQSo5WLC3MddB54QeOf9JB61duO4+xXmtB5MIqgPvnLZTJLMW/DSWSmCC2cepkp+w4tcYwpctrJa+8qSDIBueWT0Y+bMOSjsmSrLBudt7iwIQHext49P7fT2YR79c3+zuyG8bYWVv8dkNZUzbwP182aDlnpiLn1T2ERTYzymHYexWPMZvTpUnHcjgYd4odGGIkT/rYE5hB3W7MHyUP3WwbzOzPGqJvKkHGKQB6af6evCmb+ZZc7yBrrJEF0w4Ad8eKJMO0mrns0Qe+mnTne4rQAaHc34/StgOwYzbyjVAIzMdEPZDKxU2Oe/un5T+Sx3k1k4t9ra4o1tmu900YR3qQMiu2msJizN9DjSRDZqdbGCP/yc6OF7nXYhd0ByEvHcDv2U9jIpbBOVUrGRoPJonOB1s18+dXobiss1rj/344rTdiO4D7tOj7GHRpyoCSyq+MBrDuMT9FJbo7rsSulv3YSNCtuEYbUY2+AItWWSjDjYaeehk+mkkLxz7fbXq8yHsmYZME73/CMv9cy1aNj5D5VDph6/vOLb8+nfG6aUenD/NK895V5Fr+TQOZ+mFLGYGmhQ35wL6j5Wy1D7fyD0s9TqfJXlq38Sy2IdN14wqqMCRSCQSiUQikUgkEolEIpFIJBL5Bcb8D0V6Y46qj0/+AAAAAElFTkSuQmCC;" parent="1" vertex="1">
          <mxGeometry x="-663" y="87.00352941176487" width="387" height="82" as="geometry" />
        </mxCell>
        <mxCell id="1uWH6UvffxMvrlQ3iq2U-22" value="" style="shape=image;verticalLabelPosition=bottom;labelBackgroundColor=default;verticalAlign=top;aspect=fixed;imageAspect=0;image=data:image/png,iVBORw0KGgoAAAANSUhEUgAAAYMAAABSCAMAAAH2qHiIAAAAAXNSR0IArs4c6QAAAARnQU1BAACxjwv8YQUAAABjUExURQAAAAAAAAAAAAAAAAAAAAAAAAAAAAAAAAAAAAAAAAAAAAAAAAAAAAAAAAAAAAAAAAAAAAAAAAAAAAAAAAAAAAAAAAAAAAAAAAAAAAAAAAAAAAAAAAAAAAAAAAAAAAAAAAAAAGZodN4AAAAgdFJOUwAIEBiHII8olzCfOKdAr0i3UL9Yx2DPaNdw33jngO/3Sq8erwAAAAlwSFlzAAAXEQAAFxEByibzPwAADxJJREFUaEPtm+mWqrgWgAOoCMogCioSyPs/5d1TQkCsqtOnevX9kW9VKWKmPSTZCVH93xJprY3So07oozG9MkVE14LumuastXwCDCCX8EFhjr18Ekr1UF4GdVYqV6cnXR8gh8I6EdPQm+qxfPiby23GXI0KG5JCKqOKYv4O03U5tl0+Bv5NwEM0v4DKVVvAW4EvV/xSwdUxbpqTii7WQuwg+MmAI4DpVQR2NqqVewhki+QSzE+vnAjIVY6VYQaL1ge84TJM7Dg3fHlA9uMOW8QZRnxRKsYXmyHwf0Ut7ysqfBGT0TXjXT55mAIm7+19HIDbONywYw3kJkyixtzQfRl6kA7+raeAtwo55c40uPBx7Ucw5mEdkPgZQU3VXcXaaBwGUTSoQR05mXrBfZWCY2Z2lDxgdfAddhMqF5qfvHlqj5kLqOG+hzfOimkGekvhP3cF4AvUYEQm24+o/ZAzhRpKuedBX6uhwI7c+V+esOs8QbwMWrbTUCPhNCM2gCyUK0Eb0JfrGgKBwDa2VwEwdUH3hK4G/y//C0OBGE1k83B15e7X0pCwiNR4qp603o2qw0sbZkFJDYyiGV41FczeNH8jBRXLqWjEgnhQNQDcgun6wzhN0yw3a6YZhmgepuwsLA3nGmAkFWjs6bAcjgp9aFgzJHssQyayg6QlD4QNfoeDLJYtox7XAFECgcORuWBLDysVWfh2h+2ErKgr/AwyUw12mtEQmSatV4MtjdsIFygD1+3jScWzjUCaoxoOtkos26/BiAfg9xrk6CmP0uQiS2jQhdlkghjccRJLchPxYq4hxs9Lw0EZWavuoKt3moabAtqYYy96r8iXqrroCpZpKQNQQTv4E/qapNmCA/ujphKJmAXA+1C/cV7M8SO8WLesVEWOjBPQFzUEAoFAIPCfkUlARItZDmsSFyP5RBD53GAqxdkb5kSc8qamGSEmUwlNx9c5jGJGSG8xvLhECgoPLDGGRhxQUowAtPO62aRy8REJSw1ntTGG5T1QbNQN4z2z70iEEaMZU3QxyNJMOGH7QAoOHlA7MtsjdwyJfR4QvDwMvFBzDIpQQnRyggK9bJ8gfVM6lOJoI00C7yJ88YCGJBA0D+pgTvuc7oIIEA2mcN0ouQXNlowlyNqoDgwAfwdXGoRns6w5qgDSDSDVQwKuLGm1E9LLtgUGeY24hAR/wO4mtnnafRJbzIiRXp+h2NLenp0EFv0ER40iQtNCCDWHcLYQwOy9MByCQRepRXvcVuiaB5ZbkYd72baAGntsVYoqT1CEK3neiBbcUe3qRfYwhgJerbphaDoTpU7luWsNf5bkRl2ViAAho+5tcuQW8wpLmKNlKBS5m1ZX1DfAMYxT7SaYGZ24GVBeThoNEIdm0+1MnxhbO/Q76xanTyIA1pGsCHjL+xq9XJVzkPsmAvWF5xXc4DG6Zd8HMDMVkGP47KSt0Zpqj92LkfGhQxPhjteFknLhGyJcZdVjRUAXO9mvI+kHiR2DcNNfOFC50CJ/RJL3D2Dz3ZolpvyXBzeJKirnHg1MYITiVQ4GVr+I/Q630djnV+vQ9k4LK4GSi56JygxcV8YDZ2vOVqqfiwBVzNgFJ1I6A3wG5Thru4zfIvaLRDZKPS3HVxlAMjvGr0f5QCAQCAQCgUAgEPgJG4ua57zO8OCFlLGrl3u3l3XJCxZX3hpsRvvLbo/p/ZGZWSSdPz2/WklZ3Mp1Znq/BcB61oyZetCuBC2He9oBaPaSATf2fPqItxQQ/yjGcgWJC9JWzrKINiGBrMPxgNRHSllo1/w20S4eX8tXuXdGBnm8qG4DrdcsAVUWq+JMW0fuCbIA39GOArLnFTXhSUCVqxh3MhFUDSwv4XUaaf/wy9UskvD2R2P3P5cS077SAqPuEZ5ELExKEpCcU3yLcbtqbYIElsIowZ5etiUgTtDWyIxKpXgA7lCQBHA1Xb+XgLbv5iLpcaywf0bvuUH9po6gXWgH0XCh45bbni33LNA9XOO/kgAxJ1YmgI92+Sm5+UYC9JoIq6AdAtz5qKMn7b0xdgOS97KoCcYk5ywdJyuB1rg5h7skdA4U+jQmold4B7n6Q9PcxmY0CwmcsXAPtTQwJEBHSmVPWt2gBJviawnA63xoQxjp3BVjd+OgJuhfB+q1zgbw3ctJwNVJctr43bJBdFjtZKci0s0cuANDzo579TcS4AtWQ9tTUi845Cnh0dTqxEqwx/d4Ui9oO0vw4P7XFi314x2PtJL8owTad1bANTJR90w9cX8TS1UPqOF7CZ7ouqRzLjUeIFtG11OJbvTSuidPYWj38I4qRwkA1/crcroYkmLyPbSdJaiw8U9fAtCBXBHiAojd5RIJh933EpxI/ehOI+WirngZYqhCnqVw0XYbMr2hhnpPAvkCXJoO0vq73iyBpucFSwm8TUk2EyNlmafhI7HQG0CCzemVaeKhYL/DV9eUDgdkGNIc1ovUoQXfLMgcswTQPgKmaMEmFwmwJF+CEhI23r4kPRUiJOMDkmdcutLPadicXgkskx9n4H61ZH+i9ON487I5CXKVweTaNxN22zcb/FQC2lx22d5t8KKTnPB3yk1N2+sfIQnoCrPif9SRgscqVz07EWIlwGAF5l+tjqm6OwkcP5SAx4fX/MBuLQG8wl8fHXEw+rYfrCQgErAIZOzdkGcfDGCKMgYJKLr7bAPb6/ErkOBJ4YaVoJYmDS4WXHkRnkJzhf5EAvYiaJLNVWN7X5Dx7B53MhM1+Vnoe6XB1USCqSgM/dXx/EyCYQkEkSB3k9lkB+sa5nkOXygitWMA870E89zCuUoe6Kj0vTHe1IMPPKJCw7jFN3FWIPCBp2SmV8eGBJ3XvSYjjzEa8qj4BmGQ8FMJ5nSgWhovqVHXR1n6X1lwsDa2wGwUvb3oYecNXSF34zmzlACu0qWIGqJv235iZwOZufrc6mkTJzLiy3pazDgfwNr1fe7v77yVsjEsPpaeKiqY10sXb9gNBAKBQCAQCAQCgUAgEAgEAoFAIPBf4h6Jfcmdn4H8Me+l7/9hSUvSnzX7z4i+eJyduEdq/wJRN/yk+HKyx1++Jbl1lLZS6WBufUznMIoWz0AArXmcscK+44ea+ETLNGiY2nSNVW31jaVKcztHfNxoSbP586LWDPMPlz7SmVJ/sm1r+vnJpkUbM331ZOvn1O5EIHI1N/txcQrsvEil2o0HZTNH1KrppdGZAQW08uywNWyLnh4cGnn0DJRmoMfFyATCfeUZscHHb4382NLjaqbl0S2moPRr2uYALtCJC+wnw8d2LDU9cE05Z4sygK6GnWcl7Z6W/ikHEBL9r77hq6XzPrH4+/mnfG9Aw9+PYXqkU0v6rVG6HZ5iaM1lb8wYORvwb4ehjp0ZUhX3tbNxRT9N/IqaHoI39vnvfmrkSe7eM6rHlTX4BXHHZzOqXSvteJonqTshq7INrob88j7dSEX/3AaOq5nPFsTTsOqHqMYtsANcxkWn2IbU0eXQDVCIs0n36I3LfoAUIF69A2Nd6VgGEX3ZzZ581G22gdP8Bxvorz1GpXhYAYFxUR6Nn5169/gLeLJBZr9UlUHd/YINoCR3ZPj2WEl9BoXdQRny0RLdjDnHq8nr2cxnFCLnw6bbDQO0fcx0rkvQwtIG7pxLbtAFWzn445jr8ItHTuI7KxtkffvJBrXZOO3syGUOiWtzi1U6HlZTyg7qQxtko9c/L+Cxf2ODYSctOtujGp31+eghOvKJO9MvO8kSOoFsiXPDMpUTHmh5gSlidWmgtRv9YFYZORoe0KJUC+kWxYPTGtPZfpCADVuYBTruPtDVNm3Qd93iZAlRNTt2AiBRWW1KUXGUm8d91dF5LFrxNzZwDnSQcz9ey83DMzZRDWZXLma6tU+tlAR9xR1wLGCKr88s0NIGNKGS8iAg2sP9vmlG0zQ3nJv7zzZIp7MU8eOxqDCX1h433+Jy6+X8ruMC/d1gt7jL+VqTU0th/r4MOHAiv2GDyB4fM1YauAQ9zUTPYST16/nYaAVRy9IpVjYAVchEA9aggZa9aGGDP2BRfPtw0/qPbdBA42+fDlL1B1Lyksd8IJVZ9IOoMSX64S/YIB0b8ejGdPpaVLvH0bNBcbwdZFDOxqmW06yXyZur7bFfy3wKDYmbkfPn53gHzX23AUyBG7jheKN4PMq2sIE2uT5geNXhbw02bQAhGVpnDkAWzMHBzH4hyQkWImiD1zw+FZTgb20QvaajN6ZERXF/FjAMLfsBoWnJUE8ndbrhuD4j6y+IVPnCNTIpo934UlVVPKkTky22bPA2zfi3PhS/soG0iA77btkg44Ay+2CEOTiYOSy0cDRXsoEqV7rBusFPVj9Q+BlNH9FSoy9ZNkDbklY2iA+Gl6PZCGMh3XrnbSxKRmdejDxxToE5ccsGuEpa0L2bZV38n9kgsxJ5UaDPdj/wtJCiBDwW2cEAiIpX2UO8cX1r7s+QscivPrde4tWe7sZa7sJgVDX9vodJaoO1khLe2LijTnNDC0KtK4gp321wFR9w1L9sg4pWJ0QybS1rehnolng2uOHagm0AK/4sh9n6kdPp278di5CFDaQ4V/t1bm874bbDAbSz78eNaldKKqRPFRjQUj+IBmNVv7LBm8I3bn1jg473N0bTv88HUT34am983Qrf9QNNyzuZk5cu+Os2kJXiWyvbURaRLHoMseN7rO3zdHrAdSXZoKOD48TKBjdW4MxANog3+5uwsEFx9pOubHAeRSpLAfHmqi/wfNBJb2W8+eBJurc2WPIrNlhsevG9hQ32+TQvGo921w7DlcenHcaoM/NkAB22gLFoNFN5l/QLG5Cqk2miOlh9MVXifvGwxcIGS3wbRPk6wEQgsp5sfO+4w+CjaV2UjPVrtQtA/LoNhvfGQy0jbuXldm4ujv2RJmMl1rn7ey6n5rByJ8dTGgbRjDF97f2yY2rOWj+W4Un0HEfRt5lckfvJ/4HWGquPzZHcrsXa/pMZU1p+9bayUwkLRblm0nwy40q+Dzb4ekT4imnLBkg0TJtLmQyabVX1Y14bakymgUaHqKj0oZn643V2yeRIykG6xovF37Db4PlyOYLED2p/1a/GoBUn7iDJ6zG8PxUgktJw7xRsnQsgpJCrQCAQCAQCgUAgEAgEAoFAIBAIfI9S/wPL1j+WkMBjqwAAAABJRU5ErkJggg==;" parent="1" vertex="1">
          <mxGeometry x="454.9976470588234" y="-30.996470588235354" width="387" height="82" as="geometry" />
        </mxCell>
        <mxCell id="1uWH6UvffxMvrlQ3iq2U-24" value="" style="shape=image;verticalLabelPosition=bottom;labelBackgroundColor=default;verticalAlign=top;aspect=fixed;imageAspect=0;image=data:image/png,iVBORw0KGgoAAAANSUhEUgAAAakAAABSCAMAAAGu1+uRAAAAAXNSR0IArs4c6QAAAARnQU1BAACxjwv8YQUAAABjUExURQAAAAAAAAAAAAAAAAAAAAAAAAAAAAAAAAAAAAAAAAAAAAAAAAAAAAAAAAAAAAAAAAAAAAAAAAAAAAAAAAAAAAAAAAAAAAAAAAAAAAAAAAAAAAAAAAAAAAAAAAAAAAAAAAAAAGZodN4AAAAgdFJOUwAIEBiHII8olzCfOKdAr0i3UL9Yx2DPaNdw33jngO/3Sq8erwAAAAlwSFlzAAAXEQAAFxEByibzPwAADVNJREFUeF7tnYuWojgQhgM02l5obRQvKJD3f8qtv6oSAqJNz/Sc2T2bb04rcklSlxShCIz5z1CWpTVlWx719wNluT9dea+QpmnCFR39E5pGvk/lusRerSkKWQNu5mDNLudlW975e4AlTGZMXukKAdXXsjhsh0K10/ryNjos8ve4kM8k9FfSsjUbY9bWrmUTQS5Ql4sC7ocdPLYpyYFgY7UzH4Vl+Jsz74e1tFfvWPaAz2TBR6FAPkRLQF1wq9r5hnoorZSqdT80zh1CsJNSDdVF9nJHRf6T9PFtpd+AItDbUhbxlcoiGJgbnhO4xl6/n0DB6IO+ZK/TjT6obPpaekez9A/uFjYFSGDkZqwNu50GvSdYqqsyOZX7jmpXCXm/Lfc5N5Y7G9VV2GJvtrQ+kI5ArzBmR0vSrIoaTf1UmkAFjUGbqU0WklC7WWt8JH+8UV+h80hjOf5LiT0qF60vtviuWKO0WrvkuG/J8cUCZ4JFWFi//EHnFkJ/BfRnG1mSKk4i6lAFkUjkj+I7HPd7Bb047NV9tHGjSE+wwu1FMUFiY4ClYURHf9ZgqMoLHhoVUMTSEOQiUdgAGZVQgKTwVLxxWaeybOncgOg7ropIRKwr/5BPSIpg1NLfl1XRXk4uEkYWJ6uiQXazbhqOXCwGQbW4KkkqqYQ+NexR/O0oFhPrCz5pS86hupB4iSruBYF1Y+SMtUZbqMllWbsGYXiFOvhAKAcrQ6lIvRRnbxKOC+ybUENJS9K+ITgjKp0rhY+E4dDq/iAnlXwRrMBPDOeAKS6kmzMdTTvS6ccfEMKlUfm1hXGCkw0c6rjCRUpDTZquiqCTDPYsIKF9VRW1nr/p7GjN1hsJTDRLqpIRgFa1RNvICFQVynoplRxuUjuox8PG9pIGSBMJ2ai7UL/Bl98YiUQikUhkDjpu+MSHXtb3Q4mQzz0NopDTwmBqT/vg5L6xGYad+LtPHRasS0o5tzus5YExcqkbs8RgpwmGC827fstX6w7qh9xP2WDYSVXzOJIYjs2HudttYgpas9nQBvpjcoxq0HD8racGghOS8kE9ejhW+rGJjOKq4GCXJPly+ALFVBjMcuuREjqbLanjjYbNAGsBsotA1l7kq2mhkCmpiqAtsoHQtBKT+9wjqGnQvyK7eKl4Iw5LMApL1XxOqpN+PwVHflJ5DWdBXVvWe7Pjy5SNM5VIldAOzqS7ihuRFpu5UoVAFWf1iqw2eVvSjw3cu4DwBcRyZZpmygFeQUfVfExD3SJoS1ucC7PQqyH0mdqNu90+3tfYVnAXbLmR1vd0ZYc+hktIpi/WIx6Yhltch4IlSKoNq29Ztt0aUh2Q6S4tXeC2WKgnyuzBRna2BRQnu+YdlZJ3tg46pfPAiSbm6+Wd9+Sy5AJ7lq1GhGECtqo4pWbJySEVW49LYuWGOz/CLcFCjp199XtySlJ/7fOlfb6Tox+4cmL2fvSJgrDxg0rDDcpIKvQyNHRnufEilZfjl6TSYEb7cfWNVsg/MnvxrRZ4NSjEI3t4S+dCI1hA27jA12/rnXIVSHWQKKANPcCZP0kG9ZRNxs5OB4M3apEgW6eh/aeRcD/B0yO+RTLjlBOJRCKRSCQSiUQikb9IMjHdSXJwD6z1ItYOc4X+Ktvdww5Zlc+vLzmhRcWF182ePmXAYMoVqEbX5E8YJEYlL3HWVSOQqljb5MqJLbrIXkHGrsyRd+I5BxNJhDAxcdrrJb7QWpmKJhfpvBxqU6/dOY9sjMv1tuH0iUeuSGqBE3+2Fik/WS6P8mUHWj5IgiTI6S655hzqQMphKoUwkUMK99tRXS3nvzi5gxSz5dSYqInQVLXLjbgE5ytENT7Z+zlIIjRDU19od7Ik8tAuwfnbQhFnOny9kpWuyePc+PeEyngnr/ugutSasy6KTx7hbNaskRj2nj0lVJhuniFUR4qkxg+E4pUmdR2JmCuUz6r5BHaecGK9kxsO6m0+TYlNhE+sYx02jYXqs6CECqUxQdAZvEKiKVU+mJuMnjnM9xNOmK+EKpAPRXqOU3Sl76TjaetOKC1eeaOYlVFT6vNroU4o/G2QsrN9yp5aDps4oXg1N4c+yjUvqCeiy4E+xToJJ0BRFpfnkvKZXeoNnU7Vq0Idd+bgPIsUgJZTz6bPOZYagP06nflzys3bCWFTWo1V2Px4D2MmECqH2yK+bESoZUsGyEkuajjH9a3m/lN4ReGa62vCwmFNrcHsKPxAvKIQ709+T/tUzY7EkWBDFg9mN2EzfLKiQmROrkfimE/5TkBCjW40SEgoWiop0RPt4IbGtFArNAhNhIFVKN9rngeKYxhQtMAzGkHLo/syfPK50NIdC2WogTFFdcnEYRHmnPuZCw0M2rv7Rbg+RUtoLhfrlOU3BR14lvspmiPvIVvY200DCz5ZKPyAY0ktwfEPYK/hzRPiHf5Yr89BWwKhwuYy1rzLOqpuoT73HaEc4Sosc7Dw95p46zeEoj/Zi4W6sEvcV/li1Z/3poQq2bvTxpIOrmgAnwXE5b8rVENtt2apYUk28y7+VhP/+mWhQIa7aEez7MdIHJNAgZDA8J22RO8sgcD9BkH3a6EwYZ9XXbQM9/vXhZKBFvU8J9QRI8iEDJBY3G8e0FtKyg22B0IN8EIF5hs0qmKX4FW52BjLOi51v7B6nlCPN7noVCmRY8EmWAQPEzG7kVABqC44pfp7bws++TbNMRjHhQff9dzKnzJew/LwnqAGEb/ArZvGj4PAqa+puD+7ZVeFvUW5SaOFL073SlC6u5QKKwyXC4uLNL8m1Np3mde2X8b30Z7Q0X1fjkQikUgkEolEIpFIJBKJRCKRSCQSifxPWL24VddT7Me3T1+z257DA1Yf13/xnahDoTdZZzBPXX+GrJM5J69J6nYwDe41SSuP0RrzDsmSe+cOTveje4u7mzGb7qYzAZStPc3zjNza+/Rbel6x6+wiME4dTOBM+/XTLXitrstdbx4r3eMMgW8wvsubW3n/lLDqLE9hJHahUrNucGf7+v7KD096a53ZJXddUqgBWafLYK/zD4yxOpthrZPkviQfTypQDqopZWF14kAPPGh3Zr+wMqutgeCp5WfCCWvFvWarC5Sj6Rj+hVy/RMLtIuo3XQBnu/3URX5snzhV+vuRs728P+1j2Z3Ul9U3tWXVkdqXg1cfCF7NE5aaGSyfWWrEy91WViZaNTxnw+/plD5bXeBnLdWz6HqH2Y7nlqRPaskx97SdmB/haDQ8bGybmepU6MTiZYc3EYT8Syy11zn2HzwJ8MFSPS/VJfwpS1F9OmnfXP2ZRLnao9mU7xoreigqPIi9sdZNAScXTdzb8hKoO+lGLwNZeXEDSz0QWmpQ/JAfsNRBtyXykIPf89FSr9SlHH/YUgerFli4hX0t37BE99Bfkr3F8wRPoUgfnsQSN519incaA2hYZP3hpYxf9KlR8SEDE3zabtLRebdse79OnVqvPM2LF3BwOmGpb6ir0wc8HB3ehvIbFK7r5lYcvukfsmlwwh+wu3dNegnbIy++6RmqMrtD9uWDWnhFdpeppvpODab6HUuNhgrO6YeIQZOtLUddIa3r1KwOJM9BnnUorMyyxlM+TsnfUNc2eLrjJ/BVb7UeOZkyzUBJ2aK7sGrz1j8GtmpJuwOJB6q8Wp65T+seoPNAGMZ8h9g8Wip0jLl96jl9Ta3t3yNkdu1afC79sG1lCgw4+b2tQ+ar68fRqtmhmKy13G2tvfZVN+Uazgby2l5LcZfPtg38Vk3g6RVcjLX7OErw+qv4QQTUr8HjrgVpqZ7Qfsx3LcWiuHPHKDKQ1j8mY/wcdd36oXt2/0D4SIPHJpbDS5z5oOr0rX2bituPTpK82ROty2yd7mr/6quQKaf/jqU8rk8N+cE+xbgZyoeiCC6FIHroCXR5rD45R12F9WP4q72wweuTrsDTneFF1zegqvnAyh41vONRLhmxjSyVra0Yh3zR1k/UMm2p0Qv/iJGoor/k2pfqLOUfm2B+2lLPGFqqZ466tN8BtxiM+56V/CWurKovPncxobdUWn1cGu3Bed0WK3tdtaP/N0GY1aceoRP00W4zGlrq/1/QWH42Zk1xbvj80x+2VPLOtb2wFH+/UtdftVRP1SL8GQyGVi2/onEIqVIvoXpo3QRO47sL/egeQunT6PdQvPIjllp1doH+Lvpc7bvtuE9/ra4/bikfXA/2Lt3nwVLXttTz7J3HqOnRduM4NsFEn8LLUx3nXoyAaUu94AcstazdEMnrM7l1tu4dco66/rilHi8/BpbalXeXvSNn86nJBuP0ffXSXF9YapreUsNz/VPGJkhr+zERn59aKt3aPtU80OeNBna6OEddgRWvds9NaMMRxfpr355CLsfH3PBKh5rf6kBkp4+DlJ7tG1zqHjqXWwD55AV/QMXRbsxDFMv2/IC5IucpAq4wDEEO/KcF+mTdM0ZBgXjiI+UwbTzy/MJdxc5RV3CJpfgA+TscJqsGu3r6jJB29v7oUK/4fHpu+Qt83ZvBdfplLb+grkgkEolEIpFIJBKJRCKRSCQSiUQiP4Yx/wB9tjfoB3KXDQAAAABJRU5ErkJggg==;" parent="1" vertex="1">
          <mxGeometry x="1094.9958823529414" y="180.0011764705883" width="425" height="82" as="geometry" />
        </mxCell>
        <mxCell id="1uWH6UvffxMvrlQ3iq2U-25" value="" style="shape=image;verticalLabelPosition=bottom;labelBackgroundColor=default;verticalAlign=top;aspect=fixed;imageAspect=0;image=data:image/png,iVBORw0KGgoAAAANSUhEUgAAAW0AAABRCAMAAAFZFzfkAAAAAXNSR0IArs4c6QAAAARnQU1BAACxjwv8YQUAAABjUExURQAAAAAAAAAAAAAAAAAAAAAAAAAAAAAAAAAAAAAAAAAAAAAAAAAAAAAAAAAAAAAAAAAAAAAAAAAAAAAAAAAAAAAAAAAAAAAAAAAAAAAAAAAAAAAAAAAAAAAAAAAAAAAAAAAAAGZodN4AAAAgdFJOUwAIEBiHII8olzCfOKdAr0i3UL9Yx2DPaNdw33jngO/3Sq8erwAAAAlwSFlzAAAXEQAAFxEByibzPwAADKVJREFUaEPtmwmXqyoSgEFjFhMTY0ejRpT//yunFkBUktt3eXPfmeE73WoUoSiKYlX866iqqYJDNZnfcAcPmv5Eh9c+RVHgfULS8Y4HCk4PCqEfqQuSikqLsqbrXuR0hnAFnzI8mJuMUlq8BD4IkImnWAaP/BGg+CuJB7hO7ueR7x6oWBEJ5VHyJaJvORQgGgw9N4HgN1+dW9Forega0Q86gZ04sxjoSGV/p4i8crWvUuA8IWPQ+IJ9mx/QZeTvMhfy0ZyBUqnWOQ5bTtZLOODauhz/9kzL0Y/kK6YbHCg1cAFLS6CT+8NAZ9GddA0n9Dl8awm6qluxh+DwfBQ7vAV8iR7qwMCmziYq9nyCoJBDDATh3cMg5AcrOECW4R1SBApGYoBvA9C9YeaN0ugpnzLxEA35VVLcxspNUNLJwfxAsPIi5ifgPbRknDN4EmtP5P8VdCDElzkjSo2vda2mSkbV3SDBUVifZc8zGjpSXAePfLY1UIETUav6CL+gZQPQ9yDgJiYThn3EmlSc8IROjXwje5GAHMs+GwQCtzaUnI0UD+SKPYpiLLqiQHk6bqrZV5GzwKYf0PTmKhMYCPyjFIeLOINrrEBjmw4jaFBCT6I44csgN/lQJR6goMmomPPgx02B4M4toxDc0VyDejJPLvZt5+pZbIgZQyQgvQmAJwwEHhBUabUfhKIArRw1u0uKG5RHbQpZD97HCDdxpyffbjYoxXLC+9AXpsIkUm5uuIBG0pgfN4JJtl5jG4QDa1C7gQ2yqhJXPGRMBht3f8dMPb6w5xeJRCKRfxV/zTNz+/9NTINyxc4KDtwAc4s7PUvgUS7HRSN/V3oZkppgbrM4pk1EE905Qx+u9571JvkfI7mR17ZLsOwMXszZYWa7WtH73UgzeeYYKBBL7B8dGaQKqm0gQ94TM2EmjuGOzwx20c6YReqTaAp+gi7TiS8d82xMlWBHb2pWHcfn4me9ldhKN8cEd6R4orqSK/4+zToqvkbW5jswthfEpCijJu5kvImU+rd7K75Nze9MJXouYHmB8fKM5v7kQH0dzUe6M8eUoqzYV1UYdoCYliU2T12G0CJhRaUv9ZIuaKLlTYmB+5zYu4PoFXfjubMIFm4eEhlOcc4aMhNkpoqZWFEDc0wPDn7TBdDwEEb28JzpP0rNcVKQDDubHHiPmqgbfeEhBTGXbo8JAaWZAEFYTGlNxeo2fDIxkdz5DWvT3kY15/yzlXBkFGGGpWSiFlKDJwDF7qZQ/SBbsUGBk9N8Q5Kf7TNzXp4sIDfZ82mca8bPyW24qhv+Og9g6iCJMZqrG4U60CjI6VyxUiy7+DkMh7R9hQ3b2LczcENGUtdYzKUeqD6cuD4gwzzWiEQikUgkEolEIv8ufmrS5W+xmDlgVmMSw4mGqjrrIIA35gT23owN4kahQuFQL8BESdBA0KNZxfuJLzOGowE6zxvczKDLH6obbg/Riea8mHZS/nI70KFMPHNDkwvb4jvwpJJOhZyzKLKABjecWjOEqypcOqsqHL03dGV4rDJfwuAYJYL/g+bJCMZMLllob01F014sdrFeuuLirG6gdm95j+9+Bx50Kjv29LIO0NyRz1UdUQz5zJZTcKuZPFrd4gIwYi/jxbE05BTnXZp5MO0mL7xpjbdQWJvN1CyBIjd9MDaSzIlqFqZYzgeK68K2c4ouJLaJCc1RX6QeVHt3K9SHxlwsZ8K2dJgYJkGTHgXrtoBKMnrbtwBvD19TgxiQoePSLNxsA6Hp9ZDYc0wdTmoJmpLhHSwPp7BToVywEMWuKAqc2qLprdwV17RfTvC4xOScnXLWDaRPddCS8jTiZ7GxkG9k1sUTw+PSM80PvvAFmrt5R4EqwwAUSBmTUFCEbGVmXs8ldvdrYannujQsZjFbDs61uqc63q7FxqqxBzHLF1R6nFNaLQx8MhMUGwtL6O5Q5Cw26VwNuPLMbmRiNUAt61EpJEtVQR1IK5NPIa9CejlyM+cIaztDqeaYxI6m8aXQXPtsRJZlYa8BsXNOrlCqsNqGCnYE/X8ZN/JUKtfQynBUdvLVao3AsrFewBWwaUdYbPLyc0xHnhPeFQ1ap3kVHxn0xzWGon6JmlT6gGit2KmGC9zj4JgtMih2japM3fTdxGLkbDdGbCMbxwSJ0Zk93tfAGvGi9GPfgkZSk0vAlRgWO5swHf1Ve9bliT2gegBv7UGyfK3VkGaPhttHASs2G7eLic7TxboyxJPVuwzgiQ3/JDb9gp8p2onFE9uYTu+11q4AWG7rvH4o9gGyOyaisbY5J+JfBgiIjezQdUGZL5pvyx0F5pcY11xKTTtItMlGUGyHFgXlfLw6M/45sa9UCeBlI/ZpxPJPsKaP83rCDNqjqUQIe2fioCGv0m5b+ZHYzNhO1vV9W2xPaRdVtGhoRxADxW7IEWTTttcJUUp6D2VPFo281Lq42iQv3Cljv101IbHlAyLKtHGY1rcCq0XPFbxYZth7naM96m1DbSK1gJnPFdNitjat2Wo72efm7VpXqPHPKo5EIpFIJBKJRCKRSCQSiUQikUjkf5biYZcmPnEYtt8CfItTbpcL5HoDze+jmstqI8Nnrkcvr/nFW0zbcl98c/LnaLS/QiKkU0riq+e63NrwmUtOq1vAoPtTgouE2TRVy68zPO7qqHX7IffppL3FL4taSv4j9rqkz/WJo3Yr8iHuOrCY9SvU6mYWeJnbdDRXCG5GMBsanp25Rwx7c0E048eSt4prSGbZnEuqQt3wdon95a0fbmm0XZxvNW1uIJT5Tgyptfma6i2lFzrpR1Km0tosqC+QKwv8E+T+Cl2h+5W0cnpf+DfdfXZAOepE9jYrO9yWkfX6WLx7rf6k7Z1d0RTu0zDE13YRWhD2KCavZuVsKyBQ6CWZL24/Xen+HndvG0s7rSry7c1yaX1JBK8jfyQddOcJnQ2qNxtVwnwtN8AtKLR2G59+TduHnnKaaX05na7jTqnqAZU49ErSDOtqq5rvtG3vcHrduQqT86YxwLgrNdXoLYOs17tBG1u5k6ZxRVLvpeimt14ESKY3W00BCWI4kb+r7YVMil+XA5lUV0KlLcaWVCjLxe6O1xi0CfWxLD9z0/YLwMmcB7ebdNTbzSWnUW++d/YJaFuWVSI6UzrIFRva998vP9r9W1dSarNNCPklbTPp1Jr0k0s722/S4kYsvNiNL26VqIG/gjZaFH2sqj009+Gq/mMKa9In3jUJYju7U7jtyyct9TUVF2836socAjk7NLi1dwM0PmO4KVNTmgS3EAEv7We0pw2YTK7ndtx3W8hW24Vp/c/Xca9UCbpEVQ7V/rkzxnTFT5nVE2ILSJ8Ht7B8A6ftxjhrNXfvFtpO1PioKWU1e05ox4/2y+yDyanO6YIMJsnJcNbd1cMDXUUNdWfcNDsdupHnupyZk7Z7sjb4tl075YZkAiptfEQ6qSIT5VTOYtR2/9QnCn+v5k9gtP00GzjB6C5YzMjeaVteXs6T7vQjzUndaeW7A2necpxhOGNcbG83EhrKxc7SBR1v/spH5509BtpzGsTXtiMgE6D6QleexV54cx0gF+3FwY3GfM7DT42iloC2k264HPyI7fXGk4j7MKHly1E/y2uwKQv4SND2yiLzsOkCpd2kvA9oD+zA+zYg142X76W2C/3w3JQvk7yAhWSzP+r6FnyxAcrDV6VuyGkvaT4PhT5jPUnNhW/g/uhS24majIJrPelLH07zt7SdjbO/7ja+G0Q0+52JfKHftbZ9ITYyedrOtXtRDqsSDjaG/C3DLzJr2/hvlMV0CZy202dzra3Fv/RV4ocs+RSqUmFtTw/vExmypZUnJ9TcTwRgwLzoJ0IHmXa0Wv6AtuV1KGA0wMmeXDfF8pe0PXN4cGWmDkyOPZQVhwq/BtrSuOhTaPxDQ7Jbu06tXOgbemAL0/u+tjcysbZfg6k9p7FJZTltDOCf1LbrZsPIit3jWtvntrdqmti/1pN2++U/Iwcr+mVhoZaiDzQDaQ9ttQl9XBvo97W9wfMkDFj/Y+vc/jltnwMj0p2n7Xs57GZDvjunmuLUlV64gDC1aYA619uQc4rP1adKjqyB2K8gxh30Ye4Z/pi2T4++FvIFo9Ry4RvlG23/OK9vCc9UZjcFZmXzl12s007KtlJdXS2aqw/f+eyUMp2+ohjpckcf3SBYTNQan8uPPdzn+DrjaH5a5fJkBnsh1uObFZnN2fnYH+c6dafhoq5MBS50aaJbwY9/hUP57uXsGeryAm3VvdfvvwPZvZGdkddOFHv6vGXN4TUX6vk3rDgSiUQikUgkEolEIpFIJBL57yHEfwDEFu7hgAMTCQAAAABJRU5ErkJggg==;" parent="1" vertex="1">
          <mxGeometry x="1105.0047058823532" y="339.0029411764707" width="365" height="81" as="geometry" />
        </mxCell>
        <mxCell id="1uWH6UvffxMvrlQ3iq2U-30" value="" style="shape=image;verticalLabelPosition=bottom;labelBackgroundColor=default;verticalAlign=top;aspect=fixed;imageAspect=0;image=data:image/png,iVBORw0KGgoAAAANSUhEUgAAAV4AAABSCAMAAAFcR3xxAAAAAXNSR0IArs4c6QAAAARnQU1BAACxjwv8YQUAAABjUExURQAAAAAAAAAAAAAAAAAAAAAAAAAAAAAAAAAAAAAAAAAAAAAAAAAAAAAAAAAAAAAAAAAAAAAAAAAAAAAAAAAAAAAAAAAAAAAAAAAAAAAAAAAAAAAAAAAAAAAAAAAAAAAAAAAAAGZodN4AAAAgdFJOUwAIEBiHII8olzCfOKdAr0i3UL9Yx2DPaNdw33jngO/3Sq8erwAAAAlwSFlzAAAXEQAAFxEByibzPwAAC3pJREFUaEPtmwmzoroSgBMUFxQXFEVlyf//la+3bMDRM2dm7n11K1+VgghJp9PpdBbU/ylGjkrVfFjyIaTcnehQlvBdlIfnSqknXgEGOQpVJSfGSMoaPnzzDT4POvMs6NvQXWqtCvh+NniuyoPC7BK/S451bKsLeW6vVJ9YH8TW/0uVRj+LsjyrSt2xEsQ0kGOYVFWV/JNq21a9heo0xD3Z8gFMTasznunJw4l/CKxxqY+MD0wvRwAMZcdnZDcTNoEXceRqgKo9whlUO7iOmcaM+XE2p9DtoEWQROBbAmOb8lSLDsCzCkGD7NmQBueYKAX6d8vuxqxQGgL/GrOBj1FrTDhXChNnrIHmtqxj0dDcv/BYkJCww3RBZHnY6vN0uvvWEmjecZdjIvGfAvuX0HtAaBE0Oiajq8DYzezlOANGEpYKHsRHo8cz1cCH4xH65lBEqYtt69Q/jmTB2OQEgQpxK02JaboGSw6UXBe5M0iRXSq5BUj3M+j79iIv+ygR/KXgDDwYiurExf8oO3Qe4r0jJw45Y1nwPuDZmQ7TJWcJJ5UBr9gqg0+/4C4qtlEvuH6ELh9TzkzGYkycZc9pMHRSQhTAYZ98QE3w3bM67fVRXCBdj4duhsJ1lepAXtA/RQjB80bqZ5Qufl3xhKIVvjVAnmH432yt1mJZCNQ3GxTe2toE0AA6g/X+KV127edckrR/GPTyozAZYKPBe4PoKpFIJBL/dQz0qLXZLlrsWs1Vaexfm5a7VfxI4OH6m0nHQwGCuUPPbaK+eeZGCwRFGUYAHgOd69sxlgD9V1UrDbdmrivjkRV8MEWbKpaLmIqRmRMJqts19fpnjhcC8GoA/9YQ9VggHui6Hj7Lyc0xeB8wyJFunpG3DqKlRkZpHAZBZAojwYtWxU4d+9qc5F8qfRS0OEFcGGg1tOFnvqHfzUtlNgxoNQ0LZWYllrcMwlGbr5UXgWt42c3sqAFtqRrwy4hY8twdA8jjQAooDehYhvhW3rXBkfAbbLZWDn4OAxq8wolM5EU50MTtb01KK7s9xJ+kQUqVHsb/X3g/fI4ZV5SzPQkKf4VATcxTrThUg5zOX8iLR37wfAWjHs4k27ZHcWiIEcsbHiGK5SfBiITyIPYIFunU/RVO3icNNwxpiPA51CAvT5f6q+EAgK4tr4F/mMrr/jw4Od1fPjT1eX6FlzeUAMFnM07g6sZlhfVwFmgsPZR0ASa5d3exClHejQy6LDl5jOpBwzaR7rFk3wOgRf9b6BTRJxKJRCKRSCQSv4WRAZqJl1HcuqiMDk527IELGFOyA37bERNxNn51do48HM2c4d7n/CJ4zBbndUyjBhyLLM1C1TDey8wOF6rba1U1MmJxg6ZuvDMGxj5luWrVQVUvGuMIt/HoyoPjvG4fLor1SxnsfUIG1pdwnRkfxE8Bha5FnV7eaM4JqS5KYzI3GEZCgS1u4KhpcSaEx2hhQngzy/u+Uu5rmofSuFbnRJ6VF/WPFFP9tjXP2BTHJ25TwE0sMa6wzJmTCCZ/bhsYyeN0VGeC4fmU3RYqrbyzLtw0EckLop0uYCJj/Xqcfo52VHzuvXpR46B5jzcP0bx2S1wLsn7W7wdWWKjOTlfcaCpoRr+BrenxPEQLkoD5weWh7I2of03bK8KxudPy0hbqYUvMkn5H3m20pogiQBZPbbKRvG52siwvth5I3qzZargI2oSfBqyLJ134Ty6RiGflzbwbaNgE5Y/vyAspSotTecETRPmcfjlnAu5jgmtw+wLM0V/Z80wfft1oWdfLS2IZTqTHurIqE3l7uX8ODVVpi1W7OscrOCF7A2M58GQO5czQTI+bv4NzLFGrGtBrs1Nr0ub5xVLhF02n4e08Pci1Y5VUgPvnagv4Wl7EyeummfAKVhrqt6QWP9FvIO+RGvSe7usq3AuktgWnOiMvz5VeXbt8L9scvIUJegZbZlcClFcQx0RwVboyVGyw1Hb21NrQmY/kBUKvxtPwdEr4GbnFh8lfL53nmdO0KMkr05tj/SJyjRZAerXFtmPQRWlU3lt5xfP6hkfLAcQh6tPn8PLy82WFyyb4LNov7SKzORO5zTe4dgGZsps6ewneyXsUzWp3u0+qDnu9Wby81BRWT2cFoT3AL5lIzm0uQcoFOdohKMFUXt9fODGXtq/8mbz+jAnkBdMk9Wyus/P3nF+4tEOn8HUww7iDZXHzet9frev6FXn9va5DFkjeJxlE6QKZ3cDG7YAM1pjGEvo4nxad0Ze3EWbANttw2PSQUMh3R8uP9uvz8KDdOkAUbyMASRewNUavr9Sv5M7HEHNJq0XYScv9szf+83z0TYlEIpFIJBKJRCKRSCQSiUQikfjL5NUq3Oeuqw2vu/2QmVW1X1lo8xP42dePZUP4Lv7foLiHU+u/wwlf30HqPZZtY38qtaIXkD15ATcMe1ltEDrTR9VR0briiNG2+zkOcqtpdIn5LgbjJRmxMryy/SOyrnuayesFQmHMCSvuOV5/+ikbc5U1WeAha+sOXLe8SrmRVj9l5a+QHUW1iSvBvy5t6eI3t+bIRZHrvsdU9bUuGmxSelbBmZlssnln60IG4ououJ1glrOhzSN/Tr1VA3JdV7K+tu1xvc39DHD5TdUbW9KP1Kv03uy1Pg22IWTXE8iwBQuW7C7SWJCrCX8RJ6j50MXNcGt9DdxFiyPOxu6q8Op9mP6rRvSRozRs/YSGmLd3aTK6GW2f+yX1iuGHfMNRlqZvI38H5XrNPrf60mm8I9QuJC6liHiYQtZIu552a1l+qN/FQtWy0kr2egi2uyG515xXL3uJgEC9UD25JBixGOlpMKNVZb1qvQeXDTHl7mQGefUwYGV3XUHW80Y4TV7p2+jKbnDb7SxV4JD/lHM48f6zeQbfMDA/8oRvrbc0dnNNxM2MvGW84+9yOyxbunGg1gn9CzNk+aqHYxN4l2qwJiAbVWeYbCjEt3fHHPqosbxuoWn9GfXqKxY7m3TsXI0n3i6447IS+0/q9fuGAnK3Q0kIyl9aj4Swxq6GLo11hCxa78gD9VZx9DJW797ulNVhZuvBFL5Vxe0rVm/ZT2vnG+wMboDF/XQTQGfHMEeX3zBRb6DR0hTS10Rc3qiXiAyypi1WkFNUROJlLs+bJFoaeh+dMG1Qx+Pka3xVk9mYxm3dBHJoVgfsEVdS6je82zP7AWuRlkhljFVvTlv0gFYCuiZW7wfrHUfFfPtCfgF333M94Ce4C9ebQyABeveyBtZr059JvsZNksJOKi6gbMxh3I3/aabqHQ0oAuu1WOuN+IFzQB4+FqiXQfO1+/yJLW5v/6BeYdw4hPNUuxGxf7CE8vwM3+AccQgh6tX3q8vMqvcSZv8z56AHu+dtC9nexfIY6/Q6G9b+XL213fUNlP7tcs/FNNQgIyBSmtjaLzK23hme/cngltl9VXGscTN4XELjHXzj+tJ6g43vSFz+i5QEI4wb/M6bDRX+NIm+gR+rt2gjk+lo8BtRjkJ4ov7GoOgD01gWsBJm5NBO40xmnUNNT84wKi6kJ2cR0HPxiS76Ut+CtyI831PvJHn9HDuGfBg1qb+n3mllB7528ZxzSrPqXdO+e4xbWaYXjxD0/nvjniZ4I+Aw28B95CLqXaMby8bOZ8JqaqswshjiabF/R73zePXmUcx5bvtIyMvVDPvv9c2d83Lra3tRyzml5V7r1novvfGh1yzgCKAHOIMvw4gHG9MG36jRbeCNgcvfUW+OOU6Yqhy8I7ldgn0vnbjY6Xwz0cZxywJcdDP3h3Cpbptu2XIy66KVkbC+zbjyo9Nk4Bw+AGFtdeoe5bgSFkO0qbrjgk+Yb0bfRg+znvDXWD9Xb2egLzOWEaDbAziQ1+YcNeLzu13ZJt5w/o45J05EUVf24e2fRCKRSCQSiUQikUgkEolEIvEJpf4H75vxwvd3C0sAAAAASUVORK5CYII=;fontSize=12;" parent="1" vertex="1">
          <mxGeometry x="428.9952941176473" y="729.0005882352941" width="350" height="82" as="geometry" />
        </mxCell>
        <mxCell id="1uWH6UvffxMvrlQ3iq2U-31" value="" style="shape=image;verticalLabelPosition=bottom;labelBackgroundColor=default;verticalAlign=top;aspect=fixed;imageAspect=0;image=data:image/png,iVBORw0KGgoAAAANSUhEUgAAAakAAABSCAMAAAGu1+uRAAAAAXNSR0IArs4c6QAAAARnQU1BAACxjwv8YQUAAABjUExURQAAAAAAAAAAAAAAAAAAAAAAAAAAAAAAAAAAAAAAAAAAAAAAAAAAAAAAAAAAAAAAAAAAAAAAAAAAAAAAAAAAAAAAAAAAAAAAAAAAAAAAAAAAAAAAAAAAAAAAAAAAAAAAAAAAAGZodN4AAAAgdFJOUwAIEBiHII8olzCfOKdAr0i3UL9Yx2DPaNdw33jngO/3Sq8erwAAAAlwSFlzAAAXEQAAFxEByibzPwAADvJJREFUeF7tnQl78ioThknctbGaGqsxGP7/r/yeWSAQY2vb823Xxf0eNQvbMAMMhPSY/ysq/a3xeaeDhr4I15gtvmfG6oWIvbnTT1VRdIoq0TQkRTO2tqbfywWmqTkgqPmoPe7bIRouOeMcnZyNraqCbhAUYsZHuAlOhU/GmIX+golCZv5bLE0LdVVQjzcvYwp/KGrEWUm/Zzkl1vQlsSp8I8TVmN2G75kjh6M0rB2iEGRMjkyBzQoh2CiVe0d3OQKsUuxVoYtsQGf6MgfTeJt7R9iTxsr8v0Nq7OTwKD9ilXHftIm7EjUDugKbAdLhyPFS7PGCz4mPYhampxvAIQ9JMrI4Tok7u6ibFewnbBPW6bp6fq5rKnNVbatqsMEHaxw6avSXH9ITM/R7rpGJj4KQlPjM1C3uohKcPaMYtrUWsRDqynmtveSPcF5oJ4UzS7u0aWdLafQ3JINGby4bU1tr0XI5UI/PlrLYUCvTAuGOVOYkKAnVBHhDQsBrz4uDbConrXMvATzVgcVnRTf1Bw7mPlImk/nPQX1B3Pbm+KzkMBDuk3/nO+AdPnKjizpJDcqe5ZjQwyJ98lkp67SH8rGqBgeOAwxQJgvNipIKyW3ScICGjMr3XT6rm5wGDvgHxllxr1YV91MNR5g6KVdV6HfpAJK25o1DPUDVsaOs0AlKz0iiaCVo1k3rs6LrIjodeanQ39std5N09UGqI4usSc6rA+Ww5ZHEmbJ2NcnrNQGpKld15oDr8NjeDY8GDTphDYEC0miCHhp98ENWGEQ4WYVr0melRVhXbm4+cUAJSkj+3tf1qa4xQh3QqXvfDAVfFMatPqoOGcu1gD+3WwxJZ5KfxwZOTuPT7x1lRQDUkZyDHlWHIixRNT4gZyX3J6RKshb72JXmRiOQQvOlqwYLabLrqYYfmZEEe5IValdnRzTOWrtYScyCZ29wTNCYaqkgCSD2QM6KRT1TKMqVTXCjJaGfoVCZTCaTyWS+BD5cdejNkj0z9yEerpu/X+CsdOTViMtLs2thYkAnHLtAPATT+sLRFXSFPj3NoCOWcA4+rL1jXF9rYlvyIBpyrBBlHfk9cvDhePmUEoeP+aQAMXBf+5K9hCt7sgTFhvdsFuTcaBqVeBZAFz0CLZdFviECy9V4f44+T0pBTkrTtOTzklQ30wyuEGBHR6TSgi1Rzs3yJangABLqE805xoRU4iIKvuqdlKI2FL+9OHeq9zqXmZJK1ycRmHzgkyheRRBdJVLxj0glV6B9TH4Qhz60bPOcdmYsL6MCKIEKg6wolpdKkhSXVNBsB6mQY1k4WmypHVnfoprPaSkKh/RJpdL4eqI/kKrZNXA6CbkU6YqZI2zB628v6CpUUchBDq5wqFkqWREaS7XQEiAHskiob2/srZrr1CrRFc0keg1Pl9B02Kmm5NWV5kccqa4YkWoLC0AMf4Olasmz/oIgVcCZNdcUZbuX9vSFriDRaW6OS1MvQjU2zUoOWQw+GnRlmhVnypUmtAVmsavytEHgK861kdYtdyAd5li4mEj1HQ1PSQiuwpWjembibGGSBx9Mr2ltcPjamhn6rvb4gbs9aUcIkhhT+tpboeqpHQ3Jkz0gZIH61wgbTHjJovnnLN2FT+slqQbbjYrAcLZH6Sg63wfOul4ncgI121VtSqdlPIaulOAknW+5xK035dmtj1JDn7Y2e6mDUsIixaEy16Fs4EdS/W8QtBuDiXyEnzrzWJDJZDKZTCaTyWQymX8jTlb1Dsk01e/FHKZrYRsVrcVN0PCaiKyoCLwKRNCegAg/gXXRo3BHqyO61hY9TR1tztOpt6P1jC9Zzmn54crrttX5/nS1le8TLpnUB5oLrZg4mtNz4R6XfAOUopUFW1mIRWj+Qti65u2PvkpVJscby45LTH6nn6GP0GiHUNSqmlxs1XDRQQpHArS4UK0o0HjFN/DGeR19LgT/ygkvDPvH8UlmZFJbaOlboVAFnzU+yKf31fONUGPzkwr2i9COthRw6KdCiSJ4adEt5CbCl5qFrnZf2ez50lELRhqmC98JtaUSHoqC1xX9kvnXQj0gd8jGZiuzlCZI154KVZS684QpTOfY0L35iVCWmoWsG3fSyo7UMKjlUnpftytaYLO2lx/bk/lPCRX1AO90G/hlSne0dl+7s0OhCrXiKaFkFXRmbYe7tSyVvcnuB6kYSU81JTtS+JKPj5qvWUiOKhcnQduLgU3sINSm5eToE0oUOOh20CBU9O1x5r4LQskatl/alaD69KFWW+bYkoQXinc8Ovq685UjJcNZa5GeUvJ6uNDsOM70Sr9kyPDjChALdTSXlvJvua9Us/FC+XAq1JFXmOVYfygI6lEQoTZDmxJoDVoayHdCDbvFEMuvFYr5oVT06aSVir0zHQl1oP4bJ3QLZe9GvTalSa3ig9ascVIiqDvXvBfK0folPUciNZBZ45gPpSCiqR3VilYOL3hfQgV8KxQhaQ21lrYpXR/3gQBrKn6ggUAzU76bXrIn6Dd+hBI9L6m6uhMDpkA6APMFiVzFLUIuyXciVPlkuPR4JdyDHXIbBZIYM9YU8OaHPFChB9rtFmL4XxZKCW0KUjY9EuI0OdP3E1WdCh5F0XRcQW8hQChrSXHSUXzVUwwFCEw9kYkCjdtUbfYwXJzIf8zEY6FIKA3oA1MS1FqWuLJdFLD3GYlLSF3iGzn8yvzMTLy16kKPBmu1dNreDYYCmK0WToVazHeNuS72ZgMfj1/OMIWl6l4ihSU/iuVwg1DIh6ueBWPHEN0LnWzOocYUyUK+fyaUaLOq5qz46adMCIQmwxy0cPrg6VihsZOAPOBX3fHJo65hNyDaWNq10Yh9hi4wEJFQFEcfSHO1WnkG+TtNSVsKIiVCISnKa9EuvTPl4UZxuJdvNOTsLO0sHILEQnlaXyiffMG9RWmusFgSKnoGGpfgl0Lp8B7gO+LrNXcvLJtWBCnoNDPbuxjvxsZSs1D6+E6B03J1NbV4cirs+iAyoXbIEtdwHSNJfi8UGxWjV5CAvMEgIKtL7MUmLy/MStNIJ2xb7ry0R35TA2KihlKIfzG70a5Pgk8xi1L97OuaX7gCx86pM8LU5PsRcfbPGI2bP8bn9SfiShsI80winPy1wJlMJpPJZDKZTCaTyWQymUwmk8lkMpn/IW7Lj/hZ0ce2GT8P/Y/yebj94/mPnoVV79M5bH6Y8W0eb+FMqZI8h4ebf2Dh9DFlsaZdPbO+8896F7L3cKBBwa7dhz5ZVU68NzNAfy/ugYmH209pwpP+snXr6CG78kohxlT3pEprp/uXEhM1ZuvoVWPi2oc3bavKOhdviB2w7hrX0E13CRKlu9fRU9G234f9C79l5vccEf0iOXWOntAf9ZixlVbkwld/e0+eyFa6JyyC/tLU6zSONzMqviZ+VogHvP0t6EH6ydE+X3BxabRt2P7UDJt1SCR90L7X/J8TJJ3zm/hQuXO0NS1suvg9mx4V+177clkqehNOB4KlP1ZSWojfaKr1r4AT80RT1TbaZvpyIR7ZhA3ppBDt5Si9WdSsnmrqQSTBxqESdr7UF7GQv2tqe5aCftI+8PXbSptvQ9v0En6gqQlGW1zHDH+kjaRvefe0MnPrwez/oCli1vMG7dCk0KYuHToSVPeKd+AdHDrVret2yEle6We2iaZsiF63tEtT6PUNBqHodE+Pb1q+fMXbM91+A3pvrcSSrGnjBfcMw2JUSWPiSipNMer7hdFQ/elUAiHVlGb05tDcd8luohcLkSbf1HPUdu1abi/pZp0iPX2pTYUCJm2qTXYanbXYR6eb93vawknvSoDROyOvsgkGMsHFBUvhSloh/6/N+RBtUo24O/qLLwMYo2PbgqYWKAfZb7N1c19dD7xYiHHyYOZOkqru/FTurh2cgH9OU1AIezCb4Im81Oa/ZNNTtuoJjdn0cgMDKXUUVN9u81hJcRm3iWkFhioQHjUVODr9SxwjflCICU11fsddnNX4LNFU5PtdR5oKmwjruI8MWyeLC27QQTX4K3/W1JpfzaLeYgwkK+NmEDqez280pdKlHF7TFNrw2pSWtSGEv9HEvFiIR02dw/tH4zalA//bmir77JbWLjFyNb/wKPzhrpuJQDbq5v7epoSkXMTI1kCopDXsmgjjch9r4bs29TDA8FXNrhG7IY6soCL2LcC3hZhOHu2R/vAs+zWVjExBxQkXfv+KeKop6qUDkUdRd05eJ7nxey3jahg0tZiYIr7OTzTlmZb1d72fvNmzwWQRtA6GbrkOMLdLCvZiIcbJv7V0dkA3gc5KGvmHk4nBIR7gS3f2tXhLNTWZS9qmEhG5/t4GNXqPgqVz97QyfkLikwrjDetSSeU1WJevpCIZ5H7X+7HFYXJK14quh9lv2XlL+7SXCzFOnim5wcLp57NJFV/dYnsQXa3RCvfuJo77VSM13EVGxOMUes4aDpjI+UWb+hsPbeqRxu3Pbj0zM/Z5wdLxmyo0bVfpiKdtKh5uxlVZ0EvNTb/iN7cOpKOiZ8lEU4OQLxZiUlMHnn6/qWcRNHUddDyj7vEY2ljR90hy3BskfN2mYv45TU3hZWhoFtCvRyWe7njgE0yT1twtuVC5z0VL/uysna157F/KfIg1dWUhf1KIUfLMktcoJgXVwXDW89Ty6HTdc8k3vAIm8/lvaGosGC4NQ8JyaolhupK2NP9aoDOWVd/Vu0jdxBb/wJyMlyl7mt8UJ105gRtG8JzuB4V4ZHYZLbE+RlzwfAU0Mgmay5TIK8AviG31/2XCJF66tYOM/y1NTRLJmkQu5u4Sjxq7LXztz3il4YG7DorFodts2u5j1HC+4FkhUjbdufi8t7eoB9YGNOAHKOXTL8r6flvfE05JvPSYf5um1HZHJA8KiE381pcOEdbO4aHpm8xF097Dn4aNaTo3eOBj1lJpN/9nLd+5Cw2eEpC/fyB8W4gx6Ap10rS4kjf5wHlmFsl04Nidgq19SElGXuitfrO3ClKlnkyg9mvAni74/3/DPsvxJywvdrqqhIV/r3aM3ZniNvX0cEVe41dJvkj5k4W2Xbt9sNAnbF33LGh4AOahv9eQyWQymUwmk8lkMplMJpPJZDKZTOaPGPMvZQ1ubdPPMJYAAAAASUVORK5CYII=;" parent="1" vertex="1">
          <mxGeometry x="425.0035294117649" y="807.9994117647059" width="425" height="82" as="geometry" />
        </mxCell>
        <mxCell id="1uWH6UvffxMvrlQ3iq2U-32" value="" style="shape=image;verticalLabelPosition=bottom;labelBackgroundColor=default;verticalAlign=top;aspect=fixed;imageAspect=0;image=data:image/png,iVBORw0KGgoAAAANSUhEUgAAAZIAAABRCAMAAAG4UODwAAAAAXNSR0IArs4c6QAAAARnQU1BAACxjwv8YQUAAABjUExURQAAAAAAAAAAAAAAAAAAAAAAAAAAAAAAAAAAAAAAAAAAAAAAAAAAAAAAAAAAAAAAAAAAAAAAAAAAAAAAAAAAAAAAAAAAAAAAAAAAAAAAAAAAAAAAAAAAAAAAAAAAAAAAAAAAAGZodN4AAAAgdFJOUwAIEBiHII8olzCfOKdAr0i3UL9Yx2DPaNdw33jngO/3Sq8erwAAAAlwSFlzAAAXEQAAFxEByibzPwAADtxJREFUeF7tnYuWoroShoOKtiheUFFRJO//lOevS0IC6HT32WevOWvlW9MiISSpVKVyITjm72emR2Ms/jL+tllXVUVf6CPHX1nQWc+xrOlQliWfMraqKAW9p1wbs+dzQdID1lLoqcV1a2zGubp87Da4g5HyWC7ljb/jpOGj3NPMzZLCEv8qa6py0YPjxJ9VdeAjEN15OvrgWxZluTGwqByJIBlnGmQAbFD1VgLoUim3sNUUpms5mJMi6BYcKtM9JIDwxvCkD2vu+y8+lXMHrCbx90PKPMvXuRwEbwIcxWsfVrXRr4S6DDWJGxzWAseBMyMz6o7wZvgGY4NTC7waIDtu26V5VRaWiqQ6U7Vt682MPRGRa1BZog0gEzW7MY2ZIwGy5RscLdk/7NuanMIeaFv0D86U4vTZVBIJudAtdiWhHDQGLWhuzYoSgOu8aCiX6sA30MdLj2E7RlnI4Zt8hw9uh/Zu7nSM6Wt5w8VsXetyzR8qoT7i4XPjL0RmFs41+IpuZhQ0LUsikfgDj33QwgA130EXVz76GPginaz4VtcedzMDB4mzByJH6TFhgnBHHCEaBLAnhCsFuPZg5yY+0/lIAB+EAHiZgj6CCwyldzDq3erSlpSJ8+Psm5q2bTAyoBv5ZvI+KDJu1LTgVaxkAg7lwsITwaNOQEXdqSTk90vOjf6QVCF9DBwavoggQSaIxJlob3G17bl21SiU3NFIKVBoS668pHRonAy//TI1+U3uJjgWCUL+GiecyQKRSmSCfofuobsm/P1TEhT4S4lIEo/+jtSHbEmWK12kishFuQNJMII7Qc4X3DYnE0KSUAe83KGUlkrttewiW7ai+E5YYZjJFw7ai694BBnDmTjk6nxu8rAbxWiOUtIzj2ZCkCRchdRFPT9lItVdrrR3kzT4E3du/cSIOzSySjQVlxpiUYWiX51Rv/ey0dgkkUgkEon/P2hE87Dr9ZOHQ7WZ07F5YvqLcQb96WzSD/yGXezcrM52yWOhcMWl0+UYhg+W42A0ATCoI9B1hxQ8F5UYbYtBIS1EFjKWq8vy+LHfxfT2cDFzZDvzReRCUx9PIS6UJSV8NIeMCSAw36fSYDwJaHLr5tW6/CA1Ive4g9C19bK1C57BA5p4syS5OSNbSFKWFPaOhcj/kkPL9TYhySWovCfXHK7oeIeLkxempBpTOTOu7RITfF9avdJoQRm5posblgqNr3LWUAK5rPwhhNS16RcbxmyvZu6uvzKegqynJCmDRCQEx1iSdYYvvEoBLI0RVyuKKiuEngmdTErCiLxfCFnK8PYzbijpU6DMMgqlEJmzjCShFkRDdpTDFxW1qGk89WhDOXJOI2onuB2zqzO1xw0ijyQhW4Wmw5BPOEk8jfmSyR5SuIrdf9BJK1VKH4eltM6Lj4I/sjlRBCOX3uhkvcZXOmvMy+VozQrTUliLxPqEl0Rcg+U5D9Pf215MFq8MemROyx/NUySxbqnLRe0luUiMSBJlzY1Bb3r6iaGleQO5DoQPLHUA2xEzcnKUplZY46fkhY3Sw8SJ1wmr8sLzyyfmRLqOKgmYeylHRpOpYUfV4qytyqGSWI5kz5nZFydL9s0TZCTSp/OXE/cuiUQikUgkEolEIvH/iq7UHN0KneKmwJnutri5+eR+Yl8HLtNK1FLXuhh+GHvqRit64bz0LFNhD69xac4HSuDl19f+vMtjTStituGlyLKwubnguLf7BvPZ17mqbpqCn4kX/TRfuJiHvfEaTlRgXjk7yNLYibYCHeUpuKysyQqLW2dycF7ljq/xnh0KUElQrFc07R8iD0XNJVxOolLTX4VyXFRVvSTx3iOXE9F/w0SdT6zZ8xxfYLEkIS0ef/bw+XAZZzrqiEduZpjuz1C8rTebSUlIZ8TBb8pSJA8KpUeqbpOVLFvQ0oROzt0c/a0kxRKa2ln3mJt1ShGsKfYwG8p7+3757rhCBuVRkvTGwZLgxvpUlguVxG866PFlJuzatKj2pqm4yGLdd2oUumBd6zrKhCQ5mwUv26HiIp2gFJAEOfHCEzJ5z5KzOfBn2zb8oHxCJ8FyzkyF0uWjvlC0lLPd85npZF2HPjWarADhNESDuLnEkuTcqqRhsCTG0Da09/S7yRjE389MM7OzgSSsXOGkuhtKsqai3rh6cUp2MF9yq5VG8pQGP6WTgSQLyYcvEVlRQufWVkO7jkBaXHtgXYQPBqi4LIm4Ks2TyNXhDCVhVWmYbKN7lS1McLBuKNXsbpLDhE5QpZQMozr5SIYqdHEu5CoZkoSsu4Hp7aQgWrHEmfKlXSsE5SGGCe1CaFc2Eqs0kIQ2USo1L01KPfSSaEIvJ8mzlu2SFXUuK96XQYa541ifF+y9JL6lkSSUK+lkoyu9/MmwTvoV9uBS4/WFfonWeSGJ2hTBEfMzS6VuAgFUZl70dzoJO40GNT0LG+lHXHXfnJmpKYskCteIoqX11tV+oVBL1ODVHKSZuF33ZXuYO3t/VnztpO0u+BxYF0kCx3Ok/h7989lmKE9zV4v9xDhCk3fsJkgSXXYPIo3aSUuFRfW75oEg1QQFsiSublBeGa1IRBfdS/JoT6KT9YYEITa0W4kac28z79DkgCyxH8/ktkn51E540BBGGklS95I8xY5zeTaqgUQviTo+uVdTEElQb/wAgyXpvDncTxSIfz+RhKthWXu3HVoXenD12Lnb7itkVy/JrJOKdGO1KUn0khz6rAEZAB1ZksxncsgypIIEfiJJn58QSIITTntRD9O7Gy+JNUfpEJ0AY0kyHRJNSAKcJPfMLFggYCngAJuEJB+7xjA5Z5oOluTJpblIywGr7hUl+DJtzR6DE3rYByYIcgWS8JBhn829JG7QY2GCVbDHXeDz+snPjQuaZjwf2/N8b/ZUBkiidv2OYXIEtQ8PaSKcVbgGwqBHWnOrWEkhZ10uIxVCXkjCCF/HMGauW0j5aZuRZ1cBnDBKznDU+RLOfMEhc7jNodX8tfzBehKJRCKRSCQSiUQikUgkEolEIpFIJP5F1nXhntYQWb2VNwl/ycSDkB88G5kt3IOn8hulyK990puvN9noI9wx88/lWrZ7FyFOInPBM/fFPeQCs6r9vAfiO1Ruv1G7oyx2/baKnbzR61lvEcFuZZOMY2k7fuzuiN4jdYSPX98yv1SIWjXyqPVgq+EOP2Fn3Q9hmaW99ZuMsltfkHAHFe/CmKC2tvu006qwJ5f23uouFOKG+8SGS036aYPHr7aW5+Rr98T45+yC/TXVxVSdfhXosTXK7nlmjT5hrrSeLzber9SMHmwWtFXnE7mtm6ZaXEPFzdy+kiF3yy/jMq+zMY+2PYpx7DvdUnXsrO0f84ZPWvsfsgG6nfUdtC9UKQc7XhX67RwiiIlUe36plPMZLaGmnUfEvkPecF1j6/E1PVZJXNxfqGSqcgrZoTtiZXnPFdN+q/WFBfqmSgoydK7o7Eb6D1WyftFGByZSie4hCVLNAn/2fS4vaYJZY/cmfz60/WX1aFPY91USNzMm3uoyxtIvJAhny61uZZ3Fvyy9Ze959l4wd+2zesl2TqWysgNL+Y1KLBKs6WNnqYZKVxrBGWykksLyXpEn7bQW0Fadnr4POrjIW+wGv+vgfnMJ9CrR6nvZMx9voUqQWB4nIaxik5/77W5CUDm5XGl0K+MyeDOcKGwfUNtKKieqaK2hnu+pJCqS1jE+xOAix9XL5/oSsEJ09gWFpQ6XqH7bmdSRgQ3obON8Dgk2o4J9bCVBIUPQI0YWmf9JJTu389H/pqVwsW43H+J0zln/EyqJijRWSd+9o5nS5swRXiWUeWmt3x77Q7IbFSsfOT2RqZY9SxvtrYivP6kkOOlR0/f8SSW7h9u43PmOg4Ap+18yWNZlrxI1IUfUslyBiV+rZEqs614dWQmnlUMlV4xRanv/ubcKKNXran2HoC8pJz2yE6RXSdBAS+veHIlYflbJ3OrvfIClbdYn2JuMMI7xcA6tzckLrYlKhlvdhFk/fn8Ge41/oxL4oYFK7vasRnzrf62ikKJdbL3nrLM9/07jbxnUWGz5glNJ7qqvod4P7GKV/KGV0MwjhO/N+2GtZ893hE6HOhaf1xnVxSqZ99oMedmbTjWj0fSUSiaKFKlkcy3r4OUIhW9dBKOgwmlnc9QylP9NcxmrZPRGWVw5wLWSiN85rtJeyz6xk4hWQeprNPDbD3okUsmqG5XUrB9m2Se/sf0YCGMS/UJ833E5TV7E7B+u8u2BtLNvnhiVVbyFtaoW1KouE3XzMyTpiOG4iVUye/S/VupUcvVNFwxGi47TZ5Vc7aa1hdpWYV9sXfPXfGXD9xtmnfXblRlSyeFEmhoRVPYjHIn+si9xt21oNL9+YbgbCp3bM047LmvDe/kjZ/47BjVGDN0gxr52B/++lZ3afhCMwTf9Mrnyu1by1WWtn076Tvvy7KJGAQcTT5Z8TMeoJRNVuCX9myphcyvsil6mIsPzt7W7a/cVqoPgDu9oyVHOZRf3hOP/KWJaA5yFznnVajShn3RcGKROE1UuGXzYe2CGPKGSTRepANUz6HG+pZI88sHvVRIVaetaib4S3N+2mBgAf9Ei4Y6Hhq2M2f8JlYxbSbAyNJ8ch0+qZE3va2UHv6D30NHH9lNPt4IcY5Xs7HHTiQ8jMBIfVvi3VFJEYe9VMoYdlxDcdrL64lbPs6aVKNLFWl91UJVEA/gf8lkl0/QqWUf+5PrSN5uE7HJGg9N+cRp6f7i1d+137naHyBfnAexDlBospDi+o5J7F7mZyr1tBeY/Ukn59bqJfaCzi9rAAdZ05OnSya0siEr6t29+DvzoBOOFqQN3IopbUKHprFPppemWQ09LzBedbSYaFXOniu1bCciWvbfZI/nXkVbkR0v1mATpN3MvoPhgZu+4809J9jRczbOS7MT+wbvsepUUsKrAcV86W7HZza5Uujzji3v9b2TAxZ6v5bL79QweNdb9/l7Pqr6/q3RmHz4nCxnpcBFND2Ex+NuUoxUGk7+iVrKhYXNM9JsFMfPHOMGY0DO/K3vPIXo7nH9wNppqJxKJRCKRSCQSiUQikUgkEonE/xBj/gPViU6YKbHRIAAAAABJRU5ErkJggg==;" parent="1" vertex="1">
          <mxGeometry x="428.99823529411753" y="896.0023529411766" width="402" height="81" as="geometry" />
        </mxCell>
        <mxCell id="1uWH6UvffxMvrlQ3iq2U-36" value="" style="shape=image;verticalLabelPosition=bottom;labelBackgroundColor=default;verticalAlign=top;aspect=fixed;imageAspect=0;image=data:image/png,iVBORw0KGgoAAAANSUhEUgAAAV4AAABRCAMAAAHa0w7fAAAAAXNSR0IArs4c6QAAAARnQU1BAACxjwv8YQUAAABjUExURQAAAAAAAAAAAAAAAAAAAAAAAAAAAAAAAAAAAAAAAAAAAAAAAAAAAAAAAAAAAAAAAAAAAAAAAAAAAAAAAAAAAAAAAAAAAAAAAAAAAAAAAAAAAAAAAAAAAAAAAAAAAAAAAAAAAGZodN4AAAAgdFJOUwAIEBiHII8olzCfOKdAr0i3UL9Yx2DPaNdw33jngO/3Sq8erwAAAAlwSFlzAAAXEQAAFxEByibzPwAAC4tJREFUaEPtmwuDojgSgBMQbVR80IKKAvn/v3LrlZBAdLr7dmf27vLNtCCGUKlUKpUH6l9FJkelOjlONAc5cex3Ix6qqqKvVUkH1fDBmH7FZ/BTXcuZMYZPCjiHAyU+0qkFc2NBKHsGLro0fuLET+mxjg0qG6oCKfenJ58tobqnxJ9VlUGt9VTpXBNmg9V6mYynrjP+iWpb7IEp4Z88z+HqU+p7TZ+aPlNd/yHQFKTRfvKB682ZSFW1jdrKFw+oMZ3zabvjo0+lnnATVq5Bz0FmNDMIr9kLmFyDNdVrzJEMbbI2C+ZEGNX0AJxdagSuoCHWCq/CpyTCD7x+vSu9fKQHZQzl3hl1lownicm6r0rd6BuKR2ds9CAzXXphxSwJcsV8IWdJKN4XxUO0db1HOUIrhA9zfpVxIvHfDfYmvnFjCwg6EuiHenWXL65dAND87I2R1uGcBNCDS8AkgRMr1Jm7RsT7BRJ+iPOLZPsBfw90A8i2aitMM4U/+LEHJ2bdzMAHuH5TpjT8NLp4odMF6FDvIi90vQA+gAQp0IeKSKIP+cZeowUHcqhmTrUkZUq6uu96OO3JWRql4YYbdOngjy4sFBf7hp6I7gEhreYX3CgPgTqQHl0YhX10HT9sNCgSwKeGP/7PuG7GQpUPKtz24MY7dMJcOXgH3dXC3wZPoHD8TX6DrPb4jVjEtYFRsVxHrSpXd3iRQxE2HSshHi+uHO/yZdeefcqVBx9YKTYanjDUf+wX5U8kEonE/zQGevOTydZbOB7NVu2or79UHXSrA3at3MUVLjKRUGKGKaGHDvuWdW2WYyYg5xzGjdLecA3741+DA5MOulvoB0snCN4JsRn3ppJNccJyIEt5i4FTPdXJ63WBqXf1uGUYDDUQ8R1OcgmAwATZRAacARfujOWwoqAoIq8dbyGStTKuR9/SRNdwz8Ng7SplZRr3DeI2CEyeWHHcq6/sgBo4vh15drm6yqwaBnBnOonI23sjaPtcK2/r1frR4H0M1J2EIoSTt4XyYsw4nu6FKkFiiWotrlxxKqsmlw5PSiwyyst1NpdXo2VD5HigUMveWfvzAhpsw4ZQ6lDXNwP3aHUsKfVniQGflgrBRiQYmYp4iZPXYdSFFQ3yntgG3+nXk9cbhmxJ6znPCiBOv3TkkD+4xCziyDmTvHSXHiaTZ1kR0FxhW4eXuYN+E1eC5E5yQ4Gzj6HGBseVM5fvyNtM8kpDcqC8n+QPstE1icOk14kj/EyCPbA6cSQ18ZyJzMJ9gIN8mJGVg0MZIaaNP4tv5IlEIpFIJBKJROIdhoc5+yEc59llnlIGv246fesvACEbHibiHbP5kdm415IZGh2O02iLMPGJmBl3nNcBmWmE2sGIqIHj3RQ4mMW/QXJxw5QuOmdTdmqv9uEaTP2Mj8VGGmBsRn8VRKnbNBHwDsPr7Kd8GnLR1APKh39WCZO8cpzAp+LPzxxUZyczkLgEFe/+gDsy2m/CbP0ZmdfA+H8zqPwThO7szXF5Uf/I05eI6Y49DkHLQocj1si4FMbfPPjEWRwv9YeoemYjc2gg2/OaGo9vAZYXRMM/e5FSBOhJOYZnGT78VVDAr27bInDe8G6Oxgwr1DBdg+p1d7a/mC7hQXTHh37EJhLTr1e1R1waBab5MDWgzosRLcLHBPIH0yulKnFqp6Qmqf21sXFW6BC2JQcY5xnkPY6TvKwCb8JoK2qb5O1UTr/kavBNdvOYJncAJ+8dJbrwqH4LNzS4borU/RWdzNLgHBmYkW1A97usBYf65XydbKBqsQMrr5v3QYZxch/PyQkiVl6aM2PxUDr4Ek6nHIO7QlAYK0pt56FYXrAO/OtEXnBtArVLqxKt6g36IgbdoWu2+qBKdy7JUeG0YrpSuaEZo1/N7i1x8rJkIi/aLWXMbdgmAki/03wjsnB6CKrJXpimM9WTslc5TfPuWdxyRfaE1KGyI1jVDbYeOEPAe7zohxClee0tJu8Ok5XSNhG2hw/J3lBLk87V2wZR/1LhgVKQqm9YdPhFy3Ssl2huv0BMXs7CM2drvyRvv0IR71ZOT145vsY9pGBl3J8YSpA54gf3sb688lxPXrnkOxvpxvUUUvjyrneqh9RkE8iP5K3IUT2nKvSEhNNOasrK60OFarzFFufJzos1IpCXXNL2NOX/M3mt3Vo8eaEcNLm8vcTdOUrgxVdekNGbcM3IPaYcpvDhZ/LOQw76hTPtnQSVbN4JwaSkZHSuOuiFdsZYz0OwvJsBLo6GK3PXouUR3awHWxJoUZCbGejeg5IcgzsO4jUsYAnTskCM6qTyrSi0NAaN8HPSbyKRSCQSiUQikUgkEolEIpFIJP6v6S9rfxm0addurv4H6GCZnpkvY7wjcw/Xb1eTv8vDfxvl8T7r86WJlOJnZLIhQOkWV1Xy8Wm1UbTeqyfIY4VrPvxGseNmbv4yXyFLAwG/WkjJRnwRmBiNKen1jOzJ6wVRyqox87Wct/Sm650R9eZ2faO/szH3N+vu30I/n1IwZJOP+GqW4wSay0VHxEdl37mxOqvDd1IKs1g+6WJrSi+40LaJvMv7AU/O/OJJjA/Z7PAlPtx+BijxhRfb72YpKqBPsm71d1COYLKbZy+ibnEDwW5YLyR3Wo2ol4/CD9VbdluoJd3KvjLd4qYvXZvLNrKeSjy+vgpWDN4mjStrGvKO7nHqzckz7PM3qnCJPokJ7MyQqabj15xA36O3sE58Q71+axC+0ox3ZqzGSWXX2+ZSv2uiDe+G+TVZfcLCbMzpUxf34Vod+/7UmkPEPei9CffQqayV4v4EMFW/IejR34oDNK4/8NQr3sPgy53A4KsXMoyqZNZZguNcGmXWDm4ht9xBG/bNaEE2vn5RLsheFuh1S9sKD5fPjcov/PZW2QbC7rpLZCU5a59+r/g9CrvxLMYeOiWxYlJvBc95b71r3KOzZDD2Liam3hX4JXjgBdNDrwYdVzmQ/41z6Q4vF/Ij2etnZyvrMUwvaZajlet8e1ACTf31HUq/RklAkFtt3m+Je82Ot/MtPAwZxkbeM1xRp8acI+pFqxD6cKODpfe2dSKL8uu97BoLqUbzYvfRyuRl/FnAUr3FwHWh+wEDn0ffr0h37Un6OQ01is3xo+/vVTXLWN9exzDvWLOrOYruPAaoSr9NOK1CYMYnL9S7ZsMPqd+rt3liJc+8nsooTjyBLNtFm73jjsV1sNfRY6HerX1+Zbb9tboc7pPMa3Eyb3eY9FLYH1HNKztQGeHU25uaVQaBJNF9x3oXUXGhKtuh2gwtnfTh+aJtsXaVaueFjmQPHJ+98b3smg12Ae3uW5Cv33UBXyGi3nldOvU6rPUG/NQ5IPMMl3Vs+bB+tHVDoIAg+2sLVThJf9ijP3XQ+/uCjgU90G/Qxub/gMpMO0Mt8pOFBdzZHViAaCML2vTvUK++TdHOwcR69UX2nnp7DEEZ3YZbv1V0mFF/Y1AUZ2G9wMwsIB4bxl4r7QZ1HJi1aAGTGlav1Gsjaiau3iUxf9gExrQy7dKAX6u3N1f3JR/mtv+PqTeGlZA6vu4+L0XUOQQNzycsLozqQ30zMBaWM/KiMQ9ZPGcx0mZYKniRPWv0eKPxBSoZ9Lha5v/7rNdrTqqJPTWu3usBClB0EPFwryRbsHc44v0CuRNkOx82EkVsEy/Y6lznc6g0/lze1sSGxH9GvXEm9Ta+Q8j3Jhj7ZNcbRFZfDct78aWfY6Q+7pcXlXQfQcOLIniEpck+xnW+A7d2uwZ1mP1D6n1wA56xkDeXYTBjB8U4hShtsViPXbSUBQzHXg5xdTM5U83jo/PFJoZ2/qQWUNQxd2LJa3PqX7cQCHfl7PPUPWy6gvZXj6eHmMPRTHu7A15J/kWOsx70RzwOTaw9O5p5MPIb2YF6z4dts+wq8wfEbYLu/wY1JBKJRCKRSCQSiUQikUgk/vUo9RfZ+vL+WfRdUQAAAABJRU5ErkJggg==;" parent="1" vertex="1">
          <mxGeometry x="459.9952941176473" y="1148.004117647059" width="350" height="81" as="geometry" />
        </mxCell>
        <mxCell id="1uWH6UvffxMvrlQ3iq2U-41" value="" style="shape=image;verticalLabelPosition=bottom;labelBackgroundColor=default;verticalAlign=top;aspect=fixed;imageAspect=0;image=data:image/png,iVBORw0KGgoAAAANSUhEUgAAATgAAABRCAMAAAEGKnroAAAAAXNSR0IArs4c6QAAAARnQU1BAACxjwv8YQUAAABjUExURQAAAAAAAAAAAAAAAAAAAAAAAAAAAAAAAAAAAAAAAAAAAAAAAAAAAAAAAAAAAAAAAAAAAAAAAAAAAAAAAAAAAAAAAAAAAAAAAAAAAAAAAAAAAAAAAAAAAAAAAAAAAAAAAAAAAGZodN4AAAAgdFJOUwAIEBiHII8olzCfOKdAr0i3UL9Yx2DPaNdw33jngO/3Sq8erwAAAAlwSFlzAAAXEQAAFxEByibzPwAACplJREFUaEPtm4eWozoSQIUxYGMDzoFGoP//yldJgWC3p6f3vN2zujOY0KIoSqVSRP2LZL1qE6W1vtGp3tFOKWNOp1MJm5yrSqmV4kQjqqpK1FpOGKN61VlBI3IjB8QNUtIFkA3/BToy/jyySA8bZJvmMzBbRjvIsRP+WENXZMhswFwhKJ1RVfuEv1z4GtKUtOsn6TTkekjFyTzVLuU9iANnaekk8vewWYWD7IEato6OOIXzAKWesldn2S8B+TtUVYNJgluBSrEL2espF8UtnUxLvjEGk3N2k8us4JLZ6hrTF+A0VhxeZk3bBPbnDJNPxVWqVA8WZDf+cXHAa0fXAXu+NoF1GPZZlgIBygnx0KUvOnSwYGPlRiL/LhvYbAUchINE9ragBiHZV8Tjsi0UKCdXX1hxaG0LkoFn5HhwBVFQe9BFrkpO0AyQI1+nBNClRGVVxSEJHkCQDC9Oyj9HqIHKnjnir2dbVSuJa0lj3/FKv2NxUDzxsqmOVVlVpADfNuJmjKZQiXVcQUUaA5EqNZTvE+rttKPr+O9YYfsEQtMQmpQga7JOW3h6AcKXtaMjkJnAYw9knotvVDmuPq554D7Qb1kcSirhBywDKSZxi8RBDJzJXBKHgDgMiqgdvYOx2cZAbkEszsiXMHpa17Pva92MzAugHIDeMpOTSCQS+Z8HIu6v4StuxzjyvmJj6yMXXaVXJueTyH/1gd5yhSQlVIP4l9PyO0niE8ZxqZzl0rsWMVYQWEdgLUp8qQR6m1Ap25tHFf2BWhL7Dn8f0KQwWKmMlKNkI1b89uZOu2nnARtJr0DFE9LDWwJIpNvijU9qUDvhih3rUI0l5a4iDmvACu1FAg3l7xY6QM3oce+grOjRGj3dc4W6vbmrPjQ5K0ewB1k12kNdan3LtW6hOddqQw0hqxzuNNhMk3fIxXTYqZS6dHtW9zvOZHX/Pqc1PMA2LrERWWvt+p3oDTd0B1J/Zrmn1rWBe+DQqJQNnZ712YtPjTpr1QeN3SWu8NYlvivfh7/X9qlQNGJ22YbtJ5Yjv6Qja7kF5YDQcnSY4V/4IhVBfTL14sBWAArGUZKSzSsiZ3sHXJBBlffKWVAACcnwLituhd1WOMmHt7mag+XA/lBAtxruIc8ArBS7d+Ao4An8iz1sbXDAKIe7MEi06cl1ISzBea2pFJwfoBj852Ko6ndDE5FIJBKJRCKRyHcsNHc/61O7mcrpSPlyC/okPW5qdQth03zWdCaoJzxmOeEUm6p0fXVWs6CBeu7ZBtjkue0j8yW7LagBXFlW8sBf7go0y+JDwDq12tI9JJvmkKET6Jn2LNfPFY8BYHJ+QKicywjieMMuB3GhX7Q3HwkXw1OSSzyx81lVaqAuHwK5hNokRt5sZIqEJa5wOAI74dxLfK0cwbMN2s6dj8cfFlZILOAc50x3Dw3ofOydL6dTlyRVmCXldODx9H42eTH4nnRjinfdanLvA84sjDucON8CbmjH+l0nGf3FcGfOPs0rhptVTvrgT3wAXm9Q4JnloZAhKFAvkWy1UqUPfkjRDYvA5qJcYA++gFjFcGvF1qJctQbpOCdCs8UHcRVwGj325NeQ+WhU68TDSuglnaq4nDB2eMEjFxLoSEO5sVvfsgirHO6s4jQsgOTgf3z7fPo7xJYCSYzu8eTSOPhpM06E8/Qn1IH/ADf0nE32dtwwA2iqH2HlcnQDc8+qPSmX1Oi+5QOfMplZeglK9i6jthCD21ZyORg1YnY2o+hsqlwwKAXK1Rw/K6231nIQTtaQ+vyd3+GoFs20UZGioSBgI+U+N+bE+fMyW4GZcoDL1juN8yj1AOexyhW4VsIsx+sQ8hWIgxmZpVpD0CgPRYWjNEA9qDPrK8pBZMORWeRD5eBWOsQ/snJFhztzlBHSN1ihrMKXDPnYpUNXl5NWOdj4yO4AKwO375Ujj06MynIZZ3qNFcpOfpGYOFdO+Fg5YclyQI4lCWS5odNlRCgbjs6Q31UOYx2N0IpyDVkixaDXm/FKvjHoc7ppwNa3rdrbB75WDrmv8SbyVmNrANqGUpYcOp5kNeKkqxYzZg8yMQLD84Di3bgwjUEXHG7MQOEYqA70soBcsCwOQ9pXAkjZgLVXDk585IQ4YBsCkUgkEolEIpFIJBKJRCKRSOS/mC+eF/Hsph/aTDnUn84PKVVNx0dzv2w2ZDpSaZE51E9oHq9nSD1F5yeL/5KtOYwNkQ4LprNj4UgusxGfsOpu49HY3eKc4ZWmpBb5xBxEcpM5TWHlHuyPgHqc6i/IaK6n8NbbmcmYPVgXJ+Uc/V4OkPXQv12P3JnxWv90GOYzcldZB1zKp6/2Q7/TTJOAs5aBdaEZeF6B2YPRxb3vMifPDKPbHv0rb3/D1jxwZqHtcM28GbLdkZeb5zJrVhvDizXSweXSXU9cYPPSbg0td96Yjb4Zk69szqQDzwp/mcEVmx8ZzlGGTtyYblIgUjeJMedsrq//+GcsfNV58LNAT+OUzGjy5bQctBY446IG4EZTtYw15t8ZDm7301SPbhKCj3alx4RnmajzZZL4j0mc2yx9DmtZ3XgpAHKBohBGPgaCVTijJBzDwrn0gE8NNxHvnr9xgat2ppAiqLsz+ByFyxk/nuJKBkMft5weIEUqwNtLwyWHDr8WYK7GrzkJGL1Z0rF+iC/gv2i4o7EZOci+o+CDQPCZFYZmeOF9v0HbSTHCQrX2nlw8sBkilX7R0szpnGWPG/GHhst6O3sOTMRX9qwxe9prkQNYUY7iBoFW1YHlktvnzYMxSSWRcQVCxUb4gbtwcWpkh4stbbvu8mUmbQxkS7ZeG8NV26gKKYN3t0ZpbBPvDDVIbehbG6hFqELRLU2fw76nHai2KN4aLukksGn33dvYcFk+yOKW0pfP0gxr/WaW/B3ZrEasgjjb24IShqhr3z0fppzUrcp/DCig2rlfI1hAHc7L/Hr6wAhLsc+ib4vqonhruKcrlMlB/mzWznDJ/m5NmJSmXu1pDUJ6GYLi9MfMb/0yzpZp8GZEcr10NovO0MQY6ufUfr9fVEfMi2qad5s09H97PCuq6t5TqwoC+712q1t+yF28AKpI8fHWG2vnmx5qm7ftYdrm1/e8xdzt9s5+4zfbS0m6hD2v3zUc7eFyAD9sbLhUD2IrbXpTt39pN6dwZW10DRbaXbkEpHvxq8rcpNwxtZk/f/xm8v6VuQQ+8R8xnLua2Tdxhiv0pXRd3rXZJ1vzlRx8k/5HTA23DavwjS+1hLOu4L979RQn+l5acIYLb/wbw43Ff2Y4z+4xUDpsSUE0rGcJPmdiuMx3gjAWTFYEfmK4Mb9uuAnecK755oLO1HBNd+NnsOGAuzHtuB/9OVqaAaXBvu69CyrnBJoGcij8xHDUdniOmi/OcE+zsZXTXQwHN9C+lbe+vTfcUQy3O8ydJzDc6nq7XH09eHRtllWOMTFcBf0pG1EUaTpr/mozQJ0pbUpP5drpzMMM/u5FAudq4IYNZdIIMWgpepy/+P3u8Go7aLR9kzXaF9GAtNG4FFfWD25LW7iz/Q0/s76M+zxhjfwzRhLux7nAdNZ4+zVWi2MU2XfPK162KopXgx7tKYhGkUgkEolEIpFIJBKJRP4fUOofa4/fqdkFRZgAAAAASUVORK5CYII=;" parent="1" vertex="1">
          <mxGeometry x="-450.0005882352941" y="732.5029411764707" width="312" height="81" as="geometry" />
        </mxCell>
        <mxCell id="1uWH6UvffxMvrlQ3iq2U-42" value="" style="shape=image;verticalLabelPosition=bottom;labelBackgroundColor=default;verticalAlign=top;aspect=fixed;imageAspect=0;image=data:image/png,iVBORw0KGgoAAAANSUhEUgAAAV4AAABSCAMAAAFcR3xxAAAAAXNSR0IArs4c6QAAAARnQU1BAACxjwv8YQUAAABjUExURQAAAAAAAAAAAAAAAAAAAAAAAAAAAAAAAAAAAAAAAAAAAAAAAAAAAAAAAAAAAAAAAAAAAAAAAAAAAAAAAAAAAAAAAAAAAAAAAAAAAAAAAAAAAAAAAAAAAAAAAAAAAAAAAAAAAGZodN4AAAAgdFJOUwAIEBiHII8olzCfOKdAr0i3UL9Yx2DPaNdw33jngO/3Sq8erwAAAAlwSFlzAAAXEQAAFxEByibzPwAADChJREFUaEPtm4mWqjgQQEHEBY0otojIkv//yqktG+LS/XrmzMzJfc82YpZKpVJZTf5F6GSfJP2+/6JPR/qL6HuSKSBRSm/lGUQGegomlQkgVdX0dd8f+37lPU02ScppbCqAyqgqnVyTRNETRkOWLQf9PIBSUSZ+5MjPWMCrB/gTtEPRXyQILa2+4I98ggbhpssSaJYGU1BkjQ0FjW+gOIZlsjVtKJGJARKAKVig8UNEjBLDnSdC5J8kl3fCmkWSnOAlrUqs5R2NKWkoCGlNq0G3fsoNbAEswctbcWevkgIC3nMAHFOb3DFksizk3QLOCd9AwI7iA/1ANgnWhm+qVkdVqKXKet1z/Ub6qwlINS9wBaYLkrYgcQX9guJZFUwkRhGguCMbdYudgoMYmtoydARITi61Qgn4KYHR4bsKdJkdXW+p4QXRUip+s8K/6JhDXUUi/3nQrxw46Psi1xXI4YRIB6LeKqF5rjiQURfrsUchGBU8EoLuy3bVHP7hMHeFjq+0gig7CJWXuazpGXTNDMR0gqYmsyBfQGusQw5uTcvz9sGr3bQeOV9yF+R7sAiNo+hMvossaauqGhPVH8D1oPfBWkKAHJWlRKcB+RaoxyvpqwdvCW/wUCVfSarUWd3gH6XH76uixJJbcpZ3cpQb/BNArQLthvLANLKhCZ5xljPyAlARqheIjZWCdFjfUNyAM3i8MwZQDywvEeR7APUWVDLKz7mhFqiEkBkze5ovPEVZMV8YSmR2MiMv6AH+7/EbGl5kZMSoJE8PuaYQhSIA7MHP8PFIYnBCKOBhmItEIpHI/5KNmcubOYxhoKF1ysWMO2YgAWiANsgzwxpXPLjgwC9KmyeOZ/gkpSUWw6N2aoeuOUwhd6XKjVI3vZThNDMZBQLs+77p9UBrRhBkq3cYgiE5h2FOQVVmVjIo7GqJ+ZQ0mSghTY6jOOaMaQwkby1zuFdQGYFcyWqFY3LjHrZce4RWWX5Jc/Jyyp7jljKwn3ASiAH6lqPQMwJKKLBG9cyU5BGcu/QHXq8e1kmxSFL+wHjyMkZe0HUg75GfszCgXcykkZmP5FGy6WGUIjMRgdHNad9D6W6oHk7V3Do7WxSrgSiwJlZq6yyWvp7qdyVf2vSosIJW5DBZ3NFHxgmbk74Ar03ngHl0pUHCG+1rVqSIVWNyPKtaa2pi0S/ujPIc/CN7APABpk1XuhT9TuQ9QxVcgodNghBMi1F52WISsdy2AYEzC4IRONIbec23FFnLLohkx9vBiCkPMME38g6k34yLuZpEj/IKOOP15B0oHcir4HUBmU9GXgbWOcDJ7Ekbl3nTZ2hSNR7N5hTwobw+LiZuen2OV+ocNjOKh5J6WBs3DQIL1UgkEolEIpFIJMKY4xvaJvDhVdoUs/Rae6sAumggTI9/3cRf+xsLGhYuPR8xW7TJ+zVmHbKyArMowWreYaJvnCR8ACNMhEjquwiNSyvcjSHwwwWXTuaoA5CcGzqEes6qT+isxUqSHHlhXfObDhco55aPgFx0lsR7hQwgEsaAF+5FpLAAhCUgvJZLDFBmF3nWjomabosFFKyUDe4q0FISy6Plq1kKboP9IahKfdCKtpigpAEFeSMvLcjgMcTiL3F7DEOkXy8+BRfeg5e45TlVOSPzBWt0a28PBTK4jN/IixQ9xKp5pWmizcr7JH0IasDbTkB4t8Xt0HgZ5Z/Yg2yvdM6Y8AEs+JMDWPMWeznJi7eKBEoOVUpfGTDbA+R6DuTVtJPYyS4EwoKccDuI+7GR7KW8SU3tQ6kAlOSAekBlVBjC/lHSO7CRPalwD2OeC6XmvacFFAYCH3xH5cQTnsib8nO7PUg7viaueKyOXNEdsl+eCrcBjPst78Cj2AI915K8GGW8ITnHzrrYDGsCL1b3hfdIIeoCHdVVdaaz8ivHA9JhgD8UD9HrkfwcyXvhNmUWzmvO748/o6LOgPJyryiHy0ib0YDbb8x6rGBykAeaavZgD/IlhcmdQyhDowN5D7RzLXiHuQVdDQI4z2fYOnE9TVYX6iigCevNXCGCe/AgL+C2iz17WIvlizVXVS3yLpqrmIrLYR68ezCgi+Zo9HfXrszgVSzNLi5/j+fnN7YTl+9rebHD4YdTcxD7dSlZv3t0EZ/KCy/ajGSpwOuW2BnQFBGXmEPo9apvyUuHJ22nR2xmkVdavu8LZw+VPJLbYs8w8nJOazOcm0QuMXcekpe7nftqTl7ZLk6WmK68yqxiXr/EN/XL0XszvTKJpok/llfgWzgbs4XKpYxKNdx8N3Y1yIfyou0PX7iRTP3CZGwSTRPjFZDa+rMkp15qzF9DRSYJeLJkH4pQ6VCjTe077/DtQ3nZLdAkeIs3hQRxSMYlWXjUvoqpAVguRkI/cktylwNDpn5nLeS1pongWbNtAfloC2jRUSKv5fVZGO2GU/C3uDlCcGPHYrOliGHWOXdet73ubfJHIpFIJBKJRCKRSCQSiUQikUjkn2dnzuZ+xLdOBn+EcnvZU8wGs7dtPcv0AssfcBonR8xbPuJ9zo339j9iO3jnFMiVj6mnjHiB45ELn4U9Jb0PxVRXejyQfOnlQc/tyIdKF02/Xn6KyYJR3SeH8M/IRv7hkiUb2wfB3NkTsAl+O7NYPTcXoJ7oM+2GGeNp+Ygo13wop+RYRnmXMJ6Q1vqIXSKv5VwWrzMhB93uczzh+aLjX2Qc+b3RjQnMtjZnkR/omk2v23L2aOYtO0qWgzUuar23/fZsKtUP0ohZJydYMwy6NQfOc6QdyFo07lcaaSdXSEpSC/NUvR8YTqn5WtqOxRb1HszPaqBE0/5a7vdcTLamHATMTHesdS3NUB0X+fD6ysArMhU6qh5autZ4aG+hI+XeXSxYQtGB9R29O2QTzvYUG9gGFzUEeyvvT9RrAQWBXyP1Ltqjq5m5wDHHrJMwHSBJj++7z/fwG1Q4cC9Bjlpu0/X9l67h8XoyVi2rd/LMFPC5eoPsHwaxLVos6mZjLRfYabGAGrWPWOt9MogZ9RZ87woabrYV3nK2p7fa3C6arb3Quw4H8Zo52Vrb8sD5SgNU2WrPOfyReoPsk3UzLq2K2yMVpqAmSDloNuBcy/2bxvR953sRrZssNd8w7Bxqbdw2uGj9OB79CNeySXIP3EA/lIm9v1LZu1MhYf3n+K56U/+8fpp93orjxa8kILT2ojCRD60doOSWHbGev8W77Zo/moBOWBrzuumam4yaz3bFXVOwGyi6Ekbpp/OlefX6I+9UvTe0kRF/lFlVX2JgZgCodYOW424UP2afmz5U6WO7OT+MlkS6melr6Vd/6bQeHycy2XF4NVp/zBatnioCcDGFtv34Yka0bX1zXSPdg9YnHhfY4EDhgWa4MiMxdDMY4VnJrN4UHnpqfusc5rIPqdB6s9Woa1akUW9+b5urrsljBEC7LpLtQ5/fftFviy3r9sdThxlautxG9I/rh/Veb6AZ0lun21VQ7IJl7sT14W3mCRn38u86B+ZV9icyNVIvUrKh+tabzKv3oY12h2FwN/mYSr9bZz2nk4baVWKzW+8XB4X23d52M9TBQmi9gq4Fo8DmrlznD3qvje0n+5l6hTnfU3BHrr07+uu+aYZAvf4HQfnqTc/7hhykbSVDH2jhe7TSqrWWxevBE/KLL/pll317vEHRlT/gAiN2+UUZXNwO6q+4IwODU/Avq3c9im2NMJRlJRib7pbY3KH1mnvFHoVTb+k6w++qV2So8NIjcPLzQoF9TCTDdKxGJuplLQUJf1e9h1GyzvQhdFihev0PQmC9lurROfyaerfaGzFLHew0fKbegN9X74SLm45e9S7cCQvVa5a5HvXDb5yQv9F6z4Ovv3qa72+rd+eGDJHDTEJLq+ZX6oVltl2Rp8PEFkL1ouJzmGjKUrk84YOgNQy/qd6F80n3ZFHzLHdZr1Sa3Ucnu/Co3sf5WYCys77jrq72XFChZSsCfywnOlmIWpWsQi96c+naatO+rFrWud4tV70JmEMv+03Q9fNlpw9+XovLEZZr5KRDKvcbC6b9+Z5OsnUtWPizsBXM5R+KrvSJB0LLmxlLen2jfwMsSiUU0M2uu2dQ3uYbAy5UQpfD+LWcX4HhLNnfnUDayY8SwXp/c94biUQikUgkEolEIpFIJBKJ/L9Jkr8ADSAPdUOKCnUAAAAASUVORK5CYII=;" parent="1" vertex="1">
          <mxGeometry x="-444.99529411764684" y="656.0029411764707" width="350" height="82" as="geometry" />
        </mxCell>
        <mxCell id="1uWH6UvffxMvrlQ3iq2U-45" value="" style="shape=image;verticalLabelPosition=bottom;labelBackgroundColor=default;verticalAlign=top;aspect=fixed;imageAspect=0;image=data:image/png,iVBORw0KGgoAAAANSUhEUgAAATgAAABSCAMAAAGAvghGAAAAAXNSR0IArs4c6QAAAARnQU1BAACxjwv8YQUAAABjUExURQAAAAAAAAAAAAAAAAAAAAAAAAAAAAAAAAAAAAAAAAAAAAAAAAAAAAAAAAAAAAAAAAAAAAAAAAAAAAAAAAAAAAAAAAAAAAAAAAAAAAAAAAAAAAAAAAAAAAAAAAAAAAAAAAAAAGZodN4AAAAgdFJOUwAIEBiHII8olzCfOKdAr0i3UL9Yx2DPaNdw33jngO/3Sq8erwAAAAlwSFlzAAAXEQAAFxEByibzPwAACp1JREFUaEPtmw23qioTgNWy0rbVpjQzUf7/r3znC0GyTu27z73rXYtnrfILcZgZGEBM/ktMMiaJ7vQ9SdJEwyH8AQc9ath30EFDu0kJSTq5boy5J0rRecEkOScvkxo3Hf6l8KMjxwipKJ2q1pAPnYODh3SRBSr4aYCPxD7zU4io9SYJTKKucB30DoCuPbtd4Vfnmc2IMPQYxJqkLmUHqfjqDv/Uhfaj6X4LqJCOXLYMWxiV7xvrTcBOeBebC8k1VVDL/FHPqCp6NPjPIUm+6JQ2+poVpWpVTxKiW0DORziPl7F1eUoNbQVkaJLvxFSSN/2hu6FPYUthDAlK5wESVPwtcDs4LJKUc2FPJwo6ADiPrQHZHRmcxHxWfBiJ/MdgzDzxblh52HMz+O1pT/Br8qwBQTA7+iswSmgNgR8p4Ad+z0ee83MiivKY7SzEW6gekWiYi8VcMZgg2GGYboTEPe0sZdcYs7FVu52aFPzDXsR+A3eY1EBwAzmp5RNgd1QApvS4V8ccn16hfk50VWulQYBGXZQ8Bzcm0SXkakAoUJhceIDaGomFUIaBouBkEml9ODuWrgPTYCyFA4i5CbRrPpXXykJzV6Edw+xSLJzNDneUl52IImB2YswAzNzzA+gGIJCdAh08yw6MdwQjkS5QxWc6y/uIdAFKSgDwtlTscaElIpFIJPJzegkXKYdFh22Cl9DS2hMNx+dX6eWajUzS2Bvzsj+8kkTbc1VtjlWlDDyIYtFNoqLEfAuHmm9jr4KcVTVWJ5NcMIwDYxjKrhQeE2O7QoDt57wTbOhJ84J33LNxD+IhClEMiYZbhlnW00CBH8wDFO5/XTF/Es0W6RPhCOjWaN3xiAy0BffvZaaFsMKtyBQyvnfCN1w4uIulssLhpgLBNPU95OSsn/YOBfS8XJGwW3I0tnfnd8J4qIbUogcyJozncMPCjZIcumRwtKF0PRxTH7O+Y2fFQB/igjs7K/AC371SDV5nsShl9nWw/vF1HkxHbuzMCn084iDCYUW6yGTHouZI7Avtwa+i23CPjFrPO0wzMGkOuii4+kmWD1uwy2QKK3gt4mIa+FHSJsnZF7L5RXgIioJ7Hwh3a6lQ94zGAQ3N3ACUn7d9QoYmxjQuXXAHHpLDEHh0hSdCZ1Mn6YA7bXDDU7ayXRjHvInf/BGzjD6tB5FIJBKJRCKR/3NsN3VL0+IerWwX6WX8gMj4LgsH5Y7CS43YQ9e5fUJmB1xu8My9+pvtsi8hfWsuEN9Z28nbBQ7SIRZpLjw4M2bg4+cMOc8SZDgGpemBhkdXPMpaz/r4tsx8cs9DshP9L40FasoCONG/knd0diztBqKLyAhzr3EoiT/QwopUUPIkQlLOpjPkYHpDCKOqujpuKpCS3ioAJhxO8XBs7wn/pnAOZSdZ+B3lfY3/R6crn+5s6kaEt0zTEQ8aLOhS6/n0J8LRYybhiBWZdofTOowdJCN9hRLUnorgwYFwMgan++kMCSQFsnXtT8KxWWHHlobIWtDZTAlOuMzAI+iow73kgFMGRUOe2sPQkKuHCFdx/hN0kqcAkOcVfI5MK5FT7XfgSlBVPMtNwu3I3niUJ+tJefuUSgenU1aHFQ69AhPT7Vqs88cmRMC5FJpa4vkiyqNBCVcD6YU4QtXFSSjIHob4WG76rZNcmpsjJBXhcNoBS6m0vopwqMuZcB9Dd9M/y7S+lJ2tqN6sEcApp+2RDITTdfhGK6lAXkmORyAcpbvhMQk3oj5wvmnAnWp6t/UKfpR10TXN05Wms7d6FcLuuTOEaK7mebPJrOrO6kJTknB0WwXOKfan/2XIPhjCMO8kpzpXj5P+6y8oL+74wpF38gtdANOmp0m4Dbuh53M1z9yAr3rCwfk3hJNfTU5aQZZ3MGZ+IpVXt2lu87nmNEiDjiaGbLg984VDv6PUPxWO06ypBYGHyewlCsvY+TbAZidbEg7Si+bsWW4hf0W4nH3LBuJH4TwwzCGSrRVOmD+MhGOzQkX5WDi874YJ0Rw25UvhPNCG1qzMznVuEBQin5qkNQmHouJML+2oV7WVxaFCnM30qiAnB0LkhEXOOlg4AXIwXggFprcZAEQL3ExZhnm/xjXcqW3hPmW25API/Iy8gBOJRCKRSCQSiUQikUgkEolE/gG3vz7Z9qMpwtl84L/B6RIoYneaT5+GpP30eudDtDHd4trNTYszxhb81NPN575NZb5eCd6VMtkutPZbqB9zM+5DXOJmHtatpv5DsnG2AuD8zgssQntL7pPkODjtFKZ35sOl2j9hP1NF1oyzYoS5dj81P7BiyTcDlGIcXKFO8o46a5VkvlHyyuuRL/Pc0gd6IfCCaf69xkKnJQp0C76TOKonb2hXSqkvFKHfkCTMZrAr1PXsu40HxU1vT35AUc1qTtr3Sg3GfndB4CtKMJ5VTdqb1q3nBrbjm7VqO47KtDe/TjINrQO3ZIW5SmUSGhM2Jg8obz2ENl+LVeBXFbeEMmHZKkXv9ZFiNGux5hp2QZ3BO5tcKXnzOCfvxpqr6nczluGLHo/CzD8pxfU7TivPslfGnva+4pjzq4pbnaUWZI05iHjKkzMga1p37WA2C41EJS+259RDg9awbVxWGnNyvi55li0IU4y8HggpWL/8pSsTZH9uxQS5rfTfk+/V8pGJZejFg4V+fKLhn2I/WwbyWeuaNSrLeS0MONp4WWzYFhS37zu5SbuokyljeqnkW32UwqTrryQxvMBFQwym5MZzlSD7ykabDJdgAdqFYx24Xh943C+Ra6uHzq7lwuZunPzi3nPp867MknoMF1lZgpJlejgUyUmKYMuyHQ/wtO/B+B9uIXv0EWPrEGssn46BZ4qzJvHitn5ocn4TCIlTLOCVgSvvk7uLfSGulRdEisEMYTsE2CU7Fqg7a1wCApR2vYKwNhe/UBtuNqHRpF5eoDjpZCxk7xS3Hm1FMOPXvaqup/Y4Ke4stRgpKX3mfRWUHmzr+A/59jpx/XyVA3Jue/SaHFopdZt1E7akk5sx3NH0pHWf2wu184sFTEMZVBUr7sg+tpg9Ka662JaOkcuT4ipDy0aQxuBHelCrXCBvDUStz7nakFBihKSdqeeRpH4lSdLzaR4O0zN101qlve/dFto4VBy51MRhrjj3QPoPPO7mrzl5rKpHdJh6uJE6ka7n2uEpbnqa3fUiqr908gMqs6annQ2GNCD3BNvi2h6guF/a3TmFa675Q8B+UKZtvfOi6xPFyY4QeBxEAQs+MFDcwW+rnrRxXoa5HQf9bcVxTrkdrVy89vrsnkhMiQRcFRzypuJm4dqGQsk/qKqDv/z6HcWJUv5dxZX9VG8wcni2Bt5R3CLQ9QiY3Rgobmdb6z168rd5sUx3UXFi+r+rOOtUIvPF10wV9hZ+rLg6KPtKU7tgbRQobsZqfFUwpzhucRhW2KQ4r+JYiXtfcdPVT9DmIA22PtrpilVzuBZJcTLh4OdRcbNR6yP76klvD0nhAdywBm0csTphzMbgPavVAculVmoH5WntCEg/aBW8Uo6IhQHQH8mcOTO/bwVj+e5B4tzIqlzHC8Ug1KH9I/u71z54QIPWvXaH+1N3qc3Fdpayx5lXv2sXiUQikUgkEolEIpFIJBJZJEn+B1+u6YZ3mYa/AAAAAElFTkSuQmCC;" parent="1" vertex="1">
          <mxGeometry x="-433.9976470588234" y="580.0029411764707" width="312" height="82" as="geometry" />
        </mxCell>
        <mxCell id="1uWH6UvffxMvrlQ3iq2U-47" value="" style="shape=image;verticalLabelPosition=bottom;labelBackgroundColor=default;verticalAlign=top;aspect=fixed;imageAspect=0;image=data:image/png,iVBORw0KGgoAAAANSUhEUgAAATgAAABRCAMAAAEGKnroAAAAAXNSR0IArs4c6QAAAARnQU1BAACxjwv8YQUAAABjUExURQAAAAAAAAAAAAAAAAAAAAAAAAAAAAAAAAAAAAAAAAAAAAAAAAAAAAAAAAAAAAAAAAAAAAAAAAAAAAAAAAAAAAAAAAAAAAAAAAAAAAAAAAAAAAAAAAAAAAAAAAAAAAAAAAAAAGZodN4AAAAgdFJOUwAIEBiHII8olzCfOKdAr0i3UL9Yx2DPaNdw33jngO/3Sq8erwAAAAlwSFlzAAAXEQAAFxEByibzPwAAC1tJREFUaEPtm2mDqrgShoMKNmhcEGxFlvz/X3nrrVRCQHTaMz1z50Oec1q2UKlUKntQ/0+MKunHmJ7Od6osjbrxbYATR4cfBAL0klGFxmnXdRel+dTRqC8KQWwLEh7IYRkjhv8plaiiJSVUxnfpbBYuskBBfz6PhhaZtw1vCR3bMiXTwtYrenajzDKqMyU9CfJte6YfygnOEfxAjlG4C1zArpETkAz0Q1GDEjk4hov8XVI5MshtYauSIz0skwPKyiSzf2R8yi96iYomRIH0tjOGJV0KKs17J8c+fUHZccwk5cjyCPI81A+ZuuxJHNcM8JaC7u84QKvWfFygo0qDpECQ+5OTvKDaxInj+ocfOqSqmKWcvDZxUkqCb47Qg01NB6eYQLfpbiTyH+Gb/ip7GhYdum1dm/6Otrl22CaUC6VvrANWePKt1mglCLlbmZx+j1Th0MkYjwQyuE+XYcXvYREX/Dzwg1JHN3vcRv3VqazrvIJX11gsiau7rrbiuBQi6bba0ytFNR3E0dPL1ZAIiDZUHVB1hTeMJugYUnabL0XNk4ZJcpaGtOB4h3VIRIMaZSP3DalGiTd4APEzWDynkxpQEmFwA9rRhbavQAzLx+vmQYI3JBUPoPi0YlmIwdfxmkLT8x7a4ZrFQQRqyNfi0BTPoYArvT/j+TnHFdXt9j5qRTosiyMXIF3O7D+oPW3WokGgHESjo1J65yTJ5WiI1YkMSCy4XSQSiUT+kOxLTqTG9SzV+lR1X5WhNzrTNVRZl6jltUYrySdan81dQoaIbC09ADSwwFCn4Q1lyaGSa1leq7LsDTUdrFUmA0Pfgxkx6r46nrlBY+Vwr3sUaXpb6KxTy2I7+Ty6EJwdFjslM1iPqeEGWEFDVcGeJkirOal+p9r7qBy/W9CQi85shGj/ADXyPLa2DaNLqIvLGeAdtsOEZEtrSi/VO9WNqtFjuVihIT58qyP1h6xyHadD24bXdVCccjhsyZqazeeU+pQVOl8cmeXYq6J1wyao3UqWpeqWl+21fKxEOcJnjz3ZlGWFtJK6pM6Nta7LoTxDubRnK1BINkfzRuG0QUg6YbPbpD2aM/s20eSPxprMWS7fqjP3z7int6wcEVrOCoMn4yr1NuQg+s04kYOSyNxOnYjIp6PnDh0PSaET1kOUazl64smJvBKsN84+UE5bG6AfSNZvpT8o8sajY0s3dldjqDRQNFo14gZsKBt4+gquJMxly1caeVWWVB1xti4U70gkEolEIpFI5F/A9/rn3eXlYRuPJG78DMMs0yrNC2QDDZcx2F5mJovHUsRZppJf47rVmZ/Ytmqu7JAHM/khJq3btUrKwk6IU7e70PdCk4oH+tW6X5oo0DIzL11yLP6Bxmn5kmwnKUFkWGrwawXCZFmNhtV1Tfpi1NrtWbkO/xtlRzwyXhByETHCt2Ug53R9RWZnI3KMJTHewNtHO/svSyMFj7hD6ppUoXCNXYBww+XKDlhOHCbE5mmOdRHhh8qNdC5X15y6L56OoZyVcXywnFnX3a3WyUZWR/xYfuB02kVYtQ3SxBl9DW58otwRY1avHLNj//nufWplkFyQz+dmvTphkOiVc/q5W7iwClg3wQ+CJJg5IZyrle8nmZTNVjopnIlAnrED2XgYN4K/9ygiuyuiCZUraFCqjS42WGUh3ATBlaS3GdkT0RxkoqlCyhl7/ZcUFTzG8HoJCi5pF+jmlbMTRXTRJ6Lc6izxsJWwlwM45XDAq/x6/VNlhJJcZ8CbtrDjTOqQ21gnYI0euHLLoYI85KUyxl5LcNiJlFtDnqHa8BIoRxlqNxCEGfYSEcu/4PZY+0o1mDWiorKrGpRsl62Er8jlDFkgk1KF2nKyk6K8fbFyXKZv9OLpijPeqPACGIPdcqLctufqZH01jTQcPlvtxCldnQPlxFQGE1sWn63Nes3yz1RarXK4wmyODeHkLsGVG0qPFYtU5uVXwoVV62O73dt5W68cHUWRy0vLEYHPpSeIaqmp+lg5+buwP/FWEyCRpNKEjcppMilaB7WmEuFEjz63qByf4smfKmfD3F3r75R7cggO19KhDZyhYTMDr5zjN5TTttA0bjH+lXIVe/dBmVXJM55WNNa0E66KKXHT1hXKoWyUJTWHHysHSjQkVMN5x3qpHHpG1ACbAxLzjVlhy5Ui01z/r6GAx/sJa8atEJdWlGQ7iVguLVsINnYrYhjXNwb74uK0o1S2RGpIJyqI0tpzQrHRYOQyKkeVECfFL0e4WdR/kh/VopFIJBKJRCKRSCQSiUQikUjkJfl02VLhQ8v37Hna8GN2m6dFyM1jHrn7/vJ45nnnT0i/3r/yFPvHMczIh9kKeDrMV9Vn3O2M64/IDNJTf+2qYXOsczuf28piQGkumCW3G1sdmJLOTSvT6GTw25N1l0muxn3xvEQhE9KO3vCnc3+D9TCTsDbtU/ZMJpgPE1MXt7ef6W5Mk9TGfkwHQ1Lg0qQcAR1x0JwR9pfJjUy2Cy9mt9PpwoJSN7eWC7a96cPCU8zWFcqnZZOfk5wyrArtzaY7UFZ7830bG2M+mC9rwsxP2q/mVsrN4f0ejO2dDFerdYM3e6StHFRn+sdouIAhVfsmPXd2HffYDM7kC+y09ctsUgLaYtFFf9NwT1y6hy7MnXUWkLS8H1yFkLRDN9FLuy3g74DhyLMzdcJSX2JOZDi6M/E4pjN61amzW+Zi0jemE852iZ3pFr9l+YcNB0h3OXMktbeN+9rA0s9Dopi7xUyizuTFb9NSYF1R7XnFi/nMcAFYKS0Mtiw0XVeaQ9f1vB5smYgPuBvZeEEavmjcftVwyYkUA5vBuEzbPBnOk/fjPpPkNiyFS6cpqwdbARzYp6g+qKiAQcazx4nfwbUL3MfaP4cKPzWZid+ayurf9ZKQvV+XpsicMRnecBTQm+bvtqtTWGtLbXchCOeWrmopmbXb6TRjljIYy/kLmTpX37KfYWo4tAVX/JI/9mtSwabNMgS7yubi/ZVsPQtKfT1zvUfYcvwex94mCJ8qS+2mqbqrXKbsqkJO62Gz2o/6zXgynCeTd/LhRKUxNJzl8tSSq/Sp1L0yXCc9ET3uLqxfl5xfYCd+DaQT1MsOQcI73yXoICXd0Aw3Z+aRcdeLZQxBhTXZU6G6UF5Q52RXU1PzbLiGv36f0AduvSzeGm51bZ0gclls8hnMwRtOV76tSW6261SNyq37v9qH9kO2Qc1QmZkXJHXVZ6xG+jWYdj+2Go4Fj8t2GymfxegEC4Z7rqyfby14XJoNz2MSwhsuNbK1SOuLsb1pUsRxN9XbbugLduZh37/24lRZkJg++N5z/X0111nROWc3zv3m5D3y2XDcyYKzaX1CT+fYoHP4a4Zjm6WGP11kyNn4UWA4X6+406CF1UHR+AAv1G1SWQUOt5JNbZuqqDlXjN8Ew1TSboWu/mS4Q/DVrvU47FJTl4Gyfmq4qXAw/MTjADkVH4Gz9r9lOImu8pvR0CXyMVrGPXtMurBbcEWDDTkFyVW6zrueajo23N3cOilan3vcTPx/x3CHwG4kfjZ2+YHhpqSD015dSBgMd6fu30rbPuOCxw1ct3PXxHkcNpm/whuONzUy7WDrjX/WcLmrOE1PhTFpxpELkjrP8E8N9/C9akLrB0YNw2mcS5oYDiSlnQ0IumPUUM4ChYjh1mF4wRvOpxGNg/04vAobh/dzFC+owxgL6bVdNuWh2yxMuxj/wTRDasxDzKila3M1bdmdAwOkG/KtYLsuWGdDI9MFO9O6digvjd+h+YQOiuhInbFwI69N0miR7x1+ickcR1Y+ntXlqY0/Yqm0bStbpvLyZm5lxm2GZ1dLX67zE3ML5C+/pllh52gkEolEIpFIJBKJRCKRCKHU/wBJxvagVDvV0wAAAABJRU5ErkJggg==;" parent="1" vertex="1">
          <mxGeometry x="6.9994117647058545" y="1002" width="312" height="81" as="geometry" />
        </mxCell>
        <mxCell id="1uWH6UvffxMvrlQ3iq2U-52" value="" style="shape=image;verticalLabelPosition=bottom;labelBackgroundColor=default;verticalAlign=top;aspect=fixed;imageAspect=0;image=data:image/png,iVBORw0KGgoAAAANSUhEUgAAAakAAABSCAMAAAGu1+uRAAAAAXNSR0IArs4c6QAAAARnQU1BAACxjwv8YQUAAABjUExURQAAAAAAAAAAAAAAAAAAAAAAAAAAAAAAAAAAAAAAAAAAAAAAAAAAAAAAAAAAAAAAAAAAAAAAAAAAAAAAAAAAAAAAAAAAAAAAAAAAAAAAAAAAAAAAAAAAAAAAAAAAAAAAAAAAAGZodN4AAAAgdFJOUwAIEBiHII8olzCfOKdAr0i3UL9Yx2DPaNdw33jngO/3Sq8erwAAAAlwSFlzAAAXEQAAFxEByibzPwAAEK5JREFUeF7tnYmSozqyhlmMd7xggzFlQO//lPfPRQsYV3WfOjcmZkJfdNkYtKVSSqWEoJP/Gk5rY0o62JXlyGdMlVdGDnv+BGXfmyTpOKBgetOPZWnK8kVnBw66Twz9uWhgjT8fLTUI0fcIYORs39LnmaKWPZ3aXRG+LJMhTcqMrjEbhGdstGSFzzVlhGgU2+Nzi/zHKfbQmLnToUkqU1V8NqnRmPjgidaAFsfHBP8uy0tJjaBMCpyipnjiiwCxKLEqGRJDFwMqalYckC+k9KFIXkiyo3Y0yC9pUvucjz0X/ZZYDQU7fGnri/x3Apui6qYvbQ32BHNLk3Sjx2hdDsPNQwyRjZeUnJ7ER0t+pzG2FZFFJGD1+JvpmzZ58REuAz4EFCSTXHyrbKkhGwM7OixZNtPmlAUlYxMSY9j3bB57pFd/8Rn0C0jWN32flpzXhvPqDvQJqQkkkVEy9/e80mQ0O8qroq4p19GhK3QR7XLc/2y/48JQUSSvB+WFvx2dFugMh1qQi2p4BRvP1+UTQ0355J9MIZfS5PzAl/xASqy7LtnyzwSi1axWMhocZlFfkUjk/wexhJXv5Bii3cgN7088TSJw4si7U7RnAz1iyxk6fMxIJhO2Z4eskDwsdg97Yci1tKRs3/ARugYHhFYDqBn0ZQYT2fc32KcOqZL1mgHrhAzIlw18EOc4jCUVRC34C2ZZjdELodniAi/VXq/SGDPPCnVDJSnguZzLJ+TJyfKWK/xJEuy62zQVOr8PsnK+EzLKYMExPFHtyLkJXLO1DCXsJImxzODq33JTnp/Q10gWFiYf6WBO0CcHZPXV2eFKvmkgsZ4esn/LikNRQUg4GqASGaAooEqV88DJaWDOoOeRFc0viDU8RSIYi4700+aq4KeReuBwckiFC7Iiue+SlQxOs6ygS64MmzSUskV5Z1KhndmhJac5j3cjbUDDTRGxK6q/3rV70pXA2VPuvboHyiwrbVwIWHMlVByf5LO9Ape23IVwQDJvteytZmUbPK5RdvYTaGOMRCKRSCTyPSuM5jzHpEHU3HWxYI+RtqDxOFxg0mHWz/iVOw/LjbgfDnIj5iEFk6xb9rGALtUS08AZLa0a9XXFW0IAHfqdq/AZ9jFSijNyIpQPORMsVZgVH1dvnsNuVUMCCRgER+zyxkezGHCy4OkiDyqieGpMmBXzQg03BlVOTtJ1RQGobPeTrAV/phEPTZ0nmnwkPTy5lGKzVKHbhhB7Wtq4yHKhrjbm5lr2dHpMVsFiBElF6nKF3evBGt99YbpqhKbaUCofuyMtItyAsqzJiwXk/trm8INUKCI5sXY5VDN+sbe5gcTX1dpNAVBuaZ6KROoRiTN5dEnWmSMltyV/sk1L9sxnUh2p9Yiu6KeX6noIJETBdT4ANnDxd9UeMwaQrOCP/igViiM5vyAEvp8P54IDn9GGFqGIjgKfZfrCS84qldQs4xJAdHGbNTjN5FQqWme6bIMMkKzvY0EathDmaNcUkUavc5mPUKOlgtavE3+/J3i9kOblWlBPXsE4JVMeIw3aJzBe3bFtgVYqOlV6qVgimweQiRTDYW681Id/t8qs6x909aAGlnJ3AZJqMMt2mfocnVROOj5VDzRtyXhWxpIcybJWnZ1aJRta7AOBVEAzuOhk/+Qy1JZB8DlUrC3Bjy1Qbou54HqQDhXZp4c5vtv19xSNXXvdj9qbOzOINaWytmOQCCCp9jdVQ8lzQF7+Ve4201KWpYvXoBIHUp2/l4pxafLBbNixSbr5bFACAaWcR/qWqZCLFKpXJZc8vSibP0gjEolEIpFIJBKJRCL/FFllAJUJl41o2cHe1LZU04Ulj+GZ3Uhzxhl8L3rObQjS0RUPUMpsfIIJb5JudC0EVLI96yO0dEirb7QAlCNdyZBm0DyL9kuAukQE6ecllem2fLpCUrabILbnkvNOKebu9y0WwcIIaFCuK++H5Tk3/hUVUpQTdiH3IxSgkSK/Dpifu9ULLqXktKU9BM2tbEy2k8IHPLjaXg2X0rTJTg7umO8vqhYJ+DS8JFRmy4P2YCTZwPf5+/41JrecA4zrK7WftzIscWhJqA0nm9FqCsXimEFOrCnZKTDB0E62K68jBMvrLoXkMq3W9KgX+MMLVfIO1oCS1mlp3+qG1rINCbXOqQSZJvwTBkVOpbHsUfElHXLMoKOwUO+Kz9cImV3SMw6DhUnETnUxc1qEE1LgM/zhhXpOg8kyjXEtePuEUBx6c5eon4CGCOqAVOQNVTRF4PsGErPc2BUjCkHWJDXc3uwy5TjiLPR0rid54ZhXFXdW124VlBaHr+hVpnr5LZ1IzxuFHs23QS41KinVeOmmqOTuAwgzWsBQwP1e2m4DGdO6LOsXLc3RGjF60jHJ+ABc5ZTsRVGhdlsrzJlsjgPn+GbB065vaeF4mzFH4A8vVOtsm3IeJUZvGpYGmkobMdeS4Ue4j/DOUKBt7SytCPmlbRnEr/VmhKBCbWsRKnvVaEGvBzUuktsULS99362kKhRH46j84YUys72YzsgUyW6XVFW/7lDv55TWOiXr7+mhA1o9FqE67QnE5eIXEgdZSOTMSK10QwIFYaG2LS5mQ1LQDRUpaJ76raMZgpp139/QJEWoHd0eQyV5oarJrQJv9SujdW3NIxL4M6Go8YhQJ7feDYLIe5sL56Ey03XVFAZVWyhX0MzahOn9Evor96TN1Ic9FslDak3wWcvRwRRVxr0btWrC8XMJXCahCHu/APUq2JSL7mbDuNysoVChHiPVDG9y8rXfJQ+3juwMBf/xyjwOXVg57bHdl/YMElUKTVlbYvZjsCPxnRK1STd8872hJXzCpy1HF/I4vhdKFr2fcr/RC3UNhurvhVpT1ws77VwoHqd222SzNvebT3WRlIx61fLOc2so5ukxvXgMaH56YqYpqJN8swsKpwUlIUZ/T/JboVIZedXeETYbPcqu3Ke+Hmx3/MVF+LLcPPFCyRcIIr9pyt54EqF2+xcVqCFPiwtaUDEx/NIxYy0OnVGhgAjFN5wJPyoEhoJ+omdYQwF8qkuMfCfZhlGhkJFWsDQn5k0oi9MUqtPwDSvEPxu60YXx4t1VpBP+pAjlxt3MPf91TGpKA0Jy5aF5/6lQD75a8ACBirYm5ck+Qx7cD/xOqIeeKu3ko4O1p29+FqGYPKYGKPC0gW+COU5m7ASjkdRW1qL/uaa4FqS2kmLksFlFY45wg9Ot7GmLry1GSM2ZXrvWtZyeU123MnyiCdr6YFgoOQQ4urthlmmpGaedFQWVpWKVriw/CEW4wnDivqsy7OYRZCUZalch7DD+BX8S/BSOWDLfg6CuoHoiEolEIpFIJBKJRCKRSCQSiUQikUgk8j9IXU7vFQXs9J5V5m8cLXP9y1tYSR7eBLtOb8p94nM538hre7PtT/hRPOUxv3PnKOqPl/4ph3vrdmoplaG9cqB/y22vD1QX5jW7rzvDpcFsRn7Y9jvWpnU3E6+mq9zzkd8wjJXbiPIDa9P0+Wlhe8lp6X1/hRmnu6Ym0K4e5mQu5w+NpTADP7o9gXYB/YlcH+nNwLXaH6UIlW7qeJrXChWcj7LL6BOTjWYWSSPrWJ+1WXz9YUg6+q1HD962otRmT6W69me9q16eB31D481vG/6RgaL0xj2f63jJFowphbz1dM6Od3p0RsTJB3PUvU9CZU5pksn7IAp5L+ra3OuksJot59sW/pqska3aadtRNqqpnvfOCbbl2B09hdvqELypNUmOvF+FGMxdj3ZZF7zZ4BPNy1mntVmp6P3F3PE5j62KSofgJQY/sGUBe7uvKHm5zUad7r6YsJlItUjW8EYJeoWB2iTbcJo7RBFNHaTN5c3IW2h+rynPhdJiTWUNvb1N0Xe1LbIsk+2X0J6Z7X1eYjvmsA0tunYR1P8t7FwebSVbeV0IszamsRkucJU9wF5T/AoHZlFTMAJ69IHUWvO9GVU8P1R0EIY1lY+2/GitKPQvNHV+G4juW6nlmzz4L+Sjbo/aW3vj+9QHrKZWphFBUn4XglKPuuFHWdMjCiRH1tB27528GKD6YNQl74d7+0CmL8lzzJPfaA1BUxspDWuq6C7ZsqZW348ne35pOOqlMlUGrcnbShxn88WaKl7B4EyvAPhVn0JNuuT2g5idjjb0gtYMfC19GdnO2JiBv+mBjZcegdHQixuoWesJINavMdYIttT9XLvYG9e6CUS95CSHvkSYNudeVvOnaRysqdK/JuI6bzaz5DHQytYw6lM6Oummts2ypqphvZB5jjqpJR68zvJutrYIVwxZU39VxynnfDC/tH5bY5+52c+e/NlPH4goOlEcYfeuEemwbCp2nTa9dyZVmTaPmvpqIEf6NbTrwbSy05TJvIdKeV/p1UTKmh8fCJhqKh+2Wto/tX6ZeW7s1tVFbl012acNMjRwM5x2zy238rWhLfUVOR9F02gD/KWmUKX63Ztj125tsyaB9QCkK9O+mcr0cj9A0TIITMkvwzeOWViVBwzAoaYO+/HCCcJe3CAqqKiEne3PoH9iAOAtu8Q42bIPJpqilyD9pabWGAFXH92VqrMdK6CZufXap5Sn6UiEX2vK0nOfulZGt7VbTW367oI6kx8TTPhYnmdzbyZazV/saYMb17xHq8lqql7Xti6LxrQsnqULRecG/ZCx9Cl7k4mF5L/gOU40VZLhHuFvd2bAzwVNnblCm0VvBizXRJBMNvQZaar2LThraaT/FzS141KJpkC25wll2KdQPu7VU+ZDOShP3d3Qo38BmJjN7WrQ6MHc+mEMkEd7glATTQlHasf5+9xnnvxMU5qNGPt3TeXiwacvifQG/c8Sb4Q18YQ7wn3q2U0bMmUNN/r+nWH9nrXMWLbBI167ddc2U03pQchEU/mjar+oEE7jlre29FlT5bZ9nWoV8Io5t9PPgqbSBp2/eR9RfqUpVRTa6+u1WKU/1URKm/XF+n35x253j+0d0jxCM/G35C+dWl7gQZSPNdy09osknfUpbT0hQfmCqvmNpjy7CzmEEFwN54KmkuR0pwcZ5/xGU4dgvn+nYr3xU00c6fEtHaeGS3GBV3Hpeb30rR7+jrWbOnTNyTS9V/pMU3oQMulTjv7d+v2dptIbtCT+XEbuE4cNNXW4a5nz19L6xw+a8sCGTDWVXiQzBZ7AJCHmh5p4sjGeehTKrzR1Ht28ZAehJ275TFNLLPrnP/epOV5Tt7baet/88DKVLZ7VVLH3rX5tvvJuseFPmGgq6yeDx0RTx/n6ZIop5LzPyojdDDLpVNxjP1dxRP5tTZ1Hu4QAqvnIPNEUwQ1cZNn150W3j/iHmqq1PpX0ielkMFBAU8WzMy83d9q08gKJ3UvM5GesplbTrsZ0/um049JQn2H23szkoQFo7EtJ7DRevt7mL/9+n9r7p65OfjE7WQ8jbO/oLyLr1WBOk+GwoLletdCge+1wAZ88XqUmETJXH5tVZ+7WrVBoRf/lu0PdjL1rYxnG6nH/eawudU23csvGHnksjvy0hVmh8EUSdG7F6NrMKgKWAOrsJtPvRU2xmL9l89Ys+3GlVXGrhsvXh3qAPx1oWNjP1wzKnxbTa5vIaWz2X+4Juwmp1fZ5OD2dfbQcvrsBdtBqu9Gi4owVVV7+PqufkGrlbLZDw+7tAvXgV8tI5IX7JnXgrUQikUgkEolEIpFIJBKJRCKRSCQS+WuS5P8Ak+ZCh/sUCeQAAAAASUVORK5CYII=;" parent="1" vertex="1">
          <mxGeometry x="-18.004117647058564" y="-194.9958823529412" width="425" height="82" as="geometry" />
        </mxCell>
        <mxCell id="1uWH6UvffxMvrlQ3iq2U-53" value="" style="shape=image;verticalLabelPosition=bottom;labelBackgroundColor=default;verticalAlign=top;aspect=fixed;imageAspect=0;image=data:image/png,iVBORw0KGgoAAAANSUhEUgAAAYMAAABRCAMAAAFwPAomAAAAAXNSR0IArs4c6QAAAARnQU1BAACxjwv8YQUAAABjUExURQAAAAAAAAAAAAAAAAAAAAAAAAAAAAAAAAAAAAAAAAAAAAAAAAAAAAAAAAAAAAAAAAAAAAAAAAAAAAAAAAAAAAAAAAAAAAAAAAAAAAAAAAAAAAAAAAAAAAAAAAAAAAAAAAAAAGZodN4AAAAgdFJOUwAIEBiHII8olzCfOKdAr0i3UL9Yx2DPaNdw33jngO/3Sq8erwAAAAlwSFlzAAAXEQAAFxEByibzPwAADj9JREFUaEPtm4mSqsgShlnEBcUFlVYEqfd/ysk/M2sBse1zzty5MxH1RagIteVSe5H8e8lSY+Sqrgf8mLpeFnxDkKfmzD+gMnTvyQ9a/O8QmmNU+JgcP1v6aLpJkiIGKNytJFniq0pShOMks97c+Qk429hBjJP+coxbsuCLyD/D1ZTJRVxlWddO7+wBuYHJp9gwPb6CCFXV5rhib/Nc8cVexhEcrf277fsvveTUsgtfC+leL7RIcNBkw1eRfxdsFaru+BmcYzgHIXDd4ULd6iA/EuZM3xt7h3iQ8fUyxJjGXmnDYZKSf+F8FedO3uZbOiRSddaRNwWFx59zxcjdELOqUaBLD6QE0kYagn44ZZQVv0DuP1f0AM8r/saHc6bPmJQi8HOuGAK1zXWNC6kTZ3F6pCFwKi1u4J7NQdL2oRxc3mWyEk1J68+XFn5wOWvDa58dTlA//j2+0M6TQEf6Ee1GIpF5qKmSjonHMrYNoxtu3EPX0i1KuyRhiR2+zMrWQfqmVswkN/4XYhJuHwhuNtDWUJNh2wDqNHsa5nH/TdWVekpbpwnpN7k56nl0Rs/GXfEIO6ZTdoiHPHFXkvI5kHxoROV2iwc9p14NdHfaS2uyaBV5nKCIuvAQDfk0B43UcVvdi0Jb6WOS5Eu0OYIj7PdovA1LCRVT+dFKX5CD6J4ecQ43uk3qH5AlJRjoBU2fHxxbuORr+rAZkJnYCuW25ZUyU6peBmRKNwifw7K/9X0jgT00+DHsTz4HDOHrOshhJd0SMdaSENr21ZGQrLVMDp+yYy+RAVBqhq8RTnMQtOtFDlJGUdsrMBBFq1ldue2x3dDQbKGMjWFnoPG+GwhYwXrXa8EE4YAwEolEIpH/N4Y6SIxI0EG29MVTxrLmoUdPAzIOxNBDdKaGF8cCEJOQnhdzrmR1xFCHJqwgWJ0TOOCxb9q1XTQrC/qP/OqS8pReucbYg7rSzvft37JcoyDSOd/WlBSGTxChCQZYXNRmKoAbANjBA1HIPbmjEgoYDtA09hCGTrIyKRongtGxHSXDg2M/JphlNXB4jBCQ00BaPl2gOVYfviqzTRZXuaqq441+GyoBIshIKaeIKED/pE+P0SD97zDkwoiaUBEqJwqXXkVY4q75YqHpsqcBuQuX+8Wrb8lgTHOUYZnETuFbBCXXdw0vmjCZHUIJIkK+okisdS6UpFBglDqxQihCepdxFd/aZih40kEDUIIdoJ94EDoaUr6DhnFIaktlpd8sTa4SF7hsk56XOgAbGnmhvtAlhWGtSwB25DMP48UuPdL4ouoFv0yLheEhasXhNHkWAY+B3svs2LNYBNVxHmiZom0v5qpJXhfsN4BvbLnWadLOBawj8YMNVZlgvKoD8LdWsCH01qsIR66CfElfGRXtPXf2t260rHOl1kHRPIC7tCJY5MEpCGoH7SMRPHQ7xYq9eyQihFpjRmK+Zc8Nnrj74mSjn6h+gYfZu9bBaamfE6GA2dObuXCbauvMMzmY1q9xM1VStEmuExB9xCJsefG7GKQaUWSqE2ZdLX9Yp/8IOx+KRCKRSCQSiUQikX8HctyHuBq7GgUMTQexGhZylRUX2dMKWOl9WXVh3GYRUbiNUqVz6WZHo1PKIKtelqd4EolzIrfvZstgSVNNrJtceQWiSZY8o8TUUhaD/NoTQlBZ991kbrbALJHgUshcUSa/soJ39ks3As9W235v6t6qzyT3vseWJU9pOcsUwUj4dKLHGdoH6Szj8jVaFikN5yTxKbe6vrV1RxPY8QISMZDgWHJBGD0JJrFkYq2reR6RgC+VwxXbgVjvoYipmvJaJg8yxEt2bzCQYKUHX6B6+ogN+BbDVppRiS1M8OS9BBlul8+xBFRKylBtsPfrN5JMadcAvmWfX/tMFmDv9FMgA87En35UP6OP2D7VRycKx37F+ckax5wEV462EediH3HIspvaQJbe+r6qDrKcPHfQyVPzAk5FhkP5Nqh08OH2Tl/ixvdbcqDUiEVZVeZAF4brpl2iMVRCdl987aXaykqerKFeVAK7VCaCWQlwQBQ74VMJwM8caIdglWZS6RrNJsjkIZZhNmGlVAnSJSTAFb7YTvp/YoOJBNBJg68khatKDHDYUNq48KvA7ujaLFjurgbxiErEX0hBKZnsEZ4UKEcL+yrBEyXkS3z9UAJd6ZS1UT5hlmA9FrQSi5BEPq6fMmSD0mxVgurJPsE0dcGLcSBXA7B+cAQDrDZcQs4MWb+TQINLuPKoIbh0lAH+qJxJbZvvm178wJc24kXUt0AC6tckf1C6SpR1sj9AjSZc3S1LSwm5IX3yYw4tOpBVbHiZX/U+1UF7a/XLEnBgv7ZJDbzgl+bfQT5WSXtVdeJFrxI8jql1BvfU1mT74B40W/IosAEhXrQ8y20OMZJALu29LtlJ20ACmO5bGQ709Ey1lXRk64FdTq6qI0uwhjq+l4DUIK2QIGWfk4Dg2zyaeGuDAseBkoLHFxRoUc8cPbJww3xvTIOe0ErA38B7kd1lcjtMExu0ob8WUthvJDhwDxJKIBtodA/uL1WgwY/T3Du4GEftiKwEqg6qyYEENiUvn6APwgPkpZRgLIEDt8VgoQTYrQN+IzLlzvlgBX+DKMYWSiV4JJmOMyspCvggQdkf/CasBvlGAhl/hhKskw1b0e/kilHXsr/3Fs4r5zpIPe9ao9fY1qW820FEArx3CWYlYCf8MnKmLPdbQ4Opn6PN3CzHbW2Ya21vOMkjd1vLpw7sTlQVisuX9dW3cEltjyeFu+vRNmbpRtdVqLAQGkOVrpAL026cark6rsN+HND0wPp8q52NSfLGWerIh/qOmu9o1vK/QpX2B9imPxKJRCKRSCQSiUQikUgkEolEIpHIf4PrZXHye1EjDnUp+xO7h9s3n+WbNOZpvoIthazdP2Zi529TrD5tQN/W57kgq8siSDPt1m92UOf3xc5dKQ8+5f6JvB56Ed+mdLVvZa7b+2SvpbIbrK09oJb6fbcQlwZTDKYNNj5nOJtdsAdJyc+puzJyiOCFzpjhm/1nou1sgnpcrbofjTHNoqq8iHezztL9WncPPUsKaffISOLjTqOsdSf0ZD6J95mjwftUSVLKrvBVFX0yLQt2JykXUpq9kbcAe3eWpDHuYEfoLpJG0Rr42Zd5fq+hJKm70eacP7K4MG5fPSlwsMniT8RMHsziQ7fDo6rmi9PZDU2Un32rD/fMHfmTt19XmuvOl/APKNaigM2AYwFqg0fgyl/a8vT2tUOnpNIE8uS6S19VC1PqVV50+tbeN5zNNsk0Auj8QQ/Ceuqf2oAPWobxxuwGEr4wfBbjZm74aeVEZGPwPnEAv/5cI3yy3kMB6Z/WA8/KUCPANsjbvfdvKph4fWfkcGpYD2Z9ytYlHPv8pB+S4ClvbzqmR3eF37FBPvA5Lcv2vQ3u/LazJjWuB/qPyAc2ClAzMQ0l7SvRL7G5PYLuBO5WkMuy/lAxTvow7Qa56nG0mRkpaeOtZVEbpHvbkOYtH8QQtkEDA/ZmQFUp+FAYcCZem85HK4w9zEl0cjCTOY9tME2e8Jqf2mCnHkyNOozwwQaeXl9Q/xvggx1CxZ4yQg50HOUYKdXMVi7qepDzpczNmD26Kv3rIe/QK8EdaqOcQiX1gwju3dmZ2Ncn4qf1YJI8CGygwggXSInAp2En7xyz3C+82GD5aoLl7tUXf0Z6gQZBNZaE/o9y3j6DnrWVw0zpnW41wSH+gOtwnIyqHGMlLS6qw3/EBp27Cl8IXx6tz9P1pNhbK8ekXZthrMDfgGywLU2n/fPYBhvqlrQrCGhMk+9mnIRGgF09axhhpKTdw+rwsw2CP79sg/zRLkiZvt32NkgbGnM4G/Cx2oDW3IIWGxTPML9cj7z+ISky0XqQ03CYE1UbFOvueE3nmkQqrRZ7RHp/Xk7aUjOHztgXCtRfHFWSUU1yNrDtvbGN/cJ0fjLoZidg1gaaqkOLVy0Hc5GJQWCusB4QgQ3k1zIJl2R1MBxnwiHk77Llcvm2KGO5R23RVaWaMLXBtmyX0zaNVCPzD8fUUVUx2U1PXm6dzUbcjT0mTDzljDezHOcYJo/247leOYud/EHE9zbQZJXxIK1o92edJFmooqyNnen+Jkuxonez9LTuusd5bIMP9aC4N5cHdxiTloEwgc+CNzYgPUhHt5/vYfbh7PmnbVHGkxMXeu8V+jv14P50amjdSx7cvFFlpyHI1Cd/SN7peOVqFv0OI92b6HJSD/xo2EFTKX0cMhpCMj+2QXK4UdbbOXsTAx/IVX5qA8GGznSoB365HvRt8F6efx8xt7mz1n6HtUuLhlvdMmg0Jjb4UA88n+vB6unPnIMwxnXoX+IL11Fu39hgmjxhQ5fBiep3Npjcp/8zyg3atNWLxX+Na7DY1bl3qYSJDS7wCXscXmheZAWfbTBlFKM0N1POuVQbVoPvbDCDhj6Hjdw7G7SY1bRuKlQ/Z2xw7Py9r1kt/BSaUMp7B2D5nPT2IxuAQ2s6eaWQZhXt7jFXCYg/sUF65Bfl0ntnnuV51MvtXPvLcJq5rCWdfmiDLy8t8c4GxOFpmiOZKz02i6D9UfLLM7iZdrxu9Ntk/h2YdVAL8vOCX6DzOigerTlOW6MtzQ2G6YyG5hIvS8zh69RzFDJoz5ZDuJy/WrcoxO3YQ+L9ZKhkdJZ4wBq0vvE9R7HvBprWUzeQXsYC3MY9v12PPNTGjs+YnAa2pRdyU/tueXNH94k3E/8OihdVpqWVa1svDi+KtuTlZNxJ4YfgpRhm+WHhtDC3rF7Or7+kB3aT6U5GwOqjDu5HCnKepl8Gq5LEnZqUw205a80vdYDTYq6RjEQikUgkEolEIpFIJBKJRCL/MZLkL49KOk4FEU5nAAAAAElFTkSuQmCC;" parent="1" vertex="1">
          <mxGeometry x="-18.00117647058829" y="-258.00352941176465" width="387" height="81" as="geometry" />
        </mxCell>
        <mxCell id="1uWH6UvffxMvrlQ3iq2U-54" value="" style="shape=image;verticalLabelPosition=bottom;labelBackgroundColor=default;verticalAlign=top;aspect=fixed;imageAspect=0;image=data:image/png,iVBORw0KGgoAAAANSUhEUgAAAV4AAABSCAMAAAFcR3xxAAAAAXNSR0IArs4c6QAAAARnQU1BAACxjwv8YQUAAABjUExURQAAAAAAAAAAAAAAAAAAAAAAAAAAAAAAAAAAAAAAAAAAAAAAAAAAAAAAAAAAAAAAAAAAAAAAAAAAAAAAAAAAAAAAAAAAAAAAAAAAAAAAAAAAAAAAAAAAAAAAAAAAAAAAAAAAAGZodN4AAAAgdFJOUwAIEBiHII8olzCfOKdAr0i3UL9Yx2DPaNdw33jngO/3Sq8erwAAAAlwSFlzAAAXEQAAFxEByibzPwAADHhJREFUaEPtm4mWs6gSgFFjFjtkIYlJTIi8/1NObSBolu5/mXPPXL7T7UKwKEooVtX/EHXpHF9Ze4HjxuKlwksEfnN4YGqnXd1S6JruV0pt8QFV4yGKieCt1pqiA1qXKNl2TyNbf8unh+rp3MF/bdKomd/Eugb+yab2caYgoPDv3FPAK4OTt32jeqvgFeKVZ7giTvgAhTX8rLpT6WCGyCRyMaNrpsJD/JZHkjP/AlIviaF6xm8F6juwU2pOb4jraArWWHARE5zj912BwBtdOXWiM6JFdGX5WUhiINZggjvNMEJvkLrAIPJNypi7oQsGCiLGaJQ5GnAoBoXSP8aLIzIrUHiBEQYdIQTACyycX2wudYUQ+CNHRf8oi2I9LcQFx4K6xnHoKNEFzgQhghGqefWdrimNTOa/xRYPXBeg8djTBQUs5FKcBNQg9g9LOmJvQYDKUkMg18wBh/6KIKFw2FlrHfoEwu6su5BsSLeK3FohNRNPcjkBmi7HGvh6S1UWdaggXa6q+oydGAz7onsBsxG1kAKkBP0makDJJNTPUor9J6tRHkEuxlOmdz3KHasHT3vXEUPRzh26QkeuFv0b2NeAHyS/0lEUrR4QclRzONYbiItRAWNaYyZun6x6gP8G1ca4rCsqAHeFbjGU5EIH0FpME8MxjueJvtBMsI5sI9YBfbDIBd99gp4qXLnhjcNd4nbRiml7BHHJmQL7Kxw2fA0EBQylLTeBidwJGAiP3ajROIRGLEjq0NwTuVw4Jfip3Ewmk8n8Fykd9CGk6YCGGK6RKzamDv5vvpsDwI/YakqzGMFtMjRnc7ekJsRyQ9JD9GI6TqPG5krp6IeDqBQAB3/+zIambFpqeTdnrZsZyEJ9d1ETRpJmR7qOwGEM5joax5C+lhQCkrkICeM2XnRz0I2AHpyck57EiD3bCnsk+GwHbf8Kg0gQS+sq6Wjh/Ql7ATPuUTjf5GNKcAr6LrYNWE+ZRQ3hlVtxvJrFrUkn6ZRyEJwxkPE/vWJFusrEjDx/4TEzFAXdzaL3+aCZE4/oqwvRFI8igOxrIJ+YszrRl/BdoqAvHjTFG/fLpkAHEOPf4L3CuTqo09CrHdJY0QCaQK2xCwpDb0Pde9C07CmuxCd95a2oEnrNS2OO0Ek1YTDAePF0/qa+WPwwPk6E8fNjfesG7eFlB4m+PCxBXx9BItmNlzpEF/s2lGUJ9DLp/C19VzTod6IhP3+injbhBQLh0ktccMXYW7RvX5ywUHMkGV2hQaMOPdfcBqP5ok7RN5SDGPrtKRfqznKlA3kSs3xQb7g8Oi7IBHoLIhWHRsHkV/Sqk9/4ZmSwZg6VqoOniiE9hu37DXzpZ9K7YcjG5vmLVKPCnclkMplMJpPJ/N/Dy7uAdtHirHIXGDWMZjr2EoOnDiKiEUTJsxM83qbBSfEYxde4TBDAHzXKhScNDmSLyWxMym7Diwwah3DuqA485oH/li4oEoExQOLVD/YCFSSBMzlq9bjD6B7gpyocVbXJmhKywTHYFoVrvXcwfqSk6x2P6uD8nseMxsj4EO0HIjBBepxTnuFMRmPsxt38KpnnhMMxa90aBngS5J/CeaptNAJE0IS9ajghGbGxvo3o+61RnMOHChorqweaFf6f2RdijqeLKlQB1PVKIniJYrSG19XywiOzoFDe3xL0NZDnOdgXrTKfzHc9w2jQhmPuoXSQESm7w3oU6xstbvkXjXH9v+Bk+gSN4MMnxT7oyyuKihfW3s2eQUGgqQIsdKgN1RYUv8EaQPpiefpCC3IMUpcnKMP8kq2VxrmcoK/F11M5dcFH+oeEy/RKAzbcOM6rH8GXF7QsMaPZo9e0OHm42PFLumJNh1fFc6BcUU+sNlHEhUH01apY4boiblUBWpquw0unqo221cbnI0wPDoQZBzpzvA/zOzQdVbc89CfHAi+an8Sa0iz7YT5im1Rd0bcK0x5w9ApgAPzPtMV3ImGRvjLT8Cv6IlAnuzvoRfoWHc8jId1jRYWKuPObouNc5u+4UIaUEn3h5xbXpvEGTzQ9SMGdePKgL/6Ei9b4mwS9RrMPgTKA+s5LbxBA5smRaJYL7ob5RvIOUA6uWN5jff2uAtqIgOqwvjG/ZF9wv+Lzih1nO8yU6Ub0XXRfwS96gb78AvTAAsrPoG+5VA15betbybg8SDXw0Rd0Znl8fE0FVRVr/texX0n5HR5h+xrcHfBKX4W7rTD9G3iloO8DpNJM5BBf9A2vCPDRvyJ9R52ACRjr1DtqZF/oS9ScEBAC+HzdwQOgFLoTVqBz5LVf6BsOg76MBBZJ/2IMLuGodZH4h6g8oGWZiX39hCUkA66LdkqIAtJjaY5Yf0IFkuniqb5ihoFoSWpMRzXAvwPRF9yWONr94Lyn+jI4TQ3J9xW2PInBRvYVpvp6JPAd0nmhTmW1UgfWF7pgtPZwdsdhSraWNkVzJyPgWzbK83f0xTqI5tClOv9UX94D5dfH1vTE4mLYuEgbWrTapztKH4HnuCnRscN6rm+0XDVzydz4d/T9yKD6X2domTKZTCaTyWQymUwmk8lkMplMJvPX2Fraj/6MlT3ztPt1WI15irbb0WbtD1QvkownoePl5TicN168YTnZiDGlHIRQOlFi1W/MhG/v7chU2hlW59qM1dJ+4c+4q5hvWOWICTKY1i1j2zxj/oi3SjDF+e5oOY+xzh29mMI0PtNX52iV8A2Hl+tOut9xRrQsUBEWcxjxO9P/xcV1qHXZ8oc5WqStXH9F4y1BPq+mmdbR99XGPHh92pi7ezwrpiJjc8cVpLp3H7KP7GgxZvXAFcPuYtd3Z6IVS8RGm27wczBW0/rvid4BecG3gauwkBvOREuL2gDJ8bkGdakMhQ/D5f432F44+1u3ASUkoS93CZVCS6E5+U9IQuJNnOWV4UVuaxuwDbNVa9ze84bKXCSfxmDOQYchbzHBvKzNBnO9upPqUdUe0bHse4/2TFZPQ1Uk/qJ5A/CSS0moiSpr0YNyyMO1/oLPUHpHroUZlD1z1XjPXPY1aXe8oqFem7dErdyDEw+V6fh21fkFY/P6AmEtliETfZRnP+fgGfV64lw3bF5a1A+tzUZseHB+B0+S/yfewZv35DqRsl4PBaxyLuw+YWTnSSdL+1PzzuF9dq7toADelDNqhmI5leOySgvYVDzTBM9NpOaF6rp8WgXsZdoofJfSODAoo4NP4vPFSa2eQ57eA1aperl+TShgtRvXN00vcAOFeD8qvaWsmgPBOYB51RzeG5kXfXBq3lT8CbKCn7ARcXEam1e5VmKBbwuX9jGO9iOqzrvGsY9J99eqYhc1UJ3kH9VdOvmaMKVuqV17Rpr/8deF8K6SZps/FwUS86pdR+Y1WCvemfclU/OG+/in7sn2iV+hdrvb/d4EmyTmvTmH30+nzFxTg9t7UhPLhnoAL3ia/9ghXHh7zsgAqXkB74LemjdU7bJ9JB2YqXn9/hl9HS71/Y+Zl5I7QIeF6pA377557A4nn5MYy3t8xqzMaEO16f2LQt8ZE71AMS9+qax69sEvzUvbkiMOEvGZ+EriEHEz8a+V3oIa7qEILMiUSemFNoocckLn8ztw2F1uY7VVF8zLJMULRgUjrpX4q1fmBacUt0L1aGjzh53Dh2/5P6K5rHwNMovDujez1LxPS29k3oW9mBPmeuzDpwXgk3PYi5efmre0jxmm0fiBDtKPpKXim9A2zi9JpRqbNxm3xcjvvwi218jW2cVhBsq64xkr0aj0PmVSeoGfmxfu12jehfSc1rKDLjFAfW5dP5Pa3UQb/j+IH6IalxTzSem9Rc3O8NPhG4PC1+xDy3Rz+96chq7hyLyfSm/gW+ZNRgGXHlKl0rvGbnLZS1pRLvdgsqj/2Tj+/oYYNz6p+Ni8csFE0sfZGFke+jZRr/0H1N3Q2zpKn94zMi8NLi9UGz1+u3zKZ/OOaFvUnTM/B5E7v1k0zqXsGhbelt6U75i3lhfliXsOQtwofhMwbh/qyznWGEnMi5RrcAeS9V1zTXsHAz80b3XnsiOZ31d+hDwpRBF/2Lxj3vz0ExZ9sNFBvgFBVg24udbJpz3EV9P3ce0E6tsdxgDTIQXUzQny0zN8qbzwfuiyHV6q5t36T2hELvPBvGHMZi0nYc3ddaD8s7pH6A+zUD+l3IwH1kXnh+Cr7rI8DLZPOd3d+EkYnsiVJ9T2d7QUSb6GY6rdq3HfOcz2As1MLn7Ebv0qT2jecRYymUwmk8lkMplMJpPJZDKZzHdQ6h86bQiBUqY7eAAAAABJRU5ErkJggg==;" parent="1" vertex="1">
          <mxGeometry x="-14.5" y="-323.0017647058823" width="350" height="82" as="geometry" />
        </mxCell>
        <mxCell id="1uWH6UvffxMvrlQ3iq2U-57" value="" style="shape=image;verticalLabelPosition=bottom;labelBackgroundColor=default;verticalAlign=top;aspect=fixed;imageAspect=0;image=data:image/png,iVBORw0KGgoAAAANSUhEUgAAAakAAABSCAMAAAGu1+uRAAAAAXNSR0IArs4c6QAAAARnQU1BAACxjwv8YQUAAABjUExURQAAAAAAAAAAAAAAAAAAAAAAAAAAAAAAAAAAAAAAAAAAAAAAAAAAAAAAAAAAAAAAAAAAAAAAAAAAAAAAAAAAAAAAAAAAAAAAAAAAAAAAAAAAAAAAAAAAAAAAAAAAAAAAAAAAAGZodN4AAAAgdFJOUwAIEBiHII8olzCfOKdAr0i3UL9Yx2DPaNdw33jngO/3Sq8erwAAAAlwSFlzAAAXEQAAFxEByibzPwAAETtJREFUeF7tXYe2o7qSJRgHbDlgg22MQP//lbMrCITNCX1vv7dmZmn3OoCFkKpUQaUAnfyfwfPknAGSxJibJBWJk4skcSapcdyYFeUI4ayrW2PwbGUyTat2bZ1oPnoswWNJd5UEgcM/ay1dyE/BgMeKpKqQUCGtTmxSWbvTu0nywg0m0j/QdnoRAnVG/K+CWXVNYlxL16NSAXINNWDVG6Zbe2gHEjsjd6zmPPJxyz/wFG6GpQlYrbgmPOWgDBs78A03VLiBP9YQzsbgIu6vSbHdiQqX2zsU9UxaGEDE/3ls6KAa4xLvOkIVomv5fRIdEqT4u/PVmo/iy+oLn0r8sVZ9wLknnzOUJTkcFEpRQTlNkuPpHr8c/J7CXKGb0E7nXIs/Isfao7VCV44/0ecZ3HFDhFN+5zLKlDz4hrUVNFmKqZMsJwboz5aoAnw52+P+ras4G2pn65hc7gd2KKymnJZMU+zCVQBdkNHg1oqaeiW/UzDGuRr8tUT7E2acEj0A6vrOXVOX8oQgqIm4ZBzGWgGHDFQugepWoMon2pdJQgO/HMnoqFUS9nqOiIj4b0CCSjhR9k0AEnzAyCYsGbYvHMhaCeSFxNdVgcWqGcPcF7yu04yGQlVj4KifOLnkwKkCuC85429eBMUXtXriE54r8ceu8LVQFdMPT+SERs+MuKokuVRVD0amXsRzBdJHB1+IY3bkpS288QBCK/Q9cyALPYCg2hA3xpxedDzjT7h45tyZgfA0uYJn6qsoXdqCrjxX5D7BFV0gZZEr4WBHHYlQ59veOksBOB5tEYkbz9od6WnSFUxjUldNpVUBEFKZlA70LFTF3SepAzo36d6urByUleulc0v9A36Z5ETdFqf33N+gizmjOul4uKo6TVxe2pbomAH1d1Iia4VcUhlaFXECxcMv6tm1d9Fc+AM/F5DhJctVyX2tewK0wCvCi+qaxidBVpv7DnbsyCa9QYuUHHAwhJHFqgBqQdwzW/pxYLUh/iadOydZpoHOVBVKytA7Pqg9KUCR2MBxdPRlVRERERERERELuFA3S/029aA33wXXFGvSj0sw5KQcdNLzCP29W8u0AeBocI44zz0RqzgfOissOvwNwsALAkIZ7Et1Gw3dUK1/opY4IpciqB6EDL/r5imY6zDoR5TOQUuF+GZLwQRxFYR6Qv19ij08JCS/oeabRj2uahzFvC4DlWFkHoBKM2XJrQau9kkxhUIAz8YIVxpXXxAMpRhI/MzVUUqioqk0Gnzs6MBFC/0TUUg8UWh2l4qdPCvzF6WFVBr3fHBqa1fgCiEoIstGs2moeYbwVhSNMXT6hmU154pPwpWk5BSVoaU4prVWJpy+wosDZB/ny+nMoSHVnK0uwbzRI1BHqkHOvTtskgoBZNEac0Ej7JIS5aGFuZFt7STG1MKFk5B25qrY0LCGIEksEdVAwn6DGzyV+zsNhLJRSTfQg/Pegg65AWgVQNZvuY3sFjLADQUpBg11cOFIuNzqKj8ecwwcrw+aHc3d4SSKSrog7URKn2xmsmIIV3SEevsbzNXaT0t9ASqbHtjfWp0Le+equNFgZKzNt5XIKj/xHWdqk7YYFRKZ2ZBkiP5LHiMmreMR9TRDXjxF2yYLdSn0oji97iiL9KTjcVVVPVo+PvzwiPELWRU80uh1/UgeXJTVdOlLfXpPxXf40GhStSKpViUdnfrATEQBOcIRXInfjg6k+/Qs/UE36QTlSe90z6xoNG9WYoRcA/AzVwNb0ChN/2DTkQ+s3YcHJKg3noA7KdqdJ52vgWbYaVQ2AeaRdw3fQuHG2OKqjrP3DE7+KbCriYBfyIqgperE+JtzoYkYxliBF9GIr6rJx+Hrz1hqgKSYeSdxYX7WPSIiIiIiIiIiIiIiIuI/hnHgddeJEQFN3XXTqjbjNcsx4SozRyjBL48CQ5boDqlpkkDgR5ZOdvwxBhqR6mg7XCF3s9F2J6NUv8b/DXoUQmNbnhECHdP6J8+QTNMkfs7o7sYxscDo0HiawzRdsysSZ55uX1XDuKSroOmyE2+WNZ0ywiN2mXqaTQfrtWxXzMBhShOBnPY9HIbxqJdIPmLgvKE5D6mRLzgP7x5YrczK7fw+rAnK1NWOLVCQjFOVRNAsghdrR0Z5fFl8lh8FMSA7xYQMBt3ZQlD3ChpAP36BdCCmcCRQg9ODTE1Qgkgq1DEBmEpRRCfTMIy+cufn0W4r2umgaW84UDlOZ3OQxxPLTPnpE07KtEb6QZNgXxT4iSEHyTxtllz8tjimMNAdZqp/tytXNe3gCpmDLZRlZc6wSst1gEx3njD2PNFJvMtJdsslpqKbNOVsGxF5Thv5qBYqcBBTWETRMRE8L4ZsKe8twN+ZNEQoy05+FolyDMSTGNU4TUnTm2n7qKqKdse0ZCa9HV6vbXIxOyRKLp0FTauK9nXoDvGLLptwHsmokhKd5iSazwYGtPmTJhaZU7XjZQw0rX7hZrH2SA0B+zmxLveszSUUpOYrwOs4PTkxdVPNZPBEG91yuyeLfszm6aAEnRq0vNKheSSjZ4rnM7m+s7TGAN5YHXyB34CyGHXetVSVyWM0PdmYYZrD28wcrGcqdbZPyos53ZK14exsHinky6w6XjbBWZnKxRPwtZ/2RP7zXP0KFqVWQRggMBLALPE7GLt3NGMoTB20dMJwlzoIN+lBmMm7tSWpAX6saruuS5OYIyks1chbrLQtdP0GWR3UgfSWxUdbael5kpSDikJ3SyFWJCXbcZV+aihLWjh1Nz9iwwpMqybE1IN3+ipUnQmqyqCFbC1Y0HD0NDFVeqaAiheLoAA76bw0O+6mOIqXpayqtvyUPKrqJ5AkOhYTLZJ5omwJcCra08hqIh5Q8uF4/KMH6/NoRaP65ZcFpizrM65P/UmWdahUOdOK051EI2sclJC1JFf5PS7YEqQ0xzuYwVQ1ucTvPUUGy65JC17urjblyfaS2m5B11dMDXynfG6hdJ2+anO48pYuNvMMXRUnTkzhQXp2qsYWZK30Bk1dp6AndT0zqHzjCALnkvoelMU+nDuisTxTRAzjPAnZ8KIRVeET+CLPlV1eueFNZtQNMyRnrTvmJqagmsQE3e64d8AV5+UQIISUIMc/YKonWo5qgp+SmrraD0mNC098Z889pN4rpYtgPSnlXZdgXQsaR4tz2j8gYQcPdIQsjjtmivjkzYk+izid3zPV8LKSzzZJSvoocxBmCR9MjeA7roCfO6az4HW59tIbzXibE/ZJcQMFYMqv3ABhCb9mai8Z/CDgLkxBs17gJjv24z6Jn5iCnta3HJ4uDA0Xa7/ZZOsO9C4btCAzMHhlEv0cmIKYvPYC/4gpWVnTUopespdTfLd3Y9ObRoQ3BhIj6jK5ESskqzE2JyzWLolmjWgJ8Dtmk4zXE6E6zj2kXXLbz4Lh0pvbYrHv8Lou8DGxQmWHXL6hJo1UmLclyBF/sPKnXfUbyJOP2Hs6NbSKiIiIiIiIiIiIiIiIiIiIiIiIiIiIiIiI+H+J3bhC9YHC6LLStDK8jG/KWMTmLX92Wl6/wh065PMVtj9E/rHgJpiv0/2MnXymZxF+bU/wr8hV5IeOduaEqN3DMtHXjwXD2h2FhHY4zGl5w1iG4NaEW0oXYFy7Cgu8Dd3sJUWCuaeZHZzrd8nW0cp/vU9q2g6wdvwFuq9xos2oE1ZuJbIq5py/3EPXLE+9vNTKOPVfbHetXVUHTO7CZdCH421Sisr1h69U7w9gBtnFcbpJW9VK2M453gV4o/XnrxFsOpugZax5N2beu9UPWmWmjSSE25Dn/buoCqd7udAOg2xb0T28bfNDM6SdbDFOOwi6GnR3TePmtXrGqargRuFaoX4t23FGPJzfPkOg7z6OG5IuukcabXiDVoz7a/4ttkridiDdU4J3jjdFMby6W9pTTGg9TVW4ues5svJwtG+T8ASDtx/1aSapoudtCSVv+ZyQs6TKVQrSWH3hguX9Yt0x+A3yYfJ4o0AMmWJgFF9K6ovi67mgA6Sd7sMoZRP8X5PUiKdrPMErlpog9Zv9ljBvTsXE9Mn1X3QLCtZXktRpaDjnwW9Vydq513K8xdzskiu/q1+6bkd71zbFD85PkTbVmZ7rezoCpWuO8AnwGzm/2c9En4bHBsLhva+C60xSxjX6uD3SLk1B4+1OcOxEN09qWqOkLj918F8g/9ihskIVRHB+nlXsxBPVo/8ZbSpbNhcvqV3vmz34UnGy6UIRvGpjOm0aaOGoIWVnitZ1U2fJlZ5Ayq7bolrjtWEvJjZiVvyJW3I9NGw8gQURxp8bonJSr29sKrD+wKbKmcKu9Vc+dFy7bXUbZg/Nlm3Bf4xL34/Sqp18NOTo+BuEONO3CoGt98dwunJRDdpREOCgUfvFNfqboN5vGD05WR/v9SKYtw4CbS0Jm8c5S17Wypcd+RsWrwH9NmeCZjJdd/2ikKX2oN+rt9I+ik+SZqhZpSzRESJs4L8lqSeiCapt9IF/x/td/CeUQxoYte+UFGXwcs7Ud1L6YkieHfl1oiV8NCWUooXx7Xz0TSe9DFrgrM1xg2VvypHu5I4WvgT5PiWl3QVJKqR1/uu3khrDiHlEMdrn6nFgQtNuLOQv9VN+jGRc9WjL6+jO6pCPU7fQ7nV3obB5yZ5fQ/nmaQK8NyVqdjYfHimalCwTQdkLAwHiH9EuGz0i8Z8wxoofklqNOmcdd3EK/rgT4clvOiF6R0zeouf6BxGF7y3SphYL2+nWTMJfjijEpnZQVrbdUVL5/dY8fXg4Q4kWWOiosvXwmqWWGv/DFt8grdtVVHfe39U+OSiTrnDSc0Y+KFH3w53LTB9hNKGljpDin2R9ZiCp7JWw0CeMKPWjp9/YVPZNbMWE7SpUMO+1gEBS85b5U6RnenzyfitWtZlNWe28ZmjeKUJT2r6aQiLFpOMFdz9w5BJASMsc6f9tkBw/SGo9RnlW002OYG0MqBaLf3HZK4jheuFkQMPIpxu8CwUe49Bw1hH8yqZmdLKk6sB6fURht5DotAv7j2Hks06XoOL8XqHFZ5JatKlQUmbblhRzzdhkvLM6d0/0vbFJUuL94Dm895t2iG8x7Pejz1YCGFLxq+ldb4NY9bOfAh5cTqsvhC3Z1N7Va1ZZavcSvhDiJod41dd0N/5lUA/OoUBGKIgMM761qX+Dg7YFqUVu7LF3w4H8+ptN+aFsgG6iKJto+0NJrclM/DPmScN68iDJaZNAAqMA9p3/WiJjHgxkq6ERb0hYktSL3396ev/mJbULynxAY3ZTp8tDkzfnO8f3NhXir0jKyJfXgLVbub68jv3gm6R+tCkP+C5VNI/vJHXhgCGQbjN46bymOtP7m3sPJXVwiO0DLEjqxIXmrlMdczLKoBc1PPtnBDQkKq3+xMbsBXBa8lj/VUllDx0zAY/bfGD4JqlFhIrt8bNNfWJ65ugeyvPOVc0YzwEb9fWMahbE8fuc32AdzJYyPr3fUT3LXigpxLi8APxLr0c/oCTMo/RqEubfl1SGcHgs//7+MdmZpBgkLmmT1F59nPSBfyOprL2lyWagGb8LNdJuoJcMF/A2FPoWpdvfh5sMfRXD7AVm2My8my/aVpTWS+o8m9ZSzKL0EP8Bm3pOgrroBy0Idd9Vx20XfmIjrdHNBwYOV/LEWKd5zsyQEYwNFYsx8Qw1q3DqJ2WrJmu4s6IwYj5VpPi1pMwg3yfFFThawj1ND6GSZttp6HiCm7T2AE6DGDE5rSx9C/QcTAXM8DEX8PFJ5X+O9DyTAmB4up6wKftmPZ+uGLE5Ov+q8ggTfvaE4dvqayDYQgNMjNfTaLp400/B69c2xW/u/xZ5+fhpgUaRHr5eFQtncxhVqPQREREREREREREREREREREREREREREREf8MSfI/JLV14OHqhiYAAAAASUVORK5CYII=;" parent="1" vertex="1">
          <mxGeometry x="-437.005882352941" y="-186.00411764705882" width="425" height="82" as="geometry" />
        </mxCell>
        <mxCell id="1uWH6UvffxMvrlQ3iq2U-58" value="" style="shape=image;verticalLabelPosition=bottom;labelBackgroundColor=default;verticalAlign=top;aspect=fixed;imageAspect=0;image=data:image/png,iVBORw0KGgoAAAANSUhEUgAAAZIAAABRCAMAAAG4UODwAAAAAXNSR0IArs4c6QAAAARnQU1BAACxjwv8YQUAAABjUExURQAAAAAAAAAAAAAAAAAAAAAAAAAAAAAAAAAAAAAAAAAAAAAAAAAAAAAAAAAAAAAAAAAAAAAAAAAAAAAAAAAAAAAAAAAAAAAAAAAAAAAAAAAAAAAAAAAAAAAAAAAAAAAAAAAAAGZodN4AAAAgdFJOUwAIEBiHII8olzCfOKdAr0i3UL9Yx2DPaNdw33jngO/3Sq8erwAAAAlwSFlzAAAXEQAAFxEByibzPwAADiVJREFUeF7tnXe/qjgTgCmigmJB4ShS5vt/yndaCohlz73v/vaPPHePFCHJzCSTwuBG/3V2Kdx4JwYA3plw0e2EFCL6p/8xmWxsCu0jggccolyPox3fgdQQlbxDDLql73LvvBKbBL17VjYX2dgkAv8+WYFmlXpzOR9HPmfMg2RotbPukzWZQjZo0ZbPuct7+igxQb8ibKKKNlzBvPNHuY9vWflfcCE2J62QjBQh7VxWSezfEvjvcqcPED/SWAO6OoNVoIciusq+VrGo5k9xbAzeUOqXWA8WaaDRvSL64S2oc+EbtXITJhfr3BDZ38J9wyXmSzb0MQXyCpPdtCUhp1L+xFYE6G0rpNG6KUL6ovJFFRZOTppyPDFgy8JLuOEIwOkinPTapLDFPzpNR5oRbrhRcQujHF41lAN97KKa0tC76cNcTpIQaguEFaNoZuoNIFWNBwKBX/GgjxPvFlFmXAOe4HaK7Pv+YA9wFMWw27KNEcF9c+ifNgA1WL7poGM+8kniKIgcfQsO/eRA/Ag1bfSjXsLoSk1fjI5qCUmOhoxeP36kD05zj3/GH6uTx+TQ3WkmqIsbutqbuG++UjTjMGVhdrp1GRt0Dx0mgTm4TPQrHFxgdqiDqrfDVR8+NVzI3488EKHu54jjYYAONYUechQZ9F7thPBoK/6ev0Cx/RHNM5QEX0EaFa2SqjhR+rCKtmfwatqgV6YN/uEllAr767ldUIfA+neZiIu3mVA3IK6edEgX6NyBvzWZ4FVslKVM0ESqZ7GZ6z61IiGmb3QVRDBbhDPiPn5REgEvksqRUl1ipB/zOi6Ll7gBMirqAxuD7d4CgUAgEPiPYkZp74lxOpZQ5809KURJ0SPNuu/XDe4MpqNE8AocP2Sw1Anid/WmiRI9JO79rCulGxMZ2Mg38xLWMm6DOMr9PMb3g6EpTU2JS/o03hrw79rhh18Y3h/9Gb2QjDGPJYb5l2YZS5ABh4wZNCf+tOAhqrRB+QZvTbXV2bI32FgiH1gvpAtKFlCnh0Pfr0Y0B9uk7yGjAT7voYkq3I7AAyi3mNby2AmKeDok2k9KWsjRgiTOdgccL8cxj59kEHV2A7TyZ7EyOHKqEFBJqSTJDZqXSDGTbjBTExwl66qOYiSRPIUc3DX5T+KtIqSSaHKjsVxFdrcGt5LQtgEY9j+oqpxG3nYAyhw/2AXHjpTEEesCbrH4lauXTsmaeVU1dHFMJsIWJVoyJZmY5ILzhLPTIjiNIOYOFKPvKzQ26v4a89n9vcBZxlnXt45UCYTRV9kSNC3EJO5jm2oGFTZ3hct25GUqk3lpDO5qF9AMB+k880u2mRFu1NuXNhObJC3fYk6VLsmJnp65UttK1jJT0fs9SUyCiE3bVV0H1ynv4h/rlmhlDcf95jvdTjcGiO58HzS2VnwtyY3vFP2d+rNOdrfq9x5wcm6VqgBRTD2ScMGmyqm0NMe1cx3mCkMsPgLROmo2elbhw5ScVQkgy3h3aVfEaBYVAoFAIBAIBAKBQCDwp/iLaK/pzGUFrRBZIMc/XRQw7OWK2JusEzVNJNcQ0x3TJbbKToEFN22udPVmRinPC2E2zx1B4l0+cMIpOM3CCyzFDqecspZBU12e7nrzU7oCizsWCzparaJDNKSTVcW+na7xHCgtWTeS1ZunqB3J7IHF8ZW4+7SmYhgxwSHmcjpNUZqcrqinoye9zHntFrQUOkHXjjidn4TGzSb8QNN7YFFEElm5cdC6nSzHXLzCpyLftwBJ0rNt8xFn/7RiwKsGXmYka3RcUNDt2JD5N/nRxFoJkxWuaMMlkmKpJL7YmHQdpXGUoLy5V/hMM0xmlXqGtUGH5SzF2rRC80Pr2pycVwO4dtHqixQg5ygLBqQF9Fw+x7SdtS8l6bkYP2iRQ5MA7O83fbSOnO06TazRDS+4cRkKVCmVk2uOayL00V+v0YN3eP2ezq3EFbgmlBV3LFMPScPVwzJd7waWfEkSbwmQRNiS9lVPrdV1Wa5thos0ZDyTZKELeFuWT25sPKus/ZpvJcmcT2r9la4695dxL3K5fL6QpCFfwjV0V165WjBj1f/QJb77WYCK0XdSGC3oTbao4OO98+7ujMkZk660LuUG7nkB2KgXAuSAHmdU1XClz24mSUmLdVjyikWk5Gdt470kBN5ZABacJVifzDJvWXaX0rrci+qb27EoiyJX0CVk5CMIPNytzQ35Pdp51UtDSwSxyQ6rDsXIEFhh44FKeonq20RjFlvRXoEXsA4wLZIEm4wT3XmucjTLmkBmx+aiK+xIZirdxKtSKi6llexqQxJJKC+36J9sazJBkrIiO71SGiux+tg/HlQS3GhteJIkOT0ifcDgvvVbvO74krDPzs03kQbDakNSSXrxsFK78ogloeBN+tRHL64snx5q8UMHzHV3gJVpJ04PkhNn8E6SE1fFsvTaBUfmoPvSikJPMwmV1UgiaZp2wpI0GyrR1QSsfy/JjnKsGq4yVhLZIJ6Se1u7zAl7Wbxjl5ldvZqsMWuJDsXMXR8l6eKoLqKNHUh8LYk8RjKXv7AJ82QTHzYA1yfFlmSjzyQ16UVJDCgJu5O6cRr8VpKYxrzm+YmV5IjOnxoj7VneSmKDoxVNiLgA1hY7/PgkCbOq9OEJ8rUkXLNrrsPrvtThRTZISbLWtDukP6idFiXBkykpP6GibiZ9ewaQ2F6JHowj0p9U7UwSzu1BFfMGlSRinm4iixlPMcUtSJJkz4+llK29vTfDrFmCa83HsNbg+Qkvnj/33mN3BBtIfdI2k7Q6V+GjQCAQCAQCgUAgEAgEAoFAIBAIBAKBwC9ZeHZzGA7TxzSO000e1+ya1eTh1RPVbfsqjffUNn7EC/P5W1TV1nvU9Yn49vC0c5NgoZesh7X3sPWP2DSDaCExSi5MIGDX3mchduarDPRJtf9+m49Ng3kANO9MmNo39lYA14Tfy7xAxz81ssi9P4EtwhLnxa8rG+/zDQ2s7OVxAzaUZZE1tG+//2ckrURRJo2ENhh1UuAE8aPqQrBgvF2DvBbc9zA6myQuYkfSuMN4R3GuHDr4jkRrYDpyTFfabloOuDzcXtbq00t7IekIo5YFwMX0VF5FKeDkhwU9kXSdayO7seU7K6DH8s9shvEfNL9v4NAqpOYMRZ1x4+Wy14A1Ex+bmaiHaUzspjQ/BOe1kh9oF7zjjKS5YjPK7euXHLlyHMd7+ereYhpnOeUKNgwLvJAE3yT9+xbz8ELVkoYjPak8i1ZMm8lz+pUX3ffn3Cl6idVZj15f8AB6P7oszyC/v1dewMQP6Y+gzrEmyYdlMZ7IYfC1dG5X7dveaPvGb/UANlb5VyY5S9uvYdgmx+aGbqG6AQwmwmlCPrjXlIX4tP+1E6tbvwMj4+b4QeqMsTXEpkM7m9Z6pRBDwrUSZB6eTqhJnEFqqFwxUWXP+sg6l+YKrXEQX/GCIywHtBMlOivd/dokfpES7TZyCa87rPDwZzzwyayZ2CUpuqWKE5+WzfcN8Qmuxipbja30kOw6/RmJUXsSvy9BGqAWlVdVxb8K4mgA65eH1ceCSTKKwT9otsQd+7jRRTLNSMZt86oziQfwIiZ/YRLlbOvdpjm5BPPR/NpJemr5R9zKM4tH4Ucctd9WVb8aP/zoxRuyznjNeVPWn+JQ4rXXMnKJNYx2/Qb3F31XcvJ/aGTKk/xHHfXN2AxwmytKqBp0Li+aCQ7GnDYyaFhrTAOiQqL4ZJJe+tL43LQ4EkR1N6TuW9XXJw16i7uBQt4oTT6eEN9UR38CmmR3QO9peifPJMljBAm9njDCPrku9d5JMSzPKnaqDrjzDme1uVIdzLazZI7kkGMcFcOzBzt0aI5Conbn3MH3qhOmIy7V41KRsAV08gOG1FjOZRIP3d4N4zme7yMSP/hbuBzaStICpH6oSc63Bl2OL41FfkxkTlmND5bOgNMSrbbYA0wYcf6hPRZOdfRyxerkmYO8/tA8vdCDbDiqfZklIRaKhDXhdPpxIwSq8qOpMNm05tSLVe9+ez+T/syKhXeOK+FsJ44LR+QLzE2SPm6nYz/3ouW8CS847umIgVi2N5J0dqjsTR0M6M09dbTjyTuamqQfD24w6Bcpu2L9rp0Uh2rA7kFA70VvgllKMOG6PgMULwcf35C0Uuq1lWW3usF+NzPJ+1YSX/a3tQi1YJJZT/FHJkFHons0HpjP0MgB6S4hL1MZZibxy/lUJGeSpHEz83yc1YJyLizTvo3P/sjdWOIA6z11YYMuBM1MIvHWE8ZFrfWwUt+j3L8zSed+sUd+/mz+SidTTSy3nnU09Wwh5c9Nkt2uGSpecq2fuqn/g0myzr4n2113k2WBL1rJotf+3ErOVfXscdDtDdYlXPx1EI/+NDNT2vpGSdGtTC742iRPRWKT4LTDzquKOGuf17H+uklwWmJvLr0lBGZmki36yMN0ojF47/44PpvkFRt7Z7c4N7/z24EzytGts+EUe1rXvzbJE15fImA7WnjR+W+bBIdCbqWomw+jJyZBUpxLHnppR3kzVP1xuQtbMIk3eHnLWud4WzuWyqwWYn7jdIkS54YjTbHXvjzM3zLJuatKGotC95g23uOySZbH59+QWdETf2EgLfsWOxVXU2OcHrX93Nns9tjxPD9G6OGkrUgpXk4UiHjf2zFzjXMApNjzEYIDPWkCP0uv4lvibXfZ0Hh2Piw+/2hCCxQfTKLWvexbZ4b4juZHqQ9mJPTUcSreOO+XHJ+6201tdFCvL0ueX8j2T3PUS+WPEpEU5/j/QdLHOytvqmN0783/cmXCzhvTxU+KCwQCgUAgEAgEAoFAIBAIBAKBf50o+h/J4hyEdvUtAgAAAABJRU5ErkJggg==;" parent="1" vertex="1">
          <mxGeometry x="-425.5011764705883" y="-303.9976470588234" width="402" height="81" as="geometry" />
        </mxCell>
        <mxCell id="1uWH6UvffxMvrlQ3iq2U-59" value="" style="shape=image;verticalLabelPosition=bottom;labelBackgroundColor=default;verticalAlign=top;aspect=fixed;imageAspect=0;image=data:image/png,iVBORw0KGgoAAAANSUhEUgAAAV4AAABSCAMAAAFcR3xxAAAAAXNSR0IArs4c6QAAAARnQU1BAACxjwv8YQUAAABjUExURQAAAAAAAAAAAAAAAAAAAAAAAAAAAAAAAAAAAAAAAAAAAAAAAAAAAAAAAAAAAAAAAAAAAAAAAAAAAAAAAAAAAAAAAAAAAAAAAAAAAAAAAAAAAAAAAAAAAAAAAAAAAAAAAAAAAGZodN4AAAAgdFJOUwAIEBiHII8olzCfOKdAr0i3UL9Yx2DPaNdw33jngO/3Sq8erwAAAAlwSFlzAAAXEQAAFxEByibzPwAAC+hJREFUaEPtmwmXqjoSgAPuaFxQUJEl//9XTm0JCUtre+e+M2devj6tgEmoVCpFZUH9D5EoY/ioadb4pTsNn6bDY6UqpXL4Ey6VrtMGflWqkEt4IgVA4gzyywlm7JTWcO7yU3lCpUo/cWl/ksRc5gbPmsbLFvlzHkarhpsd2ofaYA//TYpHPvRb37oLOerb0/5mwQzQrNTOd7ri0SfmozN9zjAsOfIPIYrve/VsS5iHHKAXEVKFTmTJJwHGoI0lYBZG7fiKWtE3ZJYMN77b8I7Y+90dhuQ6wwRdjhQbvMTeIs87Z6hQIhb6Ao8E1/Nc3XI8x4RZnps87x2R8AKBT1KSJTcAHgSXG7VVqpUTOAP/aBNg4kGnQiVAbUAOKok//fJWJ/iA+zwhI8nP6djhpnIiX5HI/xFk4mLaG+dE4ILX+f2uYp9H/MjBrgbdUEOnGfZmY1Mw4KLypmm6xF4942NQ67C3I1evv831uSv2fnABSmHPRSglysx+LiSQ7SD/IZAfxXmJN4W4i2oK3hEYCzkrHnqiIZRMt+gEDRWIMoLg4CydtyR1o5feqAs4x+IJaekHdp75SIQjfmBBJcqNaQtye3jEiRsnXycBJ3wMffpQXvCVpqYjzxGiD+7LlccUPEiswcA5qDi0gKd8C85u1Brdsau33IGB4w1UDP9aMZ9RuSOwucC1Fy882ZOI+Iyz5eKFE4oPt0Vj2fMP/Exwj5BIJBKJ/FswMGzBZxQ+Du4wTsKnqNY1Pkvh/8IPfkKeJF0XDitkICWTNgHwzDlkctxj8Nl7p9vo3MBQnQrOV+77PZccEzcUtBVLra/48Ed5n95znIrbj+SicMnypJmCFiIyxODH0VBIIZCUWnM0xc99RcmqVL6nAi3LrqY4A2+J0qxxiIgHJBp9qMNeXegAz1d4bWfoQsV3a+3PcKWT6IFz9t8EnxQoUyc/iLwqX+NVogryjEkwTylalPwZhyBnkK9qvPy5DToJkXcKUpTRCgftC1vAhCC2BLYZStC8iXooksMo6gTJMT/Y8lRQlbYPih8hnERrh+8Oh+2gf7xWVTQSRzAxZYOPxRFaEI8L+AF/72ceiW/kRePCfNfqYfMP5T2jSbmLtg6+fjO4i70O4GzWCoWoPGvk3zXFrJLWlsB9gi42MIT4gYQSGSlV8j+kU3C4LYzkXfShboLxZZ/2ugOLxNPitcZsbEasOI2mZ5VI93tKw9gGMuQ/pmnIUp90Z51IPcGeK8ySHAwPaYiRvA6Z6ODPEtyRpOAg+dDt/JBe42gux9uGTQKMCp4hrM7knA3wk5sJcf7ilwyMOxKJRCKRSCQS+deTuWDd+FsIOhhpvIbxvqSYDMdxJ8uIKpM1F580mK+gkQ3lrVVDQwJepJhlCWNuGq/gWMrU3vTOcgkfrTfcgBRQ/CaomKMejEsQHEKNBzkFThlt6DYwQMQhGA3jjIzq3o2Kcsh+gJtBpotdI6NMBY5POHdB8xltszQ3nk3y4Rs/L/RV+sMmlHdfBOl5QqaQGR8S9JfyEpAIMnFSnIbCf9Kvn5uK7dyATvAHk5AZBcqXWL2mqejTDt6JFCsF8JnIS9NXIG/G3x/wXENethyauMNMpF+ncQBLr/pBodwzKL8hZdopuyXtgBCSYbsAIq9U+YImNZHKI+ekaPUkDfyXcJMLthfJq5KHSvrZCRK344E6C1pq+7NamTsLmom8XIIg0ytHUOHS0Boa3w/pULGMCea8RixpygGbH8ETVBuJwrOVCWhdNAnl+gpzinU/W6y8O/QOG5mMmZpus5eoKD4JmmsCmt+l7TEAz4mk3KX2IFyxLXsdLUJXM19yht0zg9Q439eJwnx5bbW/kJcw6tyhTkjeo50fyvPSyFQccvNa6gI/TszfqSUtgJN+GzA1uPmCGhCSyvQg5rrZGWEnL1zERWvgvbzgrTFRDc0K5UEf6bPoXtrG1oLmbr35RroIx2VNR9j4VO0M2gySGvLL8IPIG/CNftEUJBFNzsGZWDM4VZE3veFOKsZNePolw7FXNyoGPctWN+6qbw/WCXwjL/YJSLrITCH222dhGTLqzfbqB/KS/6CfW7IGQuTl6VTpL1/ISwW2xtDdpuVl+EbAhLwL6FiSFi2afuEP8RSAldd9AFZewp74qx0jqBNdrrIfZs4eEHsPp1/7DTzAgYu8GFwYVR+xO8ABuRpqH5kuHstrZOKe+xv0jx8inozU6wIYlhcqWHPhKy8WG8nbU2CAJfKiCGC6KbQ4PGrgGZKGM7RjeS3ByQzsablCWqUsr7rgophS1+7hRS/z8m5Jf5pX6kABmo3gTmFiYpb+M12WYiDFbqUWv5aXqm4N5kXdID1WvdEdewN08g58bmNXFG9k3SActZmIDzzsagNhiwHuvC5mMdymf4hrzL4SAUFjMz+HLLNITBGJRCKRSCQSiUQikUgkEolEIpG/yvblzzIHNHde3tE/L/Uqtb7OTBq/Yzdch5xlPSvlkOfPG/kZbzYbD/3J7YmJ7k/ZnNtwF4NSpr1SgYt8JFYlizGFOUrlZrRoy2Aak49Xama40DseH3DDpZd0LP4Ei/Y2o6L0YddpaEVDKFFkj0+WV2ZZm5aMMTvw4oMtrTQHvL6Xe8wxaRpcRmFwmSjJg5eeJgg2Ji3tAiiRzi7EyNvaaTUtQUhNiTYgTC1i99D7G67WUDAuC+EbRcIHy/A/kpa8yyqtH2iMfKPk0bnet5AKJ0bW6AojfViTAoXkTHtwEGNfKnupq6nfOIoVL+5PcTOmlf0S9PqYh1/r46zJr3lnQWlu+O6MqJIJ95D8PfX2UCPTjU6dtyB2MCUJ+TAVfcOBrPqWvno9nLCr9q1xJfVs/07q3rBz078mh5Th+YcuxWOgXmsQADRkY5ypNI3fnX7Beljz5Axthqq5Yz+y/uou7z0lrX2B0FnvHKLeVWUTnm6e8d0M7uwRNLq6MbtyD/+ey8y8zQmIZ18DguJ7TlWYIVSvUudB92D29Qe+Z46l6V+oq2QDgrHfhjdPnthF/QRU/CiH8/TbGqq+J9I6/Uxu2gLlGKr3YjexQawTbkENil9ATZwhBkYxVG9GWweItj/MzWNS7R9yNPyGLErF35ZKHK1w9x5QjRglVvjEO2lGrM1ybp0+qP+neOqlqCRx8qyNudF+DeHD4sfqlYNAFfOd5Jfkprh158L1R1+9+8rcTrKlx3Fpb7stWOWEFp/t+Ye9F5+r1zPLzPla6FforQ6yr3c9DEyC4nvTawbtPVav1Evruj+Eq/L7H8JPyB30U+51ot5N86ieqY0ZfLShrYdD0mX3CuoBUbKcZ9LtLWj3u20jL9KPeEKS0jbTwW2WWXKNJUL23oidKj6Rsoigm/9j1ssDIBeApKydwDmYlh2yTzl2C5tlvS37pmcyIxG1Zc56G45D9KS76eOjs7iJugXtlePNwl86h+PfUW+KG/MA73ZgsfWrDtQ7ab2eGtLiWG/JOkZx4kjCufov2aVPq/fhAoxWjrTZ7k3lBRdCULy+2ZvvBwO8oXrHAw7mTZD0hsJGWyZP9SsrwZluyZpD651kSg1/oN6StwlPqjdxFy+uwuA8pl5bCdXrIvNmMPYYqvfaR/qe9e755YEvWdQPyb4xy7JdexF0qN531tvzXr0wPJGjgEKcfliuHO+tUledjWobc+yNN+kVHRTvqzcUo1evi00tYRAFkemXwdmhfzq9BnHlJ9Y7+QbRe/VOs+XdsEP1ijLphYukqOyDVzUtKDS52QocBtJbPlFv8PhDvMhB+Ea98KR1/WXRDYeVgXqRZweOgz1Jc2702Okx36lXHmtIoN5ClFDLzm9mVR7l9qvS1NDl7sHLaR6fqHdEaL1fkzuhFq039ttCZFl2xqvQ4l6ZPPRz6f1hTPUceyberRzwblx5r/0R6aIzZwlxG7gHxdVbr6Po2znozhi/zU7KaZNLUQC7viJ/mBaeMZN9j/gvqdex9kc9xOFoK7ytDzgFMcku743OUnUDu361I+fmcXi8Jvq1felQWu/pmvrE4cmA4vz5jDLzKn9YEjD8jI1EIpFIJBKJRCKRSCQSiUQiv0Op/wAlQf+/W6YwTAAAAABJRU5ErkJggg==;" parent="1" vertex="1">
          <mxGeometry x="-392.9994117647059" y="-412.9970588235293" width="350" height="82" as="geometry" />
        </mxCell>
        <mxCell id="1uWH6UvffxMvrlQ3iq2U-60" value="" style="shape=image;verticalLabelPosition=bottom;labelBackgroundColor=default;verticalAlign=top;aspect=fixed;imageAspect=0;image=data:image/png,iVBORw0KGgoAAAANSUhEUgAAAYMAAABSCAMAAAH2qHiIAAAAAXNSR0IArs4c6QAAAARnQU1BAACxjwv8YQUAAABjUExURQAAAAAAAAAAAAAAAAAAAAAAAAAAAAAAAAAAAAAAAAAAAAAAAAAAAAAAAAAAAAAAAAAAAAAAAAAAAAAAAAAAAAAAAAAAAAAAAAAAAAAAAAAAAAAAAAAAAAAAAAAAAAAAAAAAAGZodN4AAAAgdFJOUwAIEBiHII8olzCfOKdAr0i3UL9Yx2DPaNdw33jngO/3Sq8erwAAAAlwSFlzAAAXEQAAFxEByibzPwAADmFJREFUaEPtm+maqroShhmEVlpQUVFRIPd/leerISEg2q7Vez9n/8i7ViNDpkqlKgMh+u+SxsbIWdc19FN3Xc7XUVSWbR2VOInLVamhomhjSpOdogg3tnRd8V0iQwxjqjKmizPfEgz+lSVSconoc4rRddGxTpDbirJSVjaojYEAWixzxAFBccfPI/CvsjZdlEtTOXV5z/eIruse0UBthfSr8KnVXIG/bFS84US2BzrlGwrHp7ByGClNIQHRuPhXI6aTcJ3+gpJSQOsI/CdJ6aCaJMdgz0bQnCbXG/2Fvdf8oLyNpn/51pMpBu2V+EIECWuiHf+Sd6IUM/ybYUxZ9zWc3tDUKeV0o7uIbj2ihznkFKKviQ27PPGEdf2o+QQ5IQA/IepTTd6UXCSZQHmBnDmVoeuqriOxJmxQmowS8LwixeSA0vTPXLzowUeCBNpFmxLRikQ8N98XT7mSU0vKwZOWaobg47QY8PK4VbDG/Gcpkv760qIdkALwDDAQCDzD/kes6DuOaBhD4AZMScAITKxJui/1Ix0FGNjYEJiNkpjaqmBkTAbENnk8B+fiHNgNwzz2NkgbR03jHHX3riswFHN23KFDXsFZLXakKI+RkqpvkAtyKJSiuKcxB5TlbExa101dRfCv5HPgkS7il2YgAg0mqPzisMVNr/lIqRmkPM8Bf5BhYAf5iLozbsQIg/8LORAUKbq05LwNVzOFQ1eCq7qhHKTukQDnsML9DXJgF4z73Z5ERxjUGbw3h/Wh4Q0fChKFYogG6Mz/40A40WvKgRQWNY8ObSAn335iPXBYjzvC83hdFCZpsfh6hb9E+geAC723Gi4ZxcAIDj+Qgu4v1RJq3XYeO0rHtisbg38HHghSOFzY+2jZWiEd60kGi4t6IAUjWse2sENpBJdDDDGji2EDQVWI1qnUlAOFYi1pcAobCAQCgcB/hZjGUHa9Y4sLHt4c9zQwwN9NezUCIbgzlZ59RHu4modCMlpsMUzAQE6O4xocOGNMUtOkEJ1jiWEEOtnqjBPQ2uGa4/xifLREzqtyJy5EccGwhAY3JELhDU+4qN2Vzz3uMoqLCv0lZIglsqmEyhkJdpSoiEA9u8EJRmD5miXu6jHCJyLsZFhNVU0Rr9BISrc4FUnqmkZHWWnA9ZkedoavjSqIgtF0/4GJfE3jV7rnw3fsWtdMBIzlDpj84wTj9/M9+spplAoKGoJer3Q0y0sZjozGwLquoYWOrnKJ0eV3u9J7xGOiaRUBIympddaChl7QghXhxqrV4R21O0SjFhVFmxXfE8Vz4qIFTeANkJECnQf+jQ9cJ8oYe6NVCkgHVDkPHHBKYfQJYEPZbNEGpSXqWLuuTxjH1xurBcqDHkg1VD1EIgWTkYwN41MRbLu5o1Yl8FyEZE2zJpeQPfEb0g76cQGQv4y15Y7eVy3kZM7niQhfdMWicxAJxyb3kQgbXjEymH7xLx9LqUPCi+1O7YltVXLN7cmi5/JjH2iLXu+iVVTetJqkGqTSOvEHCM8mAMQWoEA/8RkVzwal5R54pY5IevaD8dZ4UwFpFWCeHF/TUmPaG9aX1CiAq2m3sxW5g1gMF/oYbVQEmB3N66jSH1qdxIW18Fvcsicb2RJjs/vH+eYaCQQCgUAgEAgEAoE/wi1Olca9kAIGE9b9bFJmQzzNeIzc0VUXwr0sIqbLTfQ2iV86GUwN7ZtPmU7y5rEJRhYA3rPFVJMSKmnehxhHmVHib0+nnhQUAlPFi8tXOeqUlIOqMLyQJet43fQ9Kz3ihQ8Ex3+a6O4lKs9Yp2juL2eJwgMFusZcvtztBKGo3lrQlt49Fk1XmXWsqY5co5rX3rjYWpv8QKbh9kehRybac3CKAb22Er4aV6YKeslM9cfHlbyIfQ+m4JBAXikOGnVJBwj5NIO1QbygcvpGAjngP6r3cMMJmosoDnKNrVHS+YjqgPLJUsM3mQZFZR14LZolGGRphFDdpojGN73s5HQqQaarSQSvnfH/OtbzfRFHp6+o4u1FFj5N3876r2w8GcJQ+WLaiECx1rTyIeu62T76krJSCMMti+3LbgB8QAIqCpfnJDe5mBaVQJfKKAAHwgH/k0RP4rW9hf/02CZZ98/24bOnpa+soeZWlke6QHFjjiOL6zu3vQL3jdQjYyXIUUI+pUM2FnOuA1+CVIUjaBsWbkLZG1ikrIJqODlo/JeQr4t7WVjjV/m0Wso/1Bzzwms2u0laKkFDObjsPpDAGRfpVBelDLdD3N5B+fKUj3z4SQKmjuoenoAliFvWHdP22bhRjUIAbpUru6gbZx9JgKC6ZkyP8KcKMLz6GZm4TaMbbayRp3Rko6bDz30C6poy6WOWIOetfoqs6zOFZglwNS5Lc2R9QHBg8YLaNpclULvi4Ad6E5DAEGLqajQJd5DW/Aaqd8oEbKUVSf5EoRJ8tTsbxv1aO7A3StmYw8gjfaA/U0tG7aJ/4bVVY+gnIXtjjUgfzoXgQ+PWP5dJDqL779ps1A4kf0J0sGeH9VYC5OpXlTxaloAaB4ewOoANmyimnHbk9BLZIsNJ8KGWN3UvoUC7h+ExzwsJBG0l2k7mOmi8WHa0tSzBsIoMbYgVCTYcVOLG3CGV/rq5/r6TYSDzzJOJL3puRYQWxP3aFwN6Y/AWz8+i96kE43sHVLrt6yc/YrKrMkphMYz6FOO/DZjRstgymnASkFqlH9x5wj9JYOEbh+b2cM1I05tKoBzH/V7A+4l1mOz3X/r4HRKE42ZltBMJopuMl48G3bxDPUspYw8PKuGKKik3rYyPdfDawK3V3UlLplABuyNnDM17EpBKka1rnIR//gKuNutw19zlbtpq7Hlr1wtnNtSTcxuiM8a2TLIng7Ih+a4k6rDNQcrWqLbGkrby2lf5QIJ/gstP/trHjtJ+8JDK6+YfCAQCgUAgEAgEAoFAIBAIBAKBQOD/yKa4v3oPl3U3eQ1wpo/p37DJD+POm0/o7Ds6priXk7coP5G8Ce0euZMDy5Ad5vtP/EKnk/Is0zXr8x8V8xXfTUufbHqU5iQFOO7nNZ0Z3btTmE4lWH6d49IQTqZ6/4p4Y676gRRTm1mZBARapDKmf5n+3Ww5UGNsojXv1yn1ZfFIafau0AXy0tOXnL19Ub8kPpmWJIj3kqstXDoY2roR3YwxjbzmbXirBHgY+j4TtMvSaxrbgUqZ9fYzuJfkXC2Owl1+D/24m9Dfu+Z9mzp9MOes2xo7U8ayua7l7SeFoY140AzvrWhMFZf2s09qE7OthUtMdZB/EuU1m1payLfZw7a0/jaDfeOKW1rPO1tKV0mQTE6IL5KNKUyjZ8doa43nNZm5R7FGIBqT6xnhcvitDvjXRvVqHM6MvrAe76TDtD7jNRvIXdqd5WrsJ42Wl8b4B2QGdSs6WPfeC+Betzs8rEF4duDpYGQ09KNpJ018kdrbGEeMdjDh1zo4r7pzWTa8jeRmCtoWKhs4OnPnO7vWoOTpsIfqT0aOcGVwdk97e/8hX5Rs5w7/q0q5/uILbCC1dlCpJ/02tq4mlbTQL1kdHAergbweu8BkEAdg6Yx86D/kvI+jLPdGNiKXu16+yhc+1ME0+U/sIB6ouPbOhkMm8g12Tzsu/B2x9UmKRgpc6VlZmWbew39MsjUnOxbI1Nlbp381WuVoLD+AcsYPPX+NbOUCMDdrJsRu0Dp0VelUnI2RwIc6mCbv6WBz4Qrz7IAu2k1U8GY51UFODhkNjzdinbn5+TooXMaeHdTmN24oaWzjzqaS4NpzmNRlez2rDC1ki1C+bJLpqX81gJ1W0nefvtGBr6zf6oB/mdFXEtnANcg6+DqJWYsK4oH7ssKL+0IHevJbTHO5DpUb8k50cB9Gw3OsTJXt1Y9MSYrhzU6hSSUdUH9zHVQvdOBd/IEOpA+Tnqs8cW2qDpK29wbBYgdnlnrfeMbgmhyB8ZTi9cn9P6YDlqSszSD740UH8XE7bHe+93R0y2PObH+dWkDldi6iy5tw5t2vTzporUiZDJuFiUIWdfCc/NwOVA5rB+bq+RBMah4PLvn3IJ/v3EUFyGzs817YwaikvyMWD+iqIOOqndhBaVpVuUf77IWOVXtx6VjqWbhpQwUag3tGoN3hnNIfC9qhGjPN8Z0vmutAA5b3fQ+dicDxXgfTN1VB1NrdraD6V3SgG0q9ZhYfir6+TXXgXVj8rgqTg+vpwoODBR3oifJKB9FBJJmkOyJfVCkf+6K70wElWvLMzM1fNODBNDB9kTFrttroi9a2fj/98VOHiS+STP6WSjNAEb7PKyRnpC5ndrDIYl39vQ6iAw3x4mH6SZ6llo8vhI91UJiiL1DdYozPdqBNHcgzO8ZMHm6Am/lT4J3r6Dw7SH41Ozu4sfTFnPvmMhZppgPvwvKivf6og1QXCBxejPujfDxG7+uRTb7CfKODafJJuTPXG69rHbTlzLBjiomMRTvWxHFZTk8HxEr70T8la8dudW/3fyszHfRkczpNVtrlrwR+1METfoydMY/bkhJkEG95o4MZcU++Nu1ZL7O2NLFH71l39f17ZVgfR3ZfI5Wp9Mzx2eZynxTjCBfrOJ9mTHRAYEJn7NrPvrq/9IC/0cHFnOAMkhzTtsu0PK6DFPw07fximUaLzOb1iQ6+Tr7B0aLlcvIzO/hLknHd+qCfzxFZXrORerX8ve779bTvTy9Q4fW5GAnHnTKpvmfo825wuF69Fe9jRTGvVbejfC+tddRCyyORrKSVz8XVHCW+WkNPaRHX6SDJTxTRr+1yMimndr+v1t3qYZZ94ytX/NdUT1bU5Cp02p5Wu+VSoNzN04ggdatKlv27ZkpASetTt9ivlfJ92f3VnDuKNqs3HiDVaa9l8mn/bj/JsvS/7rIcrvZNyRPdmw+2AoFAIBAIBAKBQCAQCAQCgUAg8IYo+h/yrD5SKaDzmgAAAABJRU5ErkJggg==;" parent="1" vertex="1">
          <mxGeometry x="-420.0052941176468" y="-512.0035294117647" width="387" height="82" as="geometry" />
        </mxCell>
        <mxCell id="1uWH6UvffxMvrlQ3iq2U-61" value="&lt;font style=&quot;font-size: 34px;&quot;&gt;消費者+閱讀+公告&lt;/font&gt;" style="text;strokeColor=none;align=center;fillColor=none;html=1;verticalAlign=middle;whiteSpace=wrap;rounded=0;fontSize=34;" parent="1" vertex="1">
          <mxGeometry x="-919" y="137" width="339" height="96" as="geometry" />
        </mxCell>
        <mxCell id="1uWH6UvffxMvrlQ3iq2U-62" value="&lt;font style=&quot;font-size: 34px;&quot;&gt;商家+閱讀+公告&lt;/font&gt;" style="text;strokeColor=none;align=center;fillColor=none;html=1;verticalAlign=middle;whiteSpace=wrap;rounded=0;fontSize=34;" parent="1" vertex="1">
          <mxGeometry x="479" y="-177" width="339" height="96" as="geometry" />
        </mxCell>
        <mxCell id="1uWH6UvffxMvrlQ3iq2U-63" value="&lt;font style=&quot;font-size: 40px;&quot;&gt;訪客+閱讀+公告&lt;/font&gt;" style="text;strokeColor=none;align=center;fillColor=none;html=1;verticalAlign=middle;whiteSpace=wrap;rounded=0;fontSize=40;" parent="1" vertex="1">
          <mxGeometry x="-442" y="495" width="339" height="96" as="geometry" />
        </mxCell>
        <mxCell id="1uWH6UvffxMvrlQ3iq2U-64" value="&lt;div style=&quot;language:zh-TW;line-height:90%;margin-top:10.0pt;margin-bottom:&lt;br/&gt;0pt;margin-left:.25in;text-indent:-.25in;text-align:left;direction:ltr;&lt;br/&gt;unicode-bidi:embed;mso-line-break-override:none;word-break:normal;punctuation-wrap:&lt;br/&gt;hanging&quot;&gt;&lt;span style=&quot;font-size:28.0pt;font-family:&lt;br/&gt;新細明體;mso-ascii-font-family:Calibri;mso-fareast-font-family:新細明體;mso-bidi-font-family:&lt;br/&gt;+mn-cs;mso-ascii-theme-font:minor-latin;mso-fareast-theme-font:minor-fareast;&lt;br/&gt;mso-bidi-theme-font:minor-bidi;color:black;mso-color-index:1;mso-font-kerning:&lt;br/&gt;12.0pt;language:zh-TW;mso-style-textfill-type:solid;mso-style-textfill-fill-themecolor:&lt;br/&gt;text1;mso-style-textfill-fill-color:black;mso-style-textfill-fill-alpha:100.0%&quot;&gt;管理員&lt;/span&gt;&lt;span style=&quot;font-size:28.0pt;font-family:Calibri;mso-ascii-font-family:Calibri;&lt;br/&gt;mso-fareast-font-family:新細明體;mso-bidi-font-family:+mn-cs;mso-ascii-theme-font:&lt;br/&gt;minor-latin;mso-fareast-theme-font:minor-fareast;mso-bidi-theme-font:minor-bidi;&lt;br/&gt;color:black;mso-color-index:1;mso-font-kerning:12.0pt;language:en-US;&lt;br/&gt;mso-style-textfill-type:solid;mso-style-textfill-fill-themecolor:text1;&lt;br/&gt;mso-style-textfill-fill-color:black;mso-style-textfill-fill-alpha:100.0%&quot;&gt;+&lt;/span&gt;&lt;span style=&quot;font-size:28.0pt;font-family:新細明體;mso-ascii-font-family:Calibri;&lt;br/&gt;mso-fareast-font-family:新細明體;mso-bidi-font-family:+mn-cs;mso-ascii-theme-font:&lt;br/&gt;minor-latin;mso-fareast-theme-font:minor-fareast;mso-bidi-theme-font:minor-bidi;&lt;br/&gt;color:black;mso-color-index:1;mso-font-kerning:12.0pt;language:zh-TW;&lt;br/&gt;mso-style-textfill-type:solid;mso-style-textfill-fill-themecolor:text1;&lt;br/&gt;mso-style-textfill-fill-color:black;mso-style-textfill-fill-alpha:100.0%&quot;&gt;瀏覽&lt;/span&gt;&lt;span style=&quot;font-size:28.0pt;font-family:Calibri;mso-ascii-font-family:Calibri;&lt;br/&gt;mso-fareast-font-family:新細明體;mso-bidi-font-family:+mn-cs;mso-ascii-theme-font:&lt;br/&gt;minor-latin;mso-fareast-theme-font:minor-fareast;mso-bidi-theme-font:minor-bidi;&lt;br/&gt;color:black;mso-color-index:1;mso-font-kerning:12.0pt;language:en-US;&lt;br/&gt;mso-style-textfill-type:solid;mso-style-textfill-fill-themecolor:text1;&lt;br/&gt;mso-style-textfill-fill-color:black;mso-style-textfill-fill-alpha:100.0%&quot;&gt;+&lt;/span&gt;&lt;span style=&quot;font-size:28.0pt;font-family:新細明體;mso-ascii-font-family:Calibri;&lt;br/&gt;mso-fareast-font-family:新細明體;mso-bidi-font-family:+mn-cs;mso-ascii-theme-font:&lt;br/&gt;minor-latin;mso-fareast-theme-font:minor-fareast;mso-bidi-theme-font:minor-bidi;&lt;br/&gt;color:black;mso-color-index:1;mso-font-kerning:12.0pt;language:zh-TW;&lt;br/&gt;mso-style-textfill-type:solid;mso-style-textfill-fill-themecolor:text1;&lt;br/&gt;mso-style-textfill-fill-color:black;mso-style-textfill-fill-alpha:100.0%&quot;&gt;商家資料&lt;/span&gt;&lt;/div&gt;" style="text;whiteSpace=wrap;html=1;" parent="1" vertex="1">
          <mxGeometry x="1174.9970588235296" y="499.00470588235316" width="412" height="55" as="geometry" />
        </mxCell>
        <mxCell id="1uWH6UvffxMvrlQ3iq2U-66" value="&lt;div style=&quot;language:zh-TW;line-height:90%;margin-top:10.0pt;margin-bottom:&lt;br/&gt;0pt;margin-left:.25in;text-indent:-.25in;text-align:left;direction:ltr;&lt;br/&gt;unicode-bidi:embed;mso-line-break-override:none;word-break:normal;punctuation-wrap:&lt;br/&gt;hanging&quot;&gt;&lt;span style=&quot;font-size:28.0pt;font-family:&lt;br/&gt;新細明體;mso-ascii-font-family:Calibri;mso-fareast-font-family:新細明體;mso-bidi-font-family:&lt;br/&gt;+mn-cs;mso-ascii-theme-font:minor-latin;mso-fareast-theme-font:minor-fareast;&lt;br/&gt;mso-bidi-theme-font:minor-bidi;color:black;mso-color-index:1;mso-font-kerning:&lt;br/&gt;12.0pt;language:zh-TW;mso-style-textfill-type:solid;mso-style-textfill-fill-themecolor:&lt;br/&gt;text1;mso-style-textfill-fill-color:black;mso-style-textfill-fill-alpha:100.0%&quot;&gt;管理員&lt;/span&gt;&lt;span style=&quot;font-size:28.0pt;font-family:Calibri;mso-ascii-font-family:Calibri;&lt;br/&gt;mso-fareast-font-family:新細明體;mso-bidi-font-family:+mn-cs;mso-ascii-theme-font:&lt;br/&gt;minor-latin;mso-fareast-theme-font:minor-fareast;mso-bidi-theme-font:minor-bidi;&lt;br/&gt;color:black;mso-color-index:1;mso-font-kerning:12.0pt;language:en-US;&lt;br/&gt;mso-style-textfill-type:solid;mso-style-textfill-fill-themecolor:text1;&lt;br/&gt;mso-style-textfill-fill-color:black;mso-style-textfill-fill-alpha:100.0%&quot;&gt;+&lt;/span&gt;&lt;span style=&quot;font-size:28.0pt;font-family:新細明體;mso-ascii-font-family:Calibri;&lt;br/&gt;mso-fareast-font-family:新細明體;mso-bidi-font-family:+mn-cs;mso-ascii-theme-font:&lt;br/&gt;minor-latin;mso-fareast-theme-font:minor-fareast;mso-bidi-theme-font:minor-bidi;&lt;br/&gt;color:black;mso-color-index:1;mso-font-kerning:12.0pt;language:zh-TW;&lt;br/&gt;mso-style-textfill-type:solid;mso-style-textfill-fill-themecolor:text1;&lt;br/&gt;mso-style-textfill-fill-color:black;mso-style-textfill-fill-alpha:100.0%&quot;&gt;瀏覽&lt;/span&gt;&lt;span style=&quot;font-size:28.0pt;font-family:Calibri;mso-ascii-font-family:Calibri;&lt;br/&gt;mso-fareast-font-family:新細明體;mso-bidi-font-family:+mn-cs;mso-ascii-theme-font:&lt;br/&gt;minor-latin;mso-fareast-theme-font:minor-fareast;mso-bidi-theme-font:minor-bidi;&lt;br/&gt;color:black;mso-color-index:1;mso-font-kerning:12.0pt;language:en-US;&lt;br/&gt;mso-style-textfill-type:solid;mso-style-textfill-fill-themecolor:text1;&lt;br/&gt;mso-style-textfill-fill-color:black;mso-style-textfill-fill-alpha:100.0%&quot;&gt;+&lt;/span&gt;&lt;span style=&quot;font-size:28.0pt;font-family:新細明體;mso-ascii-font-family:Calibri;&lt;br/&gt;mso-fareast-font-family:新細明體;mso-bidi-font-family:+mn-cs;mso-ascii-theme-font:&lt;br/&gt;minor-latin;mso-fareast-theme-font:minor-fareast;mso-bidi-theme-font:minor-bidi;&lt;br/&gt;color:black;mso-color-index:1;mso-font-kerning:12.0pt;language:zh-TW;&lt;br/&gt;mso-style-textfill-type:solid;mso-style-textfill-fill-themecolor:text1;&lt;br/&gt;mso-style-textfill-fill-color:black;mso-style-textfill-fill-alpha:100.0%&quot;&gt;消費者資料&lt;/span&gt;&lt;/div&gt;" style="text;whiteSpace=wrap;html=1;" parent="1" vertex="1">
          <mxGeometry x="1173.003529411765" y="572.9994117647059" width="449" height="55" as="geometry" />
        </mxCell>
        <mxCell id="1uWH6UvffxMvrlQ3iq2U-67" value="&lt;div style=&quot;language:zh-TW;line-height:90%;margin-top:10.0pt;margin-bottom:&lt;br/&gt;0pt;margin-left:.25in;text-indent:-.25in;text-align:left;direction:ltr;&lt;br/&gt;unicode-bidi:embed;mso-line-break-override:none;word-break:normal;punctuation-wrap:&lt;br/&gt;hanging&quot;&gt;&lt;span style=&quot;font-size:28.0pt;font-family:&lt;br/&gt;新細明體;mso-ascii-font-family:Calibri;mso-fareast-font-family:新細明體;mso-bidi-font-family:&lt;br/&gt;+mn-cs;mso-ascii-theme-font:minor-latin;mso-fareast-theme-font:minor-fareast;&lt;br/&gt;mso-bidi-theme-font:minor-bidi;color:black;mso-color-index:1;mso-font-kerning:&lt;br/&gt;12.0pt;language:zh-TW;mso-style-textfill-type:solid;mso-style-textfill-fill-themecolor:&lt;br/&gt;text1;mso-style-textfill-fill-color:black;mso-style-textfill-fill-alpha:100.0%&quot;&gt;管理員&lt;/span&gt;&lt;span style=&quot;font-size:28.0pt;font-family:Calibri;mso-ascii-font-family:Calibri;&lt;br/&gt;mso-fareast-font-family:新細明體;mso-bidi-font-family:+mn-cs;mso-ascii-theme-font:&lt;br/&gt;minor-latin;mso-fareast-theme-font:minor-fareast;mso-bidi-theme-font:minor-bidi;&lt;br/&gt;color:black;mso-color-index:1;mso-font-kerning:12.0pt;language:en-US;&lt;br/&gt;mso-style-textfill-type:solid;mso-style-textfill-fill-themecolor:text1;&lt;br/&gt;mso-style-textfill-fill-color:black;mso-style-textfill-fill-alpha:100.0%&quot;&gt;+&lt;/span&gt;&lt;span style=&quot;font-size:28.0pt;font-family:新細明體;mso-ascii-font-family:Calibri;&lt;br/&gt;mso-fareast-font-family:新細明體;mso-bidi-font-family:+mn-cs;mso-ascii-theme-font:&lt;br/&gt;minor-latin;mso-fareast-theme-font:minor-fareast;mso-bidi-theme-font:minor-bidi;&lt;br/&gt;color:black;mso-color-index:1;mso-font-kerning:12.0pt;language:zh-TW;&lt;br/&gt;mso-style-textfill-type:solid;mso-style-textfill-fill-themecolor:text1;&lt;br/&gt;mso-style-textfill-fill-color:black;mso-style-textfill-fill-alpha:100.0%&quot;&gt;瀏覽&lt;/span&gt;&lt;span style=&quot;font-size:28.0pt;font-family:Calibri;mso-ascii-font-family:Calibri;&lt;br/&gt;mso-fareast-font-family:新細明體;mso-bidi-font-family:+mn-cs;mso-ascii-theme-font:&lt;br/&gt;minor-latin;mso-fareast-theme-font:minor-fareast;mso-bidi-theme-font:minor-bidi;&lt;br/&gt;color:black;mso-color-index:1;mso-font-kerning:12.0pt;language:en-US;&lt;br/&gt;mso-style-textfill-type:solid;mso-style-textfill-fill-themecolor:text1;&lt;br/&gt;mso-style-textfill-fill-color:black;mso-style-textfill-fill-alpha:100.0%&quot;&gt;+&lt;/span&gt;&lt;span style=&quot;font-size:28.0pt;font-family:新細明體;mso-ascii-font-family:Calibri;&lt;br/&gt;mso-fareast-font-family:新細明體;mso-bidi-font-family:+mn-cs;mso-ascii-theme-font:&lt;br/&gt;minor-latin;mso-fareast-theme-font:minor-fareast;mso-bidi-theme-font:minor-bidi;&lt;br/&gt;color:black;mso-color-index:1;mso-font-kerning:12.0pt;language:zh-TW;&lt;br/&gt;mso-style-textfill-type:solid;mso-style-textfill-fill-themecolor:text1;&lt;br/&gt;mso-style-textfill-fill-color:black;mso-style-textfill-fill-alpha:100.0%&quot;&gt;訂單明細&lt;/span&gt;&lt;/div&gt;" style="text;whiteSpace=wrap;html=1;" parent="1" vertex="1">
          <mxGeometry x="1174.9941176470586" y="645.9970588235293" width="412" height="55" as="geometry" />
        </mxCell>
        <mxCell id="1uWH6UvffxMvrlQ3iq2U-68" value="&lt;div style=&quot;language:zh-TW;line-height:90%;margin-top:10.0pt;margin-bottom:&lt;br/&gt;0pt;margin-left:.25in;text-indent:-.25in;text-align:left;direction:ltr;&lt;br/&gt;unicode-bidi:embed;mso-line-break-override:none;word-break:normal;punctuation-wrap:&lt;br/&gt;hanging&quot;&gt;&lt;span style=&quot;font-size:28.0pt;font-family:&lt;br/&gt;新細明體;mso-ascii-font-family:Calibri;mso-fareast-font-family:新細明體;mso-bidi-font-family:&lt;br/&gt;+mn-cs;mso-ascii-theme-font:minor-latin;mso-fareast-theme-font:minor-fareast;&lt;br/&gt;mso-bidi-theme-font:minor-bidi;color:black;mso-color-index:1;mso-font-kerning:&lt;br/&gt;12.0pt;language:zh-TW;mso-style-textfill-type:solid;mso-style-textfill-fill-themecolor:&lt;br/&gt;text1;mso-style-textfill-fill-color:black;mso-style-textfill-fill-alpha:100.0%&quot;&gt;管理員&lt;/span&gt;&lt;span style=&quot;font-size:28.0pt;font-family:Calibri;mso-ascii-font-family:Calibri;&lt;br/&gt;mso-fareast-font-family:新細明體;mso-bidi-font-family:+mn-cs;mso-ascii-theme-font:&lt;br/&gt;minor-latin;mso-fareast-theme-font:minor-fareast;mso-bidi-theme-font:minor-bidi;&lt;br/&gt;color:black;mso-color-index:1;mso-font-kerning:12.0pt;language:en-US;&lt;br/&gt;mso-style-textfill-type:solid;mso-style-textfill-fill-themecolor:text1;&lt;br/&gt;mso-style-textfill-fill-color:black;mso-style-textfill-fill-alpha:100.0%&quot;&gt;+&lt;/span&gt;&lt;span style=&quot;font-size:28.0pt;font-family:新細明體;mso-ascii-font-family:Calibri;&lt;br/&gt;mso-fareast-font-family:新細明體;mso-bidi-font-family:+mn-cs;mso-ascii-theme-font:&lt;br/&gt;minor-latin;mso-fareast-theme-font:minor-fareast;mso-bidi-theme-font:minor-bidi;&lt;br/&gt;color:black;mso-color-index:1;mso-font-kerning:12.0pt;language:zh-TW;&lt;br/&gt;mso-style-textfill-type:solid;mso-style-textfill-fill-themecolor:text1;&lt;br/&gt;mso-style-textfill-fill-color:black;mso-style-textfill-fill-alpha:100.0%&quot;&gt;瀏覽&lt;/span&gt;&lt;span style=&quot;font-size:28.0pt;font-family:Calibri;mso-ascii-font-family:Calibri;&lt;br/&gt;mso-fareast-font-family:新細明體;mso-bidi-font-family:+mn-cs;mso-ascii-theme-font:&lt;br/&gt;minor-latin;mso-fareast-theme-font:minor-fareast;mso-bidi-theme-font:minor-bidi;&lt;br/&gt;color:black;mso-color-index:1;mso-font-kerning:12.0pt;language:en-US;&lt;br/&gt;mso-style-textfill-type:solid;mso-style-textfill-fill-themecolor:text1;&lt;br/&gt;mso-style-textfill-fill-color:black;mso-style-textfill-fill-alpha:100.0%&quot;&gt;+&lt;/span&gt;&lt;span style=&quot;font-size:28.0pt;font-family:新細明體;mso-ascii-font-family:Calibri;&lt;br/&gt;mso-fareast-font-family:新細明體;mso-bidi-font-family:+mn-cs;mso-ascii-theme-font:&lt;br/&gt;minor-latin;mso-fareast-theme-font:minor-fareast;mso-bidi-theme-font:minor-bidi;&lt;br/&gt;color:black;mso-color-index:1;mso-font-kerning:12.0pt;language:zh-TW;&lt;br/&gt;mso-style-textfill-type:solid;mso-style-textfill-fill-themecolor:text1;&lt;br/&gt;mso-style-textfill-fill-color:black;mso-style-textfill-fill-alpha:100.0%&quot;&gt;商品&lt;/span&gt;&lt;/div&gt;" style="text;whiteSpace=wrap;html=1;" parent="1" vertex="1">
          <mxGeometry x="1189.0017647058828" y="713.0011764705882" width="338" height="55" as="geometry" />
        </mxCell>
        <mxCell id="1uWH6UvffxMvrlQ3iq2U-69" value="&lt;div style=&quot;language:zh-TW;line-height:90%;margin-top:10.0pt;margin-bottom:&lt;br/&gt;0pt;margin-left:.25in;text-indent:-.25in;text-align:left;direction:ltr;&lt;br/&gt;unicode-bidi:embed;mso-line-break-override:none;word-break:normal;punctuation-wrap:&lt;br/&gt;hanging&quot;&gt;&lt;span style=&quot;font-size:28.0pt;font-family:&lt;br/&gt;新細明體;mso-ascii-font-family:Calibri;mso-fareast-font-family:新細明體;mso-bidi-font-family:&lt;br/&gt;+mn-cs;mso-ascii-theme-font:minor-latin;mso-fareast-theme-font:minor-fareast;&lt;br/&gt;mso-bidi-theme-font:minor-bidi;color:black;mso-color-index:1;mso-font-kerning:&lt;br/&gt;12.0pt;language:zh-TW;mso-style-textfill-type:solid;mso-style-textfill-fill-themecolor:&lt;br/&gt;text1;mso-style-textfill-fill-color:black;mso-style-textfill-fill-alpha:100.0%&quot;&gt;管理員&lt;/span&gt;&lt;span style=&quot;font-size:28.0pt;font-family:Calibri;mso-ascii-font-family:Calibri;&lt;br/&gt;mso-fareast-font-family:新細明體;mso-bidi-font-family:+mn-cs;mso-ascii-theme-font:&lt;br/&gt;minor-latin;mso-fareast-theme-font:minor-fareast;mso-bidi-theme-font:minor-bidi;&lt;br/&gt;color:black;mso-color-index:1;mso-font-kerning:12.0pt;language:en-US;&lt;br/&gt;mso-style-textfill-type:solid;mso-style-textfill-fill-themecolor:text1;&lt;br/&gt;mso-style-textfill-fill-color:black;mso-style-textfill-fill-alpha:100.0%&quot;&gt;+&lt;/span&gt;&lt;span style=&quot;font-size:28.0pt;font-family:新細明體;mso-ascii-font-family:Calibri;&lt;br/&gt;mso-fareast-font-family:新細明體;mso-bidi-font-family:+mn-cs;mso-ascii-theme-font:&lt;br/&gt;minor-latin;mso-fareast-theme-font:minor-fareast;mso-bidi-theme-font:minor-bidi;&lt;br/&gt;color:black;mso-color-index:1;mso-font-kerning:12.0pt;language:zh-TW;&lt;br/&gt;mso-style-textfill-type:solid;mso-style-textfill-fill-themecolor:text1;&lt;br/&gt;mso-style-textfill-fill-color:black;mso-style-textfill-fill-alpha:100.0%&quot;&gt;瀏覽&lt;/span&gt;&lt;span style=&quot;font-size:28.0pt;font-family:Calibri;mso-ascii-font-family:Calibri;&lt;br/&gt;mso-fareast-font-family:新細明體;mso-bidi-font-family:+mn-cs;mso-ascii-theme-font:&lt;br/&gt;minor-latin;mso-fareast-theme-font:minor-fareast;mso-bidi-theme-font:minor-bidi;&lt;br/&gt;color:black;mso-color-index:1;mso-font-kerning:12.0pt;language:en-US;&lt;br/&gt;mso-style-textfill-type:solid;mso-style-textfill-fill-themecolor:text1;&lt;br/&gt;mso-style-textfill-fill-color:black;mso-style-textfill-fill-alpha:100.0%&quot;&gt;+&lt;/span&gt;&lt;span style=&quot;font-size: 28pt;&quot;&gt;&lt;font face=&quot;新細明體&quot;&gt;違規事件&lt;/font&gt;&lt;/span&gt;&lt;/div&gt;" style="text;whiteSpace=wrap;html=1;" parent="1" vertex="1">
          <mxGeometry x="1172.9970588235296" y="778.0011764705882" width="412" height="55" as="geometry" />
        </mxCell>
        <mxCell id="rDQoKb7hyjrapQx6K91Q-3" value="&lt;font style=&quot;font-size: 40px;&quot;&gt;管理員+設定+商品大類&lt;/font&gt;" style="text;strokeColor=none;align=center;fillColor=none;html=1;verticalAlign=middle;whiteSpace=wrap;rounded=0;" parent="1" vertex="1">
          <mxGeometry x="842.5033333333334" y="1188.996666666667" width="500" height="40" as="geometry" />
        </mxCell>
        <mxCell id="rDQoKb7hyjrapQx6K91Q-5" value="&lt;font style=&quot;font-size: 40px;&quot;&gt;訪客+篩選+商品&lt;/font&gt;" style="text;strokeColor=none;align=center;fillColor=none;html=1;verticalAlign=middle;whiteSpace=wrap;rounded=0;" parent="1" vertex="1">
          <mxGeometry x="-519.9966666666666" y="459.0066666666669" width="500" height="40" as="geometry" />
        </mxCell>
        <mxCell id="rDQoKb7hyjrapQx6K91Q-6" value="&lt;font style=&quot;font-size: 40px;&quot;&gt;消費者+篩選+商品&lt;/font&gt;" style="text;strokeColor=none;align=center;fillColor=none;html=1;verticalAlign=middle;whiteSpace=wrap;rounded=0;" parent="1" vertex="1">
          <mxGeometry x="-1085.9966666666664" y="108.00666666666689" width="500" height="40" as="geometry" />
        </mxCell>
        <mxCell id="rDQoKb7hyjrapQx6K91Q-9" value="管理者+查詢+帳號" style="text;strokeColor=none;align=center;fillColor=none;html=1;verticalAlign=middle;whiteSpace=wrap;rounded=0;fontSize=40;" parent="1" vertex="1">
          <mxGeometry x="383.001818181818" y="1002.000909090909" width="500" height="50" as="geometry" />
        </mxCell>
      </root>
    </mxGraphModel>
  </diagram>
</mxfile>
